<svg id="Livello_1" data-name="Livello 1" xmlns="http://www.w3.org/2000/svg" xmlns:xlink="http://www.w3.org/1999/xlink" viewBox="0 0 2494.53 1454"><defs><style>.cls-1,.cls-10,.cls-11,.cls-12,.cls-13,.cls-14,.cls-15,.cls-16,.cls-17,.cls-18,.cls-19,.cls-20,.cls-21,.cls-22,.cls-23,.cls-24,.cls-25,.cls-26,.cls-29,.cls-30,.cls-31,.cls-32,.cls-33,.cls-34,.cls-35,.cls-36,.cls-37,.cls-38,.cls-39,.cls-4,.cls-40,.cls-41,.cls-42,.cls-43,.cls-44,.cls-45,.cls-46,.cls-47,.cls-48,.cls-49,.cls-5,.cls-50,.cls-51,.cls-6,.cls-7,.cls-8,.cls-9{fill:none;}.cls-2,.cls-28,.cls-3{opacity:0.3;}.cls-10,.cls-11,.cls-12,.cls-13,.cls-14,.cls-15,.cls-16,.cls-17,.cls-18,.cls-19,.cls-2,.cls-21,.cls-22,.cls-23,.cls-24,.cls-25,.cls-26,.cls-28,.cls-3,.cls-30,.cls-31,.cls-32,.cls-33,.cls-34,.cls-35,.cls-36,.cls-37,.cls-38,.cls-39,.cls-40,.cls-41,.cls-42,.cls-43,.cls-44,.cls-46,.cls-47,.cls-48,.cls-49,.cls-5,.cls-50,.cls-51,.cls-6,.cls-7,.cls-8,.cls-9{isolation:isolate;}.cls-2{fill:url(#Sfumatura_senza_nome);}.cls-3{fill:url(#Sfumatura_senza_nome_2);}.cls-10,.cls-11,.cls-12,.cls-13,.cls-14,.cls-15,.cls-16,.cls-17,.cls-18,.cls-19,.cls-21,.cls-22,.cls-23,.cls-24,.cls-25,.cls-26,.cls-29,.cls-30,.cls-31,.cls-32,.cls-33,.cls-34,.cls-35,.cls-36,.cls-37,.cls-38,.cls-39,.cls-4,.cls-40,.cls-41,.cls-42,.cls-43,.cls-44,.cls-46,.cls-47,.cls-48,.cls-49,.cls-5,.cls-50,.cls-51,.cls-6,.cls-7,.cls-8,.cls-9{stroke-linecap:round;stroke-linejoin:round;}.cls-29,.cls-4{stroke-width:3px;}.cls-4{stroke:url(#Sfumatura_senza_nome_3);}.cls-30,.cls-5{stroke-width:2.94px;opacity:0.94;}.cls-5{stroke:url(#Sfumatura_senza_nome_4);}.cls-31,.cls-6{stroke-width:2.88px;opacity:0.88;}.cls-6{stroke:url(#Sfumatura_senza_nome_5);}.cls-32,.cls-7{stroke-width:2.81px;opacity:0.81;}.cls-7{stroke:url(#Sfumatura_senza_nome_6);}.cls-33,.cls-8{stroke-width:2.75px;opacity:0.75;}.cls-8{stroke:url(#Sfumatura_senza_nome_7);}.cls-34,.cls-9{stroke-width:2.69px;opacity:0.69;}.cls-9{stroke:url(#Sfumatura_senza_nome_8);}.cls-10,.cls-35{stroke-width:2.63px;opacity:0.63;}.cls-10{stroke:url(#Sfumatura_senza_nome_9);}.cls-11,.cls-36{stroke-width:2.56px;opacity:0.56;}.cls-11{stroke:url(#Sfumatura_senza_nome_10);}.cls-12,.cls-37{stroke-width:2.5px;opacity:0.5;}.cls-12{stroke:url(#Sfumatura_senza_nome_11);}.cls-13,.cls-38{stroke-width:2.44px;opacity:0.44;}.cls-13{stroke:url(#Sfumatura_senza_nome_12);}.cls-14,.cls-39{stroke-width:2.38px;opacity:0.38;}.cls-14{stroke:url(#Sfumatura_senza_nome_13);}.cls-15,.cls-40{stroke-width:2.31px;opacity:0.31;}.cls-15{stroke:url(#Sfumatura_senza_nome_14);}.cls-16,.cls-41{stroke-width:2.25px;opacity:0.25;}.cls-16{stroke:url(#Sfumatura_senza_nome_15);}.cls-17,.cls-42{stroke-width:2.19px;opacity:0.19;}.cls-17{stroke:url(#Sfumatura_senza_nome_16);}.cls-18,.cls-43{stroke-width:2.13px;opacity:0.13;}.cls-18{stroke:url(#Sfumatura_senza_nome_17);}.cls-19,.cls-44{stroke-width:2.06px;opacity:0.06;}.cls-19{stroke:url(#Sfumatura_senza_nome_18);}.cls-20,.cls-45{stroke-miterlimit:10;}.cls-20{stroke:url(#Sfumatura_senza_nome_19);}.cls-21,.cls-46{stroke-width:1.14px;stroke-dasharray:2.57 2.57;opacity:0.86;}.cls-21{stroke:url(#Sfumatura_senza_nome_20);}.cls-22,.cls-47{stroke-width:1.29px;stroke-dasharray:2.14 2.14;opacity:0.71;}.cls-22{stroke:url(#Sfumatura_senza_nome_21);}.cls-23,.cls-48{stroke-width:1.43px;stroke-dasharray:1.71 1.71;opacity:0.57;}.cls-23{stroke:url(#Sfumatura_senza_nome_22);}.cls-24,.cls-49{stroke-width:1.57px;stroke-dasharray:1.29 1.29;opacity:0.43;}.cls-24{stroke:url(#Sfumatura_senza_nome_23);}.cls-25,.cls-50{stroke-width:1.71px;stroke-dasharray:0.86 0.86;opacity:0.29;}.cls-25{stroke:url(#Sfumatura_senza_nome_24);}.cls-26,.cls-51{stroke-width:1.86px;stroke-dasharray:0.43 0.43;opacity:0.14;}.cls-26{stroke:url(#Sfumatura_senza_nome_25);}.cls-27{clip-path:url(#clip-path);}.cls-28{fill:url(#Sfumatura_senza_nome_2-2);}.cls-29{stroke:url(#Sfumatura_senza_nome_10-2);}.cls-30{stroke:url(#Sfumatura_senza_nome_10-3);}.cls-31{stroke:url(#Sfumatura_senza_nome_10-4);}.cls-32{stroke:url(#Sfumatura_senza_nome_10-5);}.cls-33{stroke:url(#Sfumatura_senza_nome_10-6);}.cls-34{stroke:url(#Sfumatura_senza_nome_10-7);}.cls-35{stroke:url(#Sfumatura_senza_nome_10-8);}.cls-36{stroke:url(#Sfumatura_senza_nome_10-9);}.cls-37{stroke:url(#Sfumatura_senza_nome_10-10);}.cls-38{stroke:url(#Sfumatura_senza_nome_10-11);}.cls-39{stroke:url(#Sfumatura_senza_nome_10-12);}.cls-40{stroke:url(#Sfumatura_senza_nome_10-13);}.cls-41{stroke:url(#Sfumatura_senza_nome_10-14);}.cls-42{stroke:url(#Sfumatura_senza_nome_10-15);}.cls-43{stroke:url(#Sfumatura_senza_nome_10-16);}.cls-44{stroke:url(#Sfumatura_senza_nome_10-17);}.cls-45{stroke:url(#Sfumatura_senza_nome_19-2);}.cls-46{stroke:url(#Sfumatura_senza_nome_20-2);}.cls-47{stroke:url(#Sfumatura_senza_nome_21-2);}.cls-48{stroke:url(#Sfumatura_senza_nome_22-2);}.cls-49{stroke:url(#Sfumatura_senza_nome_23-2);}.cls-50{stroke:url(#Sfumatura_senza_nome_24-2);}.cls-51{stroke:url(#Sfumatura_senza_nome_25-2);}.cls-52{font-size:110px;}.cls-52,.cls-53,.cls-57{fill:#fff;font-family:ReadexPro-bold, Readex Pro;font-weight:700;}.cls-53{font-size:107.11px;}.cls-54,.cls-55,.cls-56{font-size:80px;}.cls-55{letter-spacing:-0.02em;}.cls-56{letter-spacing:0em;}.cls-57{font-size:50px;}.cls-58{letter-spacing:-0.02em;}.cls-59{letter-spacing:-0.01em;}</style><radialGradient id="Sfumatura_senza_nome" cx="369.97" cy="1147.73" r="1" gradientTransform="matrix(360.53, 20.85, 20.84, -360.44, -156857.61, 406318.5)" gradientUnits="userSpaceOnUse"><stop offset="0" stop-color="blue" stop-opacity="0.94"/><stop offset="0.03" stop-color="#0006ff" stop-opacity="0.91"/><stop offset="0.22" stop-color="#0029ff" stop-opacity="0.74"/><stop offset="0.41" stop-color="#04f" stop-opacity="0.56"/><stop offset="0.6" stop-color="#0058ff" stop-opacity="0.38"/><stop offset="0.8" stop-color="#0063ff" stop-opacity="0.19"/><stop offset="1" stop-color="#0067ff" stop-opacity="0"/></radialGradient><radialGradient id="Sfumatura_senza_nome_2" cx="370.16" cy="1147.58" r="1" gradientTransform="matrix(443.02, 25.62, 25.61, -442.9, -192955.03, 499773.9)" gradientUnits="userSpaceOnUse"><stop offset="0" stop-color="blue"/><stop offset="0.05" stop-color="#000aff" stop-opacity="0.95"/><stop offset="0.23" stop-color="#002cff" stop-opacity="0.77"/><stop offset="0.41" stop-color="#0046ff" stop-opacity="0.59"/><stop offset="0.59" stop-color="#0058ff" stop-opacity="0.41"/><stop offset="0.79" stop-color="#0063ff" stop-opacity="0.21"/><stop offset="1" stop-color="#0067ff" stop-opacity="0"/></radialGradient><linearGradient id="Sfumatura_senza_nome_3" x1="473.2" y1="467.48" x2="1055.25" y2="1049.68" gradientTransform="matrix(1, 0.06, 0.06, -1, -40.66, 1409.39)" gradientUnits="userSpaceOnUse"><stop offset="0" stop-color="blue"/><stop offset="1" stop-color="#00adf3"/></linearGradient><linearGradient id="Sfumatura_senza_nome_4" x1="346.01" y1="757.84" x2="1192.1" y2="757.84" xlink:href="#Sfumatura_senza_nome_3"/><linearGradient id="Sfumatura_senza_nome_5" x1="339.46" y1="756.76" x2="1208.77" y2="756.76" xlink:href="#Sfumatura_senza_nome_3"/><linearGradient id="Sfumatura_senza_nome_6" x1="332.91" y1="755.34" x2="1225.68" y2="755.34" xlink:href="#Sfumatura_senza_nome_3"/><linearGradient id="Sfumatura_senza_nome_7" x1="326.36" y1="753.6" x2="1242.73" y2="753.6" xlink:href="#Sfumatura_senza_nome_3"/><linearGradient id="Sfumatura_senza_nome_8" x1="319.81" y1="751.63" x2="1259.86" y2="751.63" xlink:href="#Sfumatura_senza_nome_3"/><linearGradient id="Sfumatura_senza_nome_9" x1="313.25" y1="749.55" x2="1277.05" y2="749.55" xlink:href="#Sfumatura_senza_nome_3"/><linearGradient id="Sfumatura_senza_nome_10" x1="306.7" y1="747.37" x2="1294.28" y2="747.37" xlink:href="#Sfumatura_senza_nome_3"/><linearGradient id="Sfumatura_senza_nome_11" x1="300.15" y1="745.1" x2="1311.54" y2="745.1" xlink:href="#Sfumatura_senza_nome_3"/><linearGradient id="Sfumatura_senza_nome_12" x1="293.6" y1="742.76" x2="1328.83" y2="742.76" xlink:href="#Sfumatura_senza_nome_3"/><linearGradient id="Sfumatura_senza_nome_13" x1="287.04" y1="740.37" x2="1346.13" y2="740.37" xlink:href="#Sfumatura_senza_nome_3"/><linearGradient id="Sfumatura_senza_nome_14" x1="280.49" y1="737.97" x2="1363.45" y2="737.97" xlink:href="#Sfumatura_senza_nome_3"/><linearGradient id="Sfumatura_senza_nome_15" x1="273.94" y1="735.55" x2="1380.78" y2="735.55" xlink:href="#Sfumatura_senza_nome_3"/><linearGradient id="Sfumatura_senza_nome_16" x1="267.38" y1="733.08" x2="1398.11" y2="733.08" xlink:href="#Sfumatura_senza_nome_3"/><linearGradient id="Sfumatura_senza_nome_17" x1="260.83" y1="730.56" x2="1415.46" y2="730.56" xlink:href="#Sfumatura_senza_nome_3"/><linearGradient id="Sfumatura_senza_nome_18" x1="254.28" y1="728.07" x2="1432.81" y2="728.07" xlink:href="#Sfumatura_senza_nome_3"/><linearGradient id="Sfumatura_senza_nome_19" x1="355.72" y1="758.59" x2="1174.17" y2="758.59" gradientTransform="matrix(1, 0.06, 0.06, -1, -40.66, 1409.39)" gradientUnits="userSpaceOnUse"><stop offset="0" stop-color="#0068ff"/><stop offset="1" stop-color="#00adf3"/></linearGradient><linearGradient id="Sfumatura_senza_nome_20" x1="421.85" y1="953.76" x2="1107.76" y2="548.1" gradientTransform="matrix(1, 0.06, 0.06, -1, -40.66, 1409.39)" gradientUnits="userSpaceOnUse"><stop offset="0" stop-color="#0068ff"/><stop offset="1" stop-color="#00a3f5"/></linearGradient><linearGradient id="Sfumatura_senza_nome_21" x1="406.14" y1="906.23" x2="1136.92" y2="605.14" gradientTransform="matrix(1, 0.06, 0.06, -1, -40.66, 1409.39)" gradientUnits="userSpaceOnUse"><stop offset="0" stop-color="#0068ff"/><stop offset="1" stop-color="#0099f6"/></linearGradient><linearGradient id="Sfumatura_senza_nome_22" x1="434.73" y1="938.17" x2="1090.04" y2="544.94" gradientTransform="matrix(1, 0.06, 0.06, -1, -40.66, 1409.39)" gradientUnits="userSpaceOnUse"><stop offset="0" stop-color="#0068ff"/><stop offset="1" stop-color="#008ff8"/></linearGradient><linearGradient id="Sfumatura_senza_nome_23" x1="510.48" y1="1111" x2="937.78" y2="398.28" gradientTransform="matrix(1, 0.06, 0.06, -1, -40.66, 1409.39)" gradientUnits="userSpaceOnUse"><stop offset="0" stop-color="#0067ff"/><stop offset="1" stop-color="#0085fa"/></linearGradient><linearGradient id="Sfumatura_senza_nome_24" x1="545.12" y1="1178.87" x2="876.9" y2="373.3" gradientTransform="matrix(1, 0.06, 0.06, -1, -40.66, 1409.39)" gradientUnits="userSpaceOnUse"><stop offset="0" stop-color="#0067ff"/><stop offset="1" stop-color="#007bfc"/></linearGradient><linearGradient id="Sfumatura_senza_nome_25" x1="481.75" y1="1123.64" x2="916.15" y2="388.57" gradientTransform="matrix(1, 0.06, 0.06, -1, -40.66, 1409.39)" gradientUnits="userSpaceOnUse"><stop offset="0" stop-color="#0067ff"/><stop offset="1" stop-color="#0071fd"/></linearGradient><clipPath id="clip-path"><rect class="cls-1" x="1170.45" y="-30.66" width="1454" height="1442" transform="translate(779.95 2372.03) rotate(-76.39)"/></clipPath><radialGradient id="Sfumatura_senza_nome_2-2" cx="368.68" cy="1146.16" r="1" gradientTransform="matrix(-431.3, -104.44, -104.41, 431.18, 280911.93, -455219.68)" xlink:href="#Sfumatura_senza_nome_2"/><linearGradient id="Sfumatura_senza_nome_10-2" x1="2184.34" y1="1004.24" x2="1602.29" y2="422.04" gradientTransform="matrix(0.97, 0.24, 0.24, -0.97, -151.42, 957.78)" xlink:href="#Sfumatura_senza_nome_3"/><linearGradient id="Sfumatura_senza_nome_10-3" x1="2311.53" y1="713.88" x2="1465.44" y2="713.88" gradientTransform="matrix(0.97, 0.24, 0.24, -0.97, -151.42, 957.78)" xlink:href="#Sfumatura_senza_nome_3"/><linearGradient id="Sfumatura_senza_nome_10-4" x1="2318.08" y1="714.96" x2="1448.77" y2="714.96" gradientTransform="matrix(0.97, 0.24, 0.24, -0.97, -151.42, 957.78)" xlink:href="#Sfumatura_senza_nome_3"/><linearGradient id="Sfumatura_senza_nome_10-5" x1="2324.63" y1="716.38" x2="1431.87" y2="716.38" gradientTransform="matrix(0.97, 0.24, 0.24, -0.97, -151.42, 957.78)" xlink:href="#Sfumatura_senza_nome_3"/><linearGradient id="Sfumatura_senza_nome_10-6" x1="2331.17" y1="718.12" x2="1414.81" y2="718.12" gradientTransform="matrix(0.97, 0.24, 0.24, -0.97, -151.42, 957.78)" xlink:href="#Sfumatura_senza_nome_3"/><linearGradient id="Sfumatura_senza_nome_10-7" x1="2337.73" y1="720.09" x2="1397.69" y2="720.09" gradientTransform="matrix(0.97, 0.24, 0.24, -0.97, -151.42, 957.78)" xlink:href="#Sfumatura_senza_nome_3"/><linearGradient id="Sfumatura_senza_nome_10-8" x1="2344.29" y1="722.17" x2="1380.49" y2="722.17" gradientTransform="matrix(0.97, 0.24, 0.24, -0.97, -151.42, 957.78)" xlink:href="#Sfumatura_senza_nome_3"/><linearGradient id="Sfumatura_senza_nome_10-9" x1="2350.84" y1="724.35" x2="1363.26" y2="724.35" gradientTransform="matrix(0.97, 0.24, 0.24, -0.97, -151.42, 957.78)" xlink:href="#Sfumatura_senza_nome_3"/><linearGradient id="Sfumatura_senza_nome_10-10" x1="2357.39" y1="726.62" x2="1346" y2="726.62" gradientTransform="matrix(0.97, 0.24, 0.24, -0.97, -151.42, 957.78)" xlink:href="#Sfumatura_senza_nome_3"/><linearGradient id="Sfumatura_senza_nome_10-11" x1="2363.95" y1="728.96" x2="1328.72" y2="728.96" gradientTransform="matrix(0.97, 0.24, 0.24, -0.97, -151.42, 957.78)" xlink:href="#Sfumatura_senza_nome_3"/><linearGradient id="Sfumatura_senza_nome_10-12" x1="2370.5" y1="731.35" x2="1311.41" y2="731.35" gradientTransform="matrix(0.97, 0.24, 0.24, -0.97, -151.42, 957.78)" xlink:href="#Sfumatura_senza_nome_3"/><linearGradient id="Sfumatura_senza_nome_10-13" x1="2377.05" y1="733.75" x2="1294.1" y2="733.75" gradientTransform="matrix(0.97, 0.24, 0.24, -0.97, -151.42, 957.78)" xlink:href="#Sfumatura_senza_nome_3"/><linearGradient id="Sfumatura_senza_nome_10-14" x1="2383.6" y1="736.17" x2="1276.76" y2="736.17" gradientTransform="matrix(0.97, 0.24, 0.24, -0.97, -151.42, 957.78)" xlink:href="#Sfumatura_senza_nome_3"/><linearGradient id="Sfumatura_senza_nome_10-15" x1="2390.16" y1="738.64" x2="1259.43" y2="738.64" gradientTransform="matrix(0.97, 0.24, 0.24, -0.97, -151.42, 957.78)" xlink:href="#Sfumatura_senza_nome_3"/><linearGradient id="Sfumatura_senza_nome_10-16" x1="2396.71" y1="741.16" x2="1242.08" y2="741.16" gradientTransform="matrix(0.97, 0.24, 0.24, -0.97, -151.42, 957.78)" xlink:href="#Sfumatura_senza_nome_3"/><linearGradient id="Sfumatura_senza_nome_10-17" x1="2403.26" y1="743.64" x2="1224.73" y2="743.64" gradientTransform="matrix(0.97, 0.24, 0.24, -0.97, -151.42, 957.78)" xlink:href="#Sfumatura_senza_nome_3"/><linearGradient id="Sfumatura_senza_nome_19-2" x1="2301.83" y1="713.14" x2="1483.37" y2="713.14" gradientTransform="matrix(0.97, 0.24, 0.24, -0.97, -151.42, 957.78)" xlink:href="#Sfumatura_senza_nome_19"/><linearGradient id="Sfumatura_senza_nome_20-2" x1="2235.7" y1="517.96" x2="1549.78" y2="923.62" gradientTransform="matrix(0.97, 0.24, 0.24, -0.97, -151.42, 957.78)" xlink:href="#Sfumatura_senza_nome_20"/><linearGradient id="Sfumatura_senza_nome_21-2" x1="2251.4" y1="565.49" x2="1520.62" y2="866.58" gradientTransform="matrix(0.97, 0.24, 0.24, -0.97, -151.42, 957.78)" xlink:href="#Sfumatura_senza_nome_21"/><linearGradient id="Sfumatura_senza_nome_22-2" x1="2222.81" y1="533.55" x2="1567.5" y2="926.78" gradientTransform="matrix(0.97, 0.24, 0.24, -0.97, -151.42, 957.78)" xlink:href="#Sfumatura_senza_nome_22"/><linearGradient id="Sfumatura_senza_nome_23-2" x1="2147.06" y1="360.72" x2="1719.76" y2="1073.44" gradientTransform="matrix(0.97, 0.24, 0.24, -0.97, -151.42, 957.78)" xlink:href="#Sfumatura_senza_nome_23"/><linearGradient id="Sfumatura_senza_nome_24-2" x1="2112.42" y1="292.85" x2="1780.64" y2="1098.42" gradientTransform="matrix(0.97, 0.24, 0.24, -0.97, -151.42, 957.78)" xlink:href="#Sfumatura_senza_nome_24"/><linearGradient id="Sfumatura_senza_nome_25-2" x1="2175.79" y1="348.08" x2="1741.39" y2="1083.15" gradientTransform="matrix(0.97, 0.24, 0.24, -0.97, -151.42, 957.78)" xlink:href="#Sfumatura_senza_nome_25"/></defs><title>Tavola disegno 1Fuzio</title><path class="cls-2" d="M432.77,705.75c199.12,11.52,369.87-140.52,381.39-339.59S673.58-3.62,474.46-15.13,104.59,125.39,93.07,324.46,233.65,694.24,432.77,705.75Z"/><path class="cls-3" d="M402.25,1437.12c244.68,14.15,454.5-172.68,468.64-417.29S698.16,565.45,453.48,551.3-1,724-15.17,968.59,157.57,1423,402.25,1437.12Z"/><path class="cls-4" d="M1037.47,1000.8c168.26-149.83,183.17-407.67,33.3-575.9S663,241.76,494.72,391.59s-183.18,407.67-33.31,575.9S869.2,1150.63,1037.47,1000.8Z"/><path class="cls-5" d="M787,285.9c61.68,2,121,17.78,170.93,47.58a551.76,551.76,0,0,1,48.43,32.94c27.43,20.59,53.71,42.61,77,66.81a396.66,396.66,0,0,1,77.63,115.07c23.48,53,34.84,114.16,28.15,175-8.48,76.62-41.61,140-83.33,200.32-35.46,51.44-75.37,101.47-129.22,132.95-41.89,24.51-90.68,35.89-139.78,43.49a601.92,601.92,0,0,1-100.84,7.12,417.79,417.79,0,0,1-78.53-8.44A367,367,0,0,1,511,1031.49,385.87,385.87,0,0,1,406.19,908.82c-25-46.13-40.88-97.39-49.26-151.34-4.26-27.37-6.66-55.44-4.85-84.1,3.27-52.31,19.59-100.37,39.24-145.85,16.42-37.9,35.16-73.08,61.29-104.14a319.64,319.64,0,0,1,55.9-51.68,421.27,421.27,0,0,1,65.26-38.79C638.15,301.77,710.64,283.47,787,285.9Z"/><path class="cls-6" d="M784.32,282.8C847.7,283.21,910.1,298.61,960,332c16.62,11.11,32.33,23.38,48.33,35.85,27.93,21.8,56.08,43.24,81.21,66.47a386.9,386.9,0,0,1,85.5,113c26.62,53.41,39.59,117.9,29.7,179.62-12.6,77.77-54.23,135.15-98.44,197.24-37,52.32-72,110-127.4,141.95-42.89,24.77-95.16,30.18-145.2,36.58A1032.09,1032.09,0,0,1,729.34,1111c-27.17.68-53.39-.63-79.23-4.87-54.27-9-106.09-32.23-149.27-65.58C457,1006.66,421.93,962.8,397.65,914c-23.55-47.49-37.1-99.9-46.09-154.54-4.59-27.81-8.08-56.19-6.1-85.26,3.57-52.83,23.64-100,42.71-146.43,15.89-38.59,31.09-74.84,56.66-106.86,16-20,35.79-37.32,56.86-51.77s43.54-26.27,67-36.91C634.56,302.34,707.42,282.3,784.32,282.8Z"/><path class="cls-7" d="M781.63,279.7c65.09-1.19,130.58,13.83,180.5,50.78,16.49,12.21,31.93,25.56,48.21,38.74,28.46,23,58.4,43.94,85.42,66.15,37.56,30.84,69,66.87,93.4,110.86,29.74,53.78,44.36,121.65,31.25,184.18-16.73,78.93-67,130.17-113.52,194.16-38.64,53.12-68.55,118.54-125.62,151-43.9,25-99.6,24.43-150.61,29.69-35.32,3.65-72,7.17-108,9.5-27.35,1.76-53.65,1.85-79.92-1.28-55-6.79-108.44-29.72-152.14-63.91C446.32,1014.88,411.79,969.3,389,919.11c-22.08-48.88-33.33-102.4-42.91-157.76-4.92-28.24-9.51-57-7.36-86.43,3.84-53.37,27.69-99.64,46.18-147,15.39-39.27,27-76.59,52.06-109.57,15.69-20.63,36.14-37.93,57.82-51.86s44.76-24.85,68.67-35C630.94,302.94,704.18,281.11,781.63,279.7Z"/><path class="cls-8" d="M779,276.61c66.81-2.79,135.39,11.8,185.29,52.38,16.33,13.28,31.51,27.76,48.1,41.62,28.94,24.16,60.74,44.59,89.63,65.81,40.29,29.55,74.3,64.43,101.28,108.76,32.88,54.18,49.11,125.38,32.8,188.76C1215.21,814,1156.39,859.21,1107.43,925c-40.18,54-65.15,127.07-123.83,160-44.93,25.26-104.08,18.65-156,22.79-36.62,2.91-74.61,6.89-111.52,10.67-27.54,2.81-54,4.4-80.62,2.3-55.7-4.41-110.77-27.21-155-62.24-44.8-35.47-78.76-82.78-100-134.31-20.62-50.24-29.55-104.92-39.73-161-5.24-28.68-11-57.7-8.65-87.61,4.15-53.88,31.75-99.27,49.65-147.6,14.87-40,22.93-78.36,47.46-112.32,15.36-21.24,36.5-38.53,58.79-51.95s46-23.46,70.38-33.11C627.33,303.54,701,279.87,779,276.61Z"/><path class="cls-9" d="M776.29,273.51c68.53-4.43,140.22,9.75,190.08,54,16.19,14.35,31.11,30,48,44.54,29.46,25.37,63.1,45.24,93.85,65.46,43,28.26,79.59,62,109.14,106.66,36,54.56,53.89,129.14,34.36,193.37-25,81.25-92.31,120.39-143.74,188-41.73,54.85-61.71,135.6-122,169-45.95,25.5-108.58,12.87-161.45,15.89-37.92,2.18-77.23,6.6-115.07,11.87-27.72,3.86-54.24,6.92-81.29,5.88-56.39-2.14-113.12-24.68-157.88-60.57-45.27-36.29-78.69-85.31-98.39-138.22-19.14-51.62-25.75-107.43-36.55-164.19-5.55-29.11-12.39-58.47-9.9-88.76,4.42-54.43,35.79-98.89,53.11-148.19,14.37-40.63,18.84-80.1,42.84-115,15-21.81,36.85-39.11,59.77-52s47.19-22,72.08-31.21C623.71,304.12,697.75,278.58,776.29,273.51Z"/><path class="cls-10" d="M773.63,270.41c70.24-6.09,145,7.7,194.86,55.58,16.06,15.43,30.69,32.19,47.89,47.43,30,26.55,65.46,45.89,98.09,65.12,45.73,27,84.88,59.55,117,104.54C1270.6,598,1290.13,676,1267.38,741c-29.07,82.43-105,115.51-158.83,184.89-43.25,55.72-58.3,144.14-120.26,178-47,25.73-113,7-166.86,9-39.25,1.41-79.86,6.27-118.62,13-27.9,4.88-54.54,9.43-82,9.49-57.09.1-115.45-22.19-160.75-58.91-45.76-37.11-78.61-87.86-96.79-142.1-17.67-53-22-109.94-33.37-167.39-5.9-29.55-13.82-59.21-11.16-89.94,4.7-55,39.86-98.53,56.58-148.77,13.85-41.33,14.77-81.86,38.23-117.76,14.67-22.4,37.21-39.73,60.74-52.13s48.41-20.64,73.79-29.31C620.1,304.72,694.54,277.27,773.63,270.41Z"/><path class="cls-11" d="M771,267.31c72-7.78,149.9,5.63,199.66,57.19,15.92,16.49,30.29,34.39,47.77,50.31,30.45,27.76,67.83,46.52,102.3,64.78,48.48,25.68,90.18,57.1,124.91,102.44,42.26,55.32,63.41,136.64,37.45,202.53-33.22,83.59-117.59,110.61-173.94,181.81-44.8,56.61-54.89,152.67-118.45,187-48,26-117.54,1.23-172.27,2.11-40.56.65-82.52,5.91-122.2,14.22-28.1,5.87-54.83,11.93-82.68,13.07-57.79,2.34-117.79-19.67-163.62-57.24-46.26-37.91-78.52-90.37-95.2-146-16.19-54.37-18.2-112.44-30.19-170.62-6.21-30-15.27-60-12.44-91.09,5-55.47,43.92-98.17,60.05-149.35,13.34-42,10.67-83.62,33.61-120.48,14.33-23,37.55-40.33,61.69-52.22s49.63-19.23,75.5-27.42C616.48,305.29,691.3,275.93,771,267.31Z"/><path class="cls-12" d="M768.27,264.22c73.67-9.5,154.75,3.53,204.44,58.78,15.79,17.54,29.87,36.6,47.65,53.23,31,28.93,70.2,47.14,106.52,64.42,51.2,24.37,95.47,54.67,132.79,100.36,45.37,55.69,68.17,140.39,39,207.12-37.32,84.76-130.21,105.77-189,178.74-46.33,57.5-51.46,161.18-116.67,196-49,26.22-122-4.6-177.69-4.81-41.89-.14-85.17,5.55-125.75,15.42-28.28,6.87-55.12,14.44-83.36,16.65-58.45,4.6-120.13-17.14-166.48-55.58-46.72-38.72-78.45-92.91-93.6-149.85-14.71-55.74-14.42-115-27-173.82-6.53-30.42-16.7-60.73-13.7-92.26,5.28-56,48-97.8,63.53-150,12.84-42.71,6.6-85.37,29-123.19,14-23.59,37.91-40.92,62.66-52.32s50.85-17.83,77.22-25.52C612.86,305.89,688.1,274.54,768.27,264.22Z"/><path class="cls-13" d="M765.6,261.12c75.4-11.24,159.64,1.43,209.24,60.39,15.65,18.61,29.47,38.8,47.53,56.11,31.47,30.14,72.56,47.77,110.75,64.11,54,23,100.77,52.22,140.67,98.25,48.49,56.07,72.93,144.15,40.54,211.71-41.45,85.91-142.86,100.89-204.14,175.65-47.85,58.37-48.06,169.72-114.88,205-50,26.46-126.51-10.48-183.11-11.69-43.19-.93-87.82,5.15-129.3,16.6-28.49,7.84-55.41,16.93-84.06,20.25-59.14,6.83-122.46-14.63-169.35-53.9-47.22-39.55-78.37-95.45-92-153.77-13.23-57.12-10.65-117.47-23.83-177-6.86-30.85-18.13-61.5-15-93.44,5.57-56.55,52-97.44,67-150.55,12.32-43.41,2.51-87.14,24.38-125.94,13.66-24.2,38.26-41.54,63.62-52.38s52.07-16.42,78.93-23.62C609.28,306.47,684.87,273.15,765.6,261.12Z"/><path class="cls-14" d="M762.94,258.05c77.08-13,164.51-.67,214,62,15.54,19.66,29.07,41,47.44,59,32,31.33,74.93,48.4,115,63.76,56.71,21.75,106.06,49.79,148.54,96.14,51.64,56.45,77.69,147.88,42.09,216.28-45.55,87.07-155.45,96-219.22,172.58-49.37,59.26-44.64,178.25-113.09,214-51,26.72-131-16.36-188.52-18.58-44.52-1.73-90.47,4.75-132.85,17.78-28.7,8.81-55.71,19.43-84.76,23.82-59.86,9.06-124.79-12.13-172.22-52.24-47.68-40.36-78.3-98-90.4-157.65-11.78-58.48-6.88-120-20.66-180.24-7.19-31.29-19.56-62.24-16.21-94.59C297.91,623,348.15,583,362.51,529,374.34,484.86,361,440,382.29,400.29c13.33-24.78,38.62-42.13,64.58-52.47s53.29-15,80.64-21.73C605.66,307.07,681.64,271.74,762.94,258.05Z"/><path class="cls-15" d="M760.27,255c78.79-14.77,169.42-2.76,218.81,63.59,15.41,20.7,28.65,43.22,47.32,61.91,32.49,32.53,77.3,49,119.18,63.42,59.43,20.43,111.35,47.34,156.43,94,54.75,56.83,82.47,151.64,43.65,220.89-49.69,88.25-167.94,91.3-234.32,169.46-50.78,60.27-41.24,186.79-111.31,223-52.07,27-135.47-22.23-193.94-25.49-45.82-2.55-93.14,4.33-136.43,19-28.89,9.78-56,21.93-85.42,27.4-60.56,11.3-127.15-9.58-175.09-50.58C361,1080.37,330.92,1021,320.34,960c-10.3-59.85-3.09-122.51-17.48-183.47-7.51-31.7-21-63-17.49-95.77,6.13-57.62,60.15-96.7,73.92-151.72,11.3-44.79-5.64-90.67,15.18-131.38,13-25.39,39-42.72,65.54-52.56s54.51-13.6,82.35-19.84C602,307.67,678.38,270.3,760.27,255Z"/><path class="cls-16" d="M757.6,251.85C838.09,235.27,931.93,247,981.2,317c15.3,21.78,28.26,45.44,47.2,64.8,33,33.72,79.71,49.56,123.4,63.08,62.21,19,116.64,44.9,164.31,91.95,57.87,57.2,87.22,155.37,45.22,225.46-53.82,89.41-180.56,86.42-249.43,166.38-52.3,61.16-37.82,195.33-109.5,232-53.06,27.2-139.94-28.13-199.35-32.38a338.84,338.84,0,0,0-140,20.17c-29.1,10.72-56.28,24.36-86.13,31-61.26,13.4-129.48-7.07-178-48.92-48.67-42-78.15-103-87.2-165.4-8.83-61.23.68-125-14.3-186.67-7.83-32.13-22.44-63.75-18.76-96.92,6.43-58.14,64.2-96.34,77.4-152.3,10.8-45.48-9.72-92.43,10.55-134.1,12.64-26,39.32-43.34,66.5-52.66s55.73-12.17,84.05-17.92C598.43,308.25,675.13,268.84,757.6,251.85Z"/><path class="cls-17" d="M754.91,248.75c82.16-18.39,179.26-7,228.39,66.82,15.19,22.83,27.83,47.64,47.08,67.71,33.51,34.92,82.08,50.19,127.64,62.73C1223,463.7,1280,488.47,1330.2,535.84c61,57.6,92,159.13,46.77,230-57.93,90.57-193.2,81.55-264.53,163.31-53.85,62-34.41,203.86-107.72,241-54.08,27.45-144.43-34-204.76-39.28a318,318,0,0,0-143.53,21.32c-29.33,11.67-56.58,26.87-86.83,34.58-62,15.64-131.81-4.55-180.83-47.23S310.69,1034,303.17,970.28c-7.35-62.59,4.45-127.51-11.13-189.89-8.17-32.58-23.86-64.51-20-98.1,6.71-58.67,68.25-96,80.87-152.89,10.27-46.17-13.79-94.18,6-136.84,12.3-26.56,39.68-43.93,67.46-52.75s56.95-10.78,85.76-16C594.81,308.85,671.88,267.35,754.91,248.75Z"/><path class="cls-18" d="M752.25,245.66c83.83-20.24,184.18-9.12,233.17,68.41,15.08,23.88,27.44,49.85,47,70.6,34,36.11,84.44,50.84,131.85,62.39,67.69,16.37,127.23,40,180,87.73,64.13,58,96.75,162.89,48.33,234.64-62.05,91.74-205.83,76.68-279.64,160.23-55.37,62.91-31,212.39-105.93,250-55.1,27.68-148.9-40-210.18-46.17A300.82,300.82,0,0,0,649.8,1156c-29.55,12.6-56.86,29.36-87.52,38.18-62.65,17.89-134.16-2-183.69-45.57s-78-108.1-84-173.19c-5.87-64,8.23-130-7.95-193.09-8.49-33-25.29-65.27-21.26-99.27,7-59.19,72.3-95.61,84.33-153.48,9.77-46.86-17.88-95.94,1.32-139.56,12-27.16,40-44.52,68.45-52.83S477.64,327.82,507,323C591.2,309.42,668.63,265.86,752.25,245.66Z"/><path class="cls-19" d="M749.58,242.56c85.45-22.28,189.21-11.28,238,70,15,24.9,27,52.05,46.87,73.51,34.52,37.28,86.79,51.46,136.07,62,70.42,15.06,132.52,37.56,188,85.64,67.25,58.36,101.51,166.62,49.87,239.22-66.15,92.89-218.47,71.8-294.75,157.14-56.88,63.79-27.56,220.94-104.13,259-56.13,27.93-153.36-46-215.6-53.09a286.66,286.66,0,0,0-150.66,23.72c-29.78,13.5-57.16,31.86-88.2,41.76-63.37,20.15-136.49.47-186.56-43.92S290.49,1047,286,980.55C281.6,915.2,298,848,281.2,784.22c-8.81-33.44-26.75-66-22.55-100.42,7.28-59.74,76.38-95.25,87.8-154.06,9.27-47.55-21.95-97.7-3.28-142.28,11.64-27.75,40.39-45.14,69.42-52.93s59.38-7.94,89.19-12.23C587.58,310,665.32,264.17,749.58,242.56Z"/><path class="cls-20" d="M1037.47,1000.8c168.26-149.83,183.17-407.67,33.3-575.9S663,241.76,494.72,391.59s-183.18,407.67-33.31,575.9S869.2,1150.63,1037.47,1000.8Z"/><path class="cls-21" d="M795.17,269.08c63.05,4.11,121.17,34.82,170.89,66.83,40.58,26.13,75,60.37,107.14,96.29,16.94,18.91,33.25,38.37,45.83,60.58,21.52,38,30.4,81,40.77,124.26,8.14,33.9,17.08,66.47,16.44,102.65-.49,27.07-5.9,53.61-14,78.33-8.26,25.42-19.37,49.2-32.13,72.21-37.39,67.55-88.63,127.64-152.61,169.7-64.54,42.55-144,68-226.44,57.8-15.42-1.92-30.45-5.36-45.68-8-27-4.74-53.43-7.86-78.51-12.5-35.53-6.52-69.13-17.63-101.6-34.74-41.19-21.71-78.92-55.47-101.26-95.15-28.58-50.8-33.41-102.16-43.61-162.44C373.19,741.43,363,695.5,369,650.23c7.5-56.85,28.09-106.13,56.41-151.8A591.16,591.16,0,0,1,511.55,390c25.94-25.72,54.86-51.54,86.66-69.52C655.64,288.09,724.37,264.52,795.17,269.08Z"/><path class="cls-22" d="M800.66,249.19c61.41,4.51,117.41,47.38,164.11,81.35,39.31,28.58,71,66.07,104.54,101.68,17.65,18.73,35.8,37.07,48.42,59.67,21.68,38.78,23.8,83.8,35.8,127.14,9.48,34.13,24.67,64.16,25.51,100.6.6,26.47-5.84,52.69-15.23,76.32-9.55,24.2-22.2,46.3-35.81,68.14-39.76,64.06-87.3,125.2-148,169.19C918.61,1077.89,839.83,1107,759.7,1092c-16.48-3.07-32.35-8.32-48.89-11.44-29.17-5.48-58.1-5.44-85.24-6.49-38.55-1.4-75.16-8-112.13-23.19-46.39-19-90.12-56.61-108.36-101.74-23.32-57.8-7.92-109.81-14.51-175.4-4.63-47.59-21-98-11.25-145.95,11.07-54.54,37-97.62,68-139.63A1182.74,1182.74,0,0,1,533.83,383.5c23.66-25.34,49.62-55,78.63-73.61C665.6,275.81,732.77,244.33,800.66,249.19Z"/><path class="cls-23" d="M806.18,229.3c59.79,4.88,113.56,60.06,157.31,95.89,38,31.14,67,71.8,101.94,107.08,18.38,18.55,38.33,35.76,51,58.74,21.81,39.52,17.24,86.63,30.82,130,10.84,34.35,32.24,61.85,34.58,98.58,1.64,25.86-5.82,51.77-16.5,74.3-10.79,23-25,43.39-39.49,64.1-42.14,60.59-86,122.75-143.39,168.65-58.24,46.71-136.31,78.89-214.22,59.72-17.53-4.3-34.23-11.28-52.08-14.82-31.35-6.2-62.76-3-92-.49-41.57,3.73-81.19,1.57-122.67-11.63C450,1043.07,400.2,1001.72,386.08,951.11c-18.08-64.8,17.54-117.45,14.57-188.35-2-51.76-24.92-106.53-11.09-157.28,14.23-52.22,45.85-89.14,79.51-127.43,28.49-32.42,58.11-67.39,87-101,21.44-24.93,44.37-58.48,70.61-77.71C675.56,263.49,741.2,224.15,806.18,229.3Z"/><path class="cls-24" d="M811.67,209.41c58.15,5.26,109.66,72.8,150.53,110.43,36.66,33.76,63,77.53,99.32,112.45,19.1,18.37,40.89,34.44,53.64,57.84,22,40.26,10.65,89.46,25.85,132.91,12.17,34.57,39.73,59.54,43.65,96.53,2.66,25.26-5.79,50.84-17.77,72.29-12.08,21.79-27.86,40.45-43.19,60C1079.19,909,1039.08,972.23,984.9,1020c-55.09,48.77-132.37,83.67-208.12,60.68-18.56-5.64-36.14-14.23-55.29-18.18-33.55-6.92-67.42-.62-98.71,5.52-44.59,8.85-87.21,11.11-133.19-.08-56.73-13.82-112.53-58.89-122.53-114.94-12.82-71.81,43-125.11,43.68-201.31.65-55.93-29.13-115.18-10.93-168.62,17-50,54.66-80.66,91.05-115.27,30.63-29.13,60.53-63,87.38-97.21,19.22-24.47,39.1-62,62.57-81.8C685.5,251.09,749.63,203.94,811.67,209.41Z"/><path class="cls-25" d="M817.18,189.53c56.54,5.62,105.71,85.64,143.74,124.94,35.23,36.42,59,83.24,96.7,117.84,19.83,18.19,43.44,33.14,56.27,56.91,22.11,41,4.06,92.27,20.87,135.82,13.52,34.79,47.2,57.24,52.7,94.49,3.65,24.66-5.74,49.94-19,70.26-13.36,20.57-30.68,37.54-46.86,56-46.89,53.62-83.28,117.88-134.2,167.6-51.93,50.88-128.32,88.18-202,61.65-19.56-7-38-17.18-58.51-21.58-35.74-7.64-72.07,1.79-105.43,11.53-47.61,14-93.21,20.65-143.72,11.46C415.77,1065.17,354,1016.4,348,954.9c-7.59-78.82,68.51-132.78,72.78-214.3,3.3-60.06-33.65-124-10.74-179.93,19.63-47.92,63.47-72.23,102.61-103.1,32.77-25.84,63-58.58,87.83-93.46,17.06-24,33.82-65.56,54.54-85.91C695.35,238.64,758.06,183.75,817.18,189.53Z"/><path class="cls-26" d="M822.68,169.64c54.92,6,101.64,98.5,137,139.49,33.72,39.15,55,89,94.08,123.22,20.58,18,46,31.85,58.88,56,22.27,41.75-2.54,95.1,15.9,138.69,14.85,35,54.59,55,61.76,92.44,4.6,24.08-5.69,49-20.3,68.26s-33.5,34.6-50.54,51.93c-49.27,50.12-81.94,115.43-129.6,167.09-48.78,53-124.12,92.43-195.91,62.59-20.5-8.52-39.94-20.17-61.72-25-37.95-8.37-76.73,4.2-112.16,17.55-50.63,19.1-99.22,30.09-154.25,23-67-8.79-134.91-61.17-136.73-128.15C326.72,871,423,816.36,430.93,729.54c5.92-64.23-38.48-133-10.57-191.26,22-46,72.2-63.85,114.14-90.93,34.87-22.63,65.56-54.11,88.25-89.73,15-23.49,28.48-69.13,46.52-90C705.15,226.11,766.49,163.57,822.68,169.64Z"/><g class="cls-27"><path class="cls-28" d="M2338,49c-238.2-57.68-478,88.61-535.71,326.75s88.69,478,326.89,535.63,478.06-88.61,535.72-326.75S2576.19,106.68,2338,49Z"/><path class="cls-29" d="M1644,362c-192.35,117.32-253.13,368.34-135.76,560.65s368.46,253.13,560.81,135.8,253.13-368.33,135.76-560.65S1836.37,244.7,1644,362Z"/><path class="cls-30" d="M1762.61,1110.19c-60.34-12.94-115.85-39.14-159.66-77.38a554,554,0,0,1-41.76-41.07c-23.31-25.16-45.22-51.53-63.77-79.49a396.78,396.78,0,0,1-55.8-127.1c-13.62-56.37-13.85-118.55,3.6-177.22,22-73.86,66-130.33,117.82-182.19,44.08-44.27,92.29-86.35,150.9-107.7,45.6-16.62,95.64-19.09,145.31-17.79a602.09,602.09,0,0,1,100.49,11,417.13,417.13,0,0,1,75.75,22.35,367,367,0,0,1,132,92.35,386,386,0,0,1,81.16,139.43c16.37,49.86,22.8,103.13,21.4,157.71-.71,27.69-3.37,55.74-10.27,83.61-12.57,50.89-37.22,95.25-64.69,136.49-22.93,34.35-47.67,65.61-78.93,91.5a319,319,0,0,1-64.24,40.84,421.68,421.68,0,0,1-71.15,26.51C1911.88,1121.2,1837.29,1126.23,1762.61,1110.19Z"/><path class="cls-31" d="M1764.68,1113.72c-62.29-11.73-120.93-38-164.08-79.81-14.37-13.91-27.63-28.78-41.15-43.92-23.58-26.44-47.44-52.57-68-79.92a386.75,386.75,0,0,1-63.92-126.44c-16.63-57.31-17.87-123.08,2.91-182,26.3-74.27,77.52-123.28,132.12-176.46,45.74-44.87,90.47-95.35,150.74-116.88,46.62-16.7,99-12.67,149.4-10a1030.62,1030.62,0,0,1,104.19,10.49c26.86,4.19,52.42,10.18,77.07,19,51.79,18.58,98.62,50.68,135.15,91.21,37.08,41.15,63.73,90.58,78.89,143,14.68,50.93,18.64,104.92,17.7,160.29-.44,28.18-2.09,56.72-9.23,85-13,51.34-41.15,94.17-68.21,136.43-22.54,35.13-44,68.08-74.86,95-19.35,16.86-41.89,30.32-65.21,40.77s-47.53,18.06-72.49,24.34C1915.52,1121.28,1840.25,1128,1764.68,1113.72Z"/><path class="cls-32" d="M1766.77,1117.25c-64.26-10.47-126-37-168.51-82.24-14-15-26.84-30.87-40.51-46.75-23.88-27.7-49.59-53.67-72.21-80.35-31.44-37.06-55.94-78.14-72.07-125.77-19.64-58.24-21.88-127.63,2.2-186.81,30.58-74.66,89.19-116.09,146.41-170.73,47.52-45.35,88.64-104.36,150.59-126.06,47.67-16.75,102.37-6.22,153.5-2.28,35.39,2.73,72.09,5.82,107.92,10,27.23,3.17,53.12,7.78,78.4,15.56,52.88,16.5,101.39,48.63,138.27,90.08,37.39,42,63.21,93,76.62,146.5,13,52,14.48,106.71,14,162.89-.21,28.67-.82,57.74-8.21,86.35-13.32,51.82-45.06,93.08-71.73,136.4-22.17,35.89-40.26,70.53-70.81,98.5-19.13,17.49-42.35,30.86-66.17,40.68s-48.48,16.45-73.83,22.18C1919.18,1121.33,1843.23,1129.71,1766.77,1117.25Z"/><path class="cls-33" d="M1768.84,1120.77c-66.23-9.21-131.09-35.83-172.93-84.67-13.69-16-26-33-39.88-49.56-24.16-28.95-51.78-54.73-76.42-80.77-34.35-36.29-61.58-76.68-80.19-125.12-22.66-59.19-25.91-132.15,1.49-191.59,34.83-75.07,100.78-109,160.72-165,49.19-45.92,86.82-113.36,150.44-135.24,48.73-16.82,105.74.26,157.59,5.49,36.55,3.69,74.63,6.56,111.63,9.45,27.6,2.15,53.89,5.31,79.73,12.15,54,14.29,104.12,46.57,141.38,88.95,37.74,42.91,62.69,95.53,74.37,150,11.3,53.11,10.31,108.52,10.3,165.47,0,29.15.46,58.73-7.16,87.74-13.72,52.27-49,92-75.25,136.35-21.78,36.67-36.57,73-66.78,102-18.91,18.15-42.8,31.37-67.13,40.6s-49.43,14.86-75.17,20C1922.85,1121.38,1846.17,1131.51,1768.84,1120.77Z"/><path class="cls-34" d="M1770.91,1124.3c-68.21-7.91-136.21-34.67-177.36-87.11-13.36-17-25.25-35.05-39.24-52.4-24.45-30.23-54-55.8-80.62-81.19-37.27-35.5-67.23-75.22-88.32-124.46-25.65-60.12-29.92-136.7.79-196.4,39.09-75.47,112.35-101.94,175-159.24,50.87-46.5,85-122.38,150.29-144.42,49.77-16.87,109.14,6.75,161.69,13.23,37.7,4.65,77.17,7.33,115.34,8.91,28,1.16,54.6,2.9,81,8.74,55.1,12.21,106.89,44.52,144.5,87.84,38.05,43.8,62.17,98,72.09,153.58,9.6,54.22,6.12,110.31,6.6,168.08.25,29.64,1.73,59.75-6.13,89.1-14.09,52.77-52.9,90.9-78.76,136.3-21.41,37.42-32.86,75.45-62.72,105.53-18.66,18.79-43.25,31.9-68.12,40.51s-50.37,13.24-76.5,17.82C1926.51,1121.47,1849.1,1133.35,1770.91,1124.3Z"/><path class="cls-35" d="M1773,1127.81c-70.19-6.56-141.33-33.51-181.78-89.53-13-18-24.44-37.16-38.64-55.22-24.73-31.49-56.2-56.87-84.85-81.62-40.18-34.71-72.88-73.76-96.44-123.78-28.66-61-33.93-141.24.08-201.17,43.35-75.91,123.91-94.89,189.33-153.51,52.53-47.08,83.15-131.39,150.16-153.6,50.81-16.92,112.48,13.28,165.77,21,38.88,5.64,79.7,8.12,119.05,8.38,28.32.18,55.34.48,82.36,5.33,56.19,10.1,109.63,42.47,147.62,86.71,38.39,44.68,61.64,100.49,69.83,157.11,7.9,55.29,2,112.09,2.89,170.66.52,30.13,3,60.73-5.1,90.48-14.45,53.23-56.85,89.82-82.28,136.26-21,38.19-29.17,77.9-58.68,109-18.43,19.42-43.71,32.44-69.07,40.43s-51.33,11.66-77.84,15.64C1930.17,1121.52,1852,1135.21,1773,1127.81Z"/><path class="cls-36" d="M1775.05,1131.34c-72.18-5.21-146.47-32.34-186.21-92-12.72-19.07-23.65-39.25-38-58-25-32.75-58.42-57.9-89.07-82-43.1-33.94-78.51-72.32-104.58-123.14-31.68-62-38-145.77-.62-206,47.63-76.3,135.48-87.8,203.64-147.77,54.21-47.69,81.32-140.4,150-162.79,51.87-17,115.87,19.82,169.88,28.74,40,6.62,82.24,8.93,122.77,7.86,28.7-.75,56.08-1.93,83.69,1.93,57.27,8,112.37,40.41,150.74,85.57,38.73,45.58,61.09,103,67.56,160.65,6.2,56.39-2.2,113.88-.81,173.26.75,30.62,4.3,61.75-4.05,91.85-14.84,53.69-60.77,88.74-85.79,136.21-20.65,39-25.46,80.36-54.61,112.53-18.22,20.07-44.16,33-70,40.34s-52.27,10-79.18,13.47C1933.83,1121.6,1855,1137.12,1775.05,1131.34Z"/><path class="cls-37" d="M1777.14,1134.87c-74.18-3.83-151.62-31.15-190.63-94.4-12.4-20.07-22.84-41.35-37.36-60.89-25.31-34-60.64-58.94-93.28-82.43-46-33.14-84.16-70.86-112.7-122.49-34.68-62.91-42-150.32-1.33-210.76,51.89-76.71,147-80.77,218-142,55.86-48.29,79.46-149.39,149.83-172,52.91-17,119.22,26.36,174,36.51,41.19,7.63,84.79,9.78,126.48,7.33,29.06-1.71,56.82-4.36,85-1.49,58.33,5.94,115.13,38.36,153.86,84.46,39,46.46,60.56,105.45,65.29,164.18,4.5,57.47-6.37,115.7-4.51,175.85,1,31.1,5.57,62.74-3,93.23-15.21,54.18-64.69,87.64-89.31,136.16-20.28,39.73-21.77,82.82-50.57,116-18,20.71-44.62,33.48-71,40.28s-53.22,8.44-80.54,11.3C1937.5,1121.66,1857.87,1139.05,1777.14,1134.87Z"/><path class="cls-38" d="M1779.21,1138.4c-76.18-2.43-156.8-30-195.06-96.84-12.07-21.11-22.05-43.45-36.73-63.7-25.57-35.29-62.85-60-97.5-82.88-49-32.35-89.8-69.41-120.82-121.84-37.69-63.83-46-154.86-2-215.54,56.14-77.11,158.6-73.71,232.26-136.31C1616.85,372.42,1637,262.9,1709,240.17c54-17.09,122.6,32.93,178.06,44.25,42.34,8.64,87.33,10.64,130.19,6.79,29.44-2.62,57.55-6.75,86.33-4.9,59.41,3.86,117.87,36.31,157,83.33,39.38,47.35,60,107.92,63,167.74,2.8,58.56-10.53,117.48-8.21,178.45,1.22,31.58,6.83,63.75-2,94.61-15.6,54.64-68.61,86.56-92.83,136.14-19.89,40.5-18.06,85.28-46.51,119.55-17.77,21.36-45.08,34-72,40.16s-54.17,6.83-81.88,9.12C1941.13,1121.73,1860.8,1141,1779.21,1138.4Z"/><path class="cls-39" d="M1781.29,1141.9c-78.17-1-162-28.77-199.49-99.27-11.77-22.12-21.27-45.56-36.11-66.56-25.88-36.53-65.08-61-101.71-83.29-51.91-31.54-95.45-67.95-129-121.15-40.71-64.78-50-159.4-2.74-220.33,60.39-77.52,170.12-66.67,246.55-130.58,59.17-49.48,75.81-167.4,149.54-190.3,55-17.16,125.94,39.51,182.15,52,43.5,9.68,89.87,11.51,133.89,6.27,29.81-3.53,58.29-9.16,87.65-8.27,60.52,1.78,120.62,34.24,160.11,82.2,39.69,48.22,59.51,110.41,60.75,171.26,1.13,59.65-14.7,119.27-11.91,181,1.48,32.08,8.11,64.74-1,96-16,55.11-72.55,85.48-96.35,136.1-19.51,41.27-14.37,87.76-42.47,123-17.54,22-45.53,34.55-72.92,40.07s-55.11,5.22-83.22,7C1944.8,1121.79,1863.73,1143,1781.29,1141.9Z"/><path class="cls-40" d="M1783.36,1145.42c-80.16.44-167.18-27.59-203.91-101.69C1568,1020.6,1559,996.07,1544,974.35c-26.14-37.82-67.29-62.06-105.91-83.71C1383.23,859.9,1337,824.14,1301,770.13c-43.71-65.7-54-163.94-3.44-225.12,64.68-77.95,181.56-59.8,260.86-124.83,60.73-50.21,74-176.41,149.39-199.48,56-17.21,129.31,46.09,186.25,59.75,44.62,10.71,92.41,12.41,137.62,5.75,30.18-4.46,59-11.56,88.95-11.69,61.6-.28,123.39,32.17,163.22,81.09,40,49.11,59,112.87,58.49,174.8-.57,60.72-18.87,121.08-15.62,183.63,1.72,32.53,9.41,65.73.09,97.35-16.34,55.6-76.47,84.39-99.87,136.06-19.12,42-10.66,90.22-38.43,126.54-17.3,22.67-46,35.07-73.88,40s-56.06,3.63-84.57,4.79C1948.46,1121.85,1866.67,1145,1783.36,1145.42Z"/><path class="cls-41" d="M1785.43,1149c-82.16,1.92-172.39-26.38-208.34-104.14-11.15-24.16-19.67-49.75-34.85-72.19-26.42-39.07-69.56-63-110.13-84.13-57.81-29.79-106.73-65-145.21-119.85-46.71-66.62-58-168.46-4.17-229.91,68.94-78.35,193.1-52.74,275.16-119.1,62.4-50.81,72.14-185.41,149.23-208.66,57.06-17.27,132.65,52.7,190.34,67.5,45.78,11.77,95,13.32,141.33,5.2,30.55-5.35,59.73-13.9,90.28-15.09,62.68-2.23,126.13,30.11,166.34,79.95,40.38,50,58.47,115.35,56.22,178.34-2.27,61.82-23,122.86-19.31,186.21,2,33,10.67,66.74,1.12,98.71-16.73,56.06-80.4,83.31-103.39,136-18.75,42.82-7,92.68-34.36,130-17.08,23.3-46.44,35.6-74.85,39.91s-57,2-85.9,2.61C1952.12,1121.93,1869.61,1147,1785.43,1149Z"/><path class="cls-42" d="M1787.52,1152.47c-84.13,3.42-177.61-25.17-212.76-106.58-10.86-25.18-18.86-51.85-34.21-75-26.71-40.36-71.77-64.06-114.36-84.55-60.72-29-112.37-63.59-153.34-119.18-49.72-67.58-62-173-4.88-234.69,73.2-78.76,204.68-45.69,289.48-113.37,64.07-51.39,70.31-194.42,149.08-217.84,58.12-17.34,136,59.31,194.43,75.27a318.27,318.27,0,0,0,145,4.69c30.94-6.24,60.47-16.32,91.61-18.5,63.76-4.31,128.87,28.05,169.47,78.82S2365,459.34,2361,523.37c-4,62.9-27.19,124.66-23,188.82,2.22,33.51,11.95,67.73,2.15,100.09-17.09,56.52-84.32,82.24-106.9,136-18.37,43.59-3.28,95.13-30.33,133.56-16.86,23.94-46.9,36.13-75.81,39.84s-58,.42-87.24.43C1955.79,1122,1872.54,1149,1787.52,1152.47Z"/><path class="cls-43" d="M1789.59,1156c-86.1,4.92-182.85-24-217.18-109-10.57-26.18-18.08-54-33.61-77.86-27-41.61-74-65.12-118.56-85-63.67-28.21-118-62.13-161.46-118.52-52.73-68.52-66.06-177.57-5.58-239.5C1330.65,447,1469.42,487.51,1557,418.51c65.73-52,68.49-203.43,148.93-227,59.17-17.39,139.35,65.94,198.54,83a300.63,300.63,0,0,0,148.74,4.15c31.32-7.1,61.19-18.7,92.94-21.9,64.84-6.39,131.63,26,172.58,77.69s57.4,120.3,51.68,185.41c-5.67,64-31.35,126.45-26.72,191.4,2.46,34,13.22,68.75,3.17,101.48-17.45,57-88.23,81.14-110.41,135.92-18,44.36.43,97.59-26.26,137.07-16.64,24.58-47.35,36.65-76.8,39.74s-58.9-1.18-88.6-1.73C1959.45,1122.06,1875.47,1151.08,1789.59,1156Z"/><path class="cls-44" d="M1791.66,1159.52c-88.06,6.64-188.18-22.74-221.61-111.44-10.32-27.2-17.27-56-33-80.71-27.29-42.85-76.17-66.15-122.77-85.38-66.58-27.4-123.67-60.65-169.6-117.87-55.73-69.44-70.08-182.09-6.29-244.28,81.7-79.57,227.79-31.57,318.09-101.9,67.39-52.58,66.64-212.44,148.79-236.2,60.21-17.44,142.66,72.65,202.62,90.77a286.46,286.46,0,0,0,152.48,3.62c31.71-8,61.93-21.12,94.24-25.31,66-8.49,134.37,23.94,175.7,76.57s56.87,122.8,49.42,189c-7.37,65.07-35.52,128.26-30.4,194,2.68,34.48,14.5,69.74,4.22,102.85-17.84,57.47-92.17,80-113.93,135.87-17.63,45.12,4.12,100-22.22,140.57-16.41,25.22-47.81,37.19-77.76,39.66s-59.85-2.8-89.94-3.92C1963.11,1122.12,1878.43,1153.33,1791.66,1159.52Z"/><path class="cls-45" d="M1644,362c-192.35,117.32-253.13,368.34-135.76,560.65s368.46,253.13,560.81,135.8,253.13-368.33,135.76-560.65S1836.37,244.7,1644,362Z"/><path class="cls-46" d="M1751.55,1125.27c-61.3-15.32-113-55.92-156.18-96.3-35.26-33-62.95-72.81-88.2-113.91-13.28-21.63-25.86-43.69-34.26-67.8-14.37-41.26-15.42-85.12-17.89-129.55-2-34.8-4.91-68.45,2.19-103.93,5.32-26.55,15.39-51.69,27.73-74.57,12.68-23.54,27.87-45,44.54-65.3,48.87-59.78,110-109.73,180.49-139.67,71.12-30.32,153.84-41.17,233.13-16.38,14.83,4.65,29,10.73,43.51,16.08,25.69,9.49,51.16,17.3,75,26.35a350.86,350.86,0,0,1,93.76,52.35c36.63,28.72,67.72,68.69,82.6,111.72,19,55.09,14.61,106.49,13.87,167.62-.64,44,1.13,91-12.84,134.5-17.56,54.6-46.62,99.4-82.66,139.27A591.35,591.35,0,0,1,2052.22,1057c-30.13,20.66-63.2,40.9-97.7,52.9C1892.22,1131.53,1820.39,1142.42,1751.55,1125.27Z"/><path class="cls-47" d="M1742.59,1143.86c-59.61-15.42-107-67.61-146.92-109.39-33.56-35.15-58-77.68-84.66-118.73-14-21.59-28.6-42.88-37-67.37-14.39-42-8.43-86.71-12.48-131.5-3.23-35.26-12.8-67.53-7.1-103.54,4.14-26.15,15.17-50.78,28.63-72.36,13.72-22.1,30.12-41.57,47.42-60.64,50.57-55.92,108.28-107.56,175.85-140,68.4-32.92,151.1-47.43,227.27-18.4,15.67,6,30.34,14,46.06,20,27.72,10.62,56.18,15.75,82.7,21.64,37.68,8.27,72.51,21.34,106.18,42.87,42.24,27,78.54,71.81,88.41,119.47,12.61,61-11.84,109.46-17.09,175.16-4,47.66,3.14,100.14-15,145.62C2204.2,898.36,2171,936.11,2133,971.91a1184.44,1184.44,0,0,1-103.86,87.53c-27.82,20.69-58.65,45.22-90.53,58.35C1880.23,1141.82,1808.51,1160.78,1742.59,1143.86Z"/><path class="cls-48" d="M1733.61,1162.44c-58-15.49-101-79.4-137.63-122.47-31.83-37.43-53-82.62-81.14-123.59-14.77-21.53-31.32-42-39.71-66.92-14.39-42.78-1.47-88.32-7.07-133.45-4.52-35.74-20.66-66.62-16.39-103.17,3-25.75,15-49.9,29.51-70.16,14.74-20.69,32.38-38.21,50.32-56,52.3-52.07,106.53-105.39,171.25-140.28C1768.4,310.85,1851,293.16,1924.19,326c16.48,7.37,31.66,17.22,48.59,23.88,29.74,11.72,61.21,14.22,90.41,16.93,41.57,3.77,80.16,13,118.61,33.38,47.81,25.36,89.37,74.95,94.21,127.26,6.21,67-38.26,112.43-48,182.71-7.3,51.28,5.47,109.26-17.21,156.72-23.34,48.84-61.05,79.51-101,111.16-33.83,26.8-69.22,55.91-103.61,83.78-25.55,20.7-54.12,49.6-83.36,63.83C1868.23,1152.16,1796.61,1179.14,1733.61,1162.44Z"/><path class="cls-49" d="M1724.65,1181c-56.28-15.56-94.88-91.23-128.36-135.56-30-39.77-48.07-87.54-77.61-128.39-15.51-21.5-34.07-41.21-42.43-66.5-14.4-43.54,5.52-89.93-1.66-135.4-5.8-36.19-28.44-65.68-25.69-102.77,1.9-25.34,14.79-49,30.42-68,15.78-19.28,34.63-34.81,53.22-51.34,54-48.22,104.78-103.25,166.63-140.6,62.93-38.14,145.2-58.65,215.62-22.48,17.25,8.87,33,20.47,51.15,27.78,31.77,12.81,66.22,12.66,98.1,12.22,45.46-.73,87.8,4.66,131,23.89,53.33,23.75,100.17,78.07,100,135-.22,73-64.7,115.4-79,190.26-10.65,54.91,8.06,118.53-19.41,167.85-25.71,46.17-68.2,69.59-110.19,97.13-35.35,23.18-70.82,51.16-103.36,80-23.29,20.63-49.56,54-76.19,69.28C1856.23,1162.58,1784.7,1197.51,1724.65,1181Z"/><path class="cls-50" d="M1715.66,1199.61C1661,1184,1627,1096.44,1596.59,1051c-28.15-42.13-43.13-92.43-74.07-133.23-16.25-21.44-36.81-40.38-45.18-66-14.42-44.3,12.5-91.51,3.75-137.36-7.07-36.66-36.2-64.77-34.95-102.4.82-24.92,14.58-48.11,31.31-65.72,16.82-17.85,36.9-31.45,56.11-46.7,55.72-44.37,103-101.08,162-140.9,60.19-40.77,142-63.8,209.78-24.52,18,10.42,34.35,23.71,53.7,31.69,33.8,13.91,71.24,11.13,105.8,7.51,49.35-5.23,95.4-3.65,143.46,14.43,58.89,22.15,111,81.19,105.8,142.76-6.63,78.9-91.15,118.39-109.93,197.82-14,58.51,10.93,128-21.62,179-27.87,43.63-75.36,59.71-119.39,83.08-36.86,19.56-72.46,46.37-103.13,76.25-21.07,20.56-45,58.45-69,74.78C1844.32,1173.07,1772.8,1215.87,1715.66,1199.61Z"/><path class="cls-51" d="M1706.7,1218.19c-53-15.74-82.39-115.09-109.8-161.73-26.18-44.55-38.18-97.36-70.53-138.07-17-21.39-39.56-39.55-47.91-65.6-14.44-45.06,19.49-93.12,9.16-139.3-8.35-37.11-43.88-63.83-44.24-102-.21-24.51,14.38-47.2,32.19-63.52s39.14-28.06,59-42.06C1592,465.4,1635.84,407,1692,364.69c57.46-43.37,138.65-68.75,203.94-26.54,18.65,12.05,35.7,27,56.26,35.59,35.85,15,76.25,9.59,113.5,2.79,53.23-9.73,103-11.86,155.88,5,64.39,20.63,121.79,84.31,111.6,150.53-13.06,84.85-117.57,121.36-140.89,205.37-17.31,62.13,14.08,137.7-23.8,190.06-29.87,41.29-82.46,49.92-128.57,69-38.35,16-74.18,41.52-102.87,72.51-18.91,20.43-40.38,62.91-61.86,80.23C1832.43,1183.65,1760.9,1234.22,1706.7,1218.19Z"/></g><text class="cls-52" transform="translate(600.24 579.7)">DEFI</text><text class="cls-53" transform="translate(509.86 782.73)">232<tspan class="cls-54" x="179.73" y="0">BILL</tspan><tspan class="cls-55" x="376.2" y="0">I</tspan><tspan class="cls-56" x="418.52" y="0">ON</tspan></text><text class="cls-57" transform="translate(854.93 822.22)"><tspan class="cls-58">b</tspan><tspan x="31.7" y="0">y 2030</tspan></text><text class="cls-53" transform="translate(1604.49 782.73)">583<tspan class="cls-54" x="189.58" y="0">BILL</tspan><tspan class="cls-55" x="386.06" y="0">I</tspan><tspan class="cls-54" x="428.38" y="0">ON</tspan></text><text class="cls-57" transform="translate(1952.57 822.22)"><tspan class="cls-58">b</tspan><tspan x="31.7" y="0">y 2030</tspan></text><text class="cls-52" transform="translate(1644.63 579.7)"><tspan class="cls-59">G</tspan><tspan x="84.59" y="0">AMING</tspan></text></svg>