<svg width="874" height="719" viewBox="0 0 874 719" fill="none" xmlns="http://www.w3.org/2000/svg">
<path opacity="0.3" d="M282.489 345.187C377.299 345.187 454.158 268.329 454.158 173.519C454.158 78.7091 377.299 1.85059 282.489 1.85059C187.68 1.85059 110.821 78.7091 110.821 173.519C110.821 268.329 187.68 345.187 282.489 345.187Z" fill="url(#paint0_radial_168_461)"/>
<path d="M640.924 492.817C757.426 492.817 851.869 398.374 851.869 281.872C851.869 165.371 757.426 70.9277 640.924 70.9277C524.423 70.9277 429.98 165.371 429.98 281.872C429.98 398.374 524.423 492.817 640.924 492.817Z" fill="url(#paint1_radial_168_461)"/>
<path d="M323.058 421.889C439.56 421.889 534.003 327.446 534.003 210.945C534.003 94.4431 439.56 0 323.058 0C206.557 0 112.114 94.4431 112.114 210.945C112.114 327.446 206.557 421.889 323.058 421.889Z" fill="url(#paint2_radial_168_461)"/>
<path d="M552.43 719C647.137 719 723.912 642.225 723.912 547.518C723.912 452.811 647.137 376.036 552.43 376.036C457.723 376.036 380.948 452.811 380.948 547.518C380.948 642.225 457.723 719 552.43 719Z" fill="url(#paint3_radial_168_461)"/>
<path d="M279.929 684.938C374.635 684.938 451.411 608.162 451.411 513.456C451.411 418.749 374.635 341.974 279.929 341.974C185.222 341.974 108.447 418.749 108.447 513.456C108.447 608.162 185.222 684.938 279.929 684.938Z" fill="url(#paint4_radial_168_461)"/>
<path d="M573.667 470.886C649.408 395.145 649.408 272.345 573.667 196.604C497.926 120.863 375.126 120.863 299.385 196.604C223.644 272.345 223.644 395.145 299.385 470.886C375.126 546.627 497.926 546.627 573.667 470.886Z" stroke="url(#paint5_linear_168_461)" stroke-width="3" stroke-miterlimit="10" stroke-linecap="round" stroke-linejoin="round"/>
<path opacity="0.95" d="M435.183 138.409C464.506 137.641 493.085 143.531 517.601 156.301C525.842 160.597 533.723 165.451 541.488 170.608C555.073 179.63 568.145 189.361 579.844 200.211C596.025 215.158 609.54 232.677 619.843 252.699C632.438 277.227 639.504 305.933 638.002 335.001C636.082 371.6 622.101 402.611 603.953 432.377C588.54 457.765 570.974 482.607 546.284 499.032C527.076 511.814 504.237 518.554 481.141 523.513C465.764 526.808 449.711 528.973 433.484 529.66C420.667 530.195 408.2 529.625 395.988 527.809C370.25 523.932 345.793 514.166 324.664 499.905C303.187 485.413 285.12 466.391 271.57 444.553C258.428 423.343 249.499 399.445 244.04 374.067C241.269 361.193 239.36 347.934 239.43 334.279C239.546 309.356 245.972 286.097 254.051 263.968C260.803 245.529 268.73 228.312 280.278 212.853C287.507 203.179 296.086 194.448 305.387 186.789C314.677 179.141 324.711 172.482 335.293 166.58C365 150.027 398.887 139.352 435.183 138.409Z" stroke="url(#paint6_linear_168_461)" stroke-width="2.9375" stroke-miterlimit="10" stroke-linecap="round" stroke-linejoin="round"/>
<path opacity="0.9" d="M433.833 137.012C463.924 135.464 493.958 141.063 518.567 155.533C526.762 160.352 534.55 165.742 542.489 171.225C556.341 180.805 570.287 190.211 582.848 200.548C600.286 214.797 614.988 231.711 626.524 251.826C640.622 276.447 648.549 306.701 645.546 336.269C641.704 373.532 623.521 401.912 604.244 432.598C588.133 458.452 573.116 486.786 547.681 503.479C528.008 516.412 503.352 520.416 479.779 524.828C463.761 527.832 447.092 530.253 430.469 531.638C417.594 532.709 405.115 532.802 392.74 531.499C366.735 528.705 341.509 519.113 320.101 504.468C298.368 489.603 280.522 469.744 267.659 447.23C255.18 425.334 247.311 400.83 241.548 375.138C238.603 362.065 236.17 348.69 236.31 334.837C236.555 309.658 244.785 286.714 252.561 264.154C259.045 245.4 265.261 227.776 276.518 211.875C283.572 201.922 292.477 193.179 302.081 185.741C311.673 178.314 322.022 172.074 332.848 166.382C363.301 150.411 397.327 138.898 433.833 137.012Z" stroke="url(#paint7_linear_168_461)" stroke-width="2.875" stroke-miterlimit="10" stroke-linecap="round" stroke-linejoin="round"/>
<path opacity="0.85" d="M432.471 135.615C463.331 133.263 494.819 138.595 519.521 154.764C527.682 160.107 535.376 166.021 543.467 171.83C557.599 181.957 572.383 191.084 585.816 200.885C604.488 214.494 620.401 230.733 633.183 250.941C648.77 275.655 657.571 307.469 653.066 337.515C647.292 375.441 624.848 401.144 604.523 432.795C587.644 459.069 575.246 490.941 549.054 507.902C528.904 520.975 502.456 522.232 478.394 526.132C461.736 528.833 444.438 531.51 427.419 533.605C414.486 535.189 401.995 535.957 389.458 535.189C363.184 533.477 337.178 524.06 315.503 509.031C293.525 493.794 275.889 473.108 263.713 449.907C251.897 427.312 245.087 402.215 239.022 376.197C235.914 362.927 232.946 349.423 233.155 335.373C233.516 309.937 243.562 287.319 251.036 264.317C257.264 245.249 261.745 227.217 272.734 210.873C279.614 200.653 288.845 191.875 298.752 184.67C308.647 177.464 319.31 171.643 330.38 166.161C361.601 150.783 395.755 138.409 432.471 135.615Z" stroke="url(#paint8_linear_168_461)" stroke-width="2.8125" stroke-miterlimit="10" stroke-linecap="round" stroke-linejoin="round"/>
<path opacity="0.8" d="M431.12 134.219C462.749 131.064 495.692 136.105 520.488 153.997C528.601 159.852 536.203 166.313 544.456 172.436C558.856 183.111 574.501 191.934 588.796 201.212C608.726 214.134 625.826 229.756 639.842 250.057C656.919 274.876 666.592 308.227 660.586 338.761C652.891 377.351 626.222 400.411 604.791 432.994C587.202 459.722 577.365 495.098 550.416 512.327C529.789 525.551 501.536 524.037 476.997 527.425C459.699 529.811 441.784 532.745 424.369 535.55C411.377 537.646 398.875 539.124 386.175 538.856C359.622 538.298 332.86 528.985 310.905 513.572C288.671 497.962 271.256 476.438 259.767 452.562C248.603 429.281 242.864 403.566 236.496 377.246C233.225 363.777 229.71 350.157 229.989 335.897C230.478 310.206 242.328 287.902 249.499 264.469C255.459 245.087 258.23 226.648 268.94 209.85C275.645 199.35 285.202 190.561 295.411 183.576C305.62 176.603 316.586 171.179 327.901 165.929C359.901 151.168 394.196 137.909 431.12 134.219Z" stroke="url(#paint9_linear_168_461)" stroke-width="2.75" stroke-miterlimit="10" stroke-linecap="round" stroke-linejoin="round"/>
<path opacity="0.75" d="M429.77 132.822C462.167 128.841 496.577 133.602 521.454 153.229C529.533 159.596 537.041 166.604 545.446 173.053C560.125 184.287 576.632 192.796 591.776 201.55C612.963 213.785 631.251 228.79 646.5 249.185C665.079 274.096 675.614 309.007 668.106 340.03C658.49 379.283 627.607 399.713 605.059 433.204C586.759 460.385 579.495 499.266 551.778 516.762C530.673 530.126 500.605 525.854 475.6 528.741C457.662 530.813 439.129 533.991 421.319 537.53C408.269 540.125 395.767 542.302 382.904 542.558C356.083 543.082 328.541 533.944 306.318 518.136C283.84 502.153 266.635 479.802 255.832 455.228C245.332 431.248 240.664 404.94 233.982 378.294C230.548 364.627 226.497 350.88 226.846 336.433C227.451 310.474 241.118 288.508 247.986 264.632C253.69 244.947 254.726 226.089 265.156 208.849C271.675 198.081 281.57 189.269 292.093 182.506C302.605 175.754 313.885 170.748 325.444 165.708C358.202 151.541 392.636 137.386 429.77 132.822Z" stroke="url(#paint10_linear_168_461)" stroke-width="2.6875" stroke-miterlimit="10" stroke-linecap="round" stroke-linejoin="round"/>
<path opacity="0.7" d="M428.42 131.425C461.585 126.605 497.462 131.099 522.42 152.46C530.464 159.34 537.867 166.894 546.447 173.658C561.394 185.438 578.773 193.645 594.78 201.875C617.223 213.423 636.699 227.811 653.182 248.288C673.251 273.292 684.659 309.763 675.649 341.263C664.113 381.192 629.016 398.979 605.35 433.389C586.352 461.025 581.637 503.409 553.164 521.173C531.581 534.677 499.709 527.622 474.227 530.02C455.636 531.767 436.499 535.189 418.292 539.473C405.185 542.558 392.671 545.445 379.644 546.225C352.556 547.843 324.245 538.868 301.744 522.675C279.009 506.32 262.025 483.131 251.909 457.882C242.072 433.215 238.464 406.301 231.479 379.341C227.87 365.476 223.296 351.612 223.715 336.956C224.436 310.741 239.93 289.089 246.484 264.783C251.921 244.784 251.245 225.518 261.396 207.836C267.741 196.8 277.961 187.953 288.787 181.422C299.602 174.892 311.196 170.294 323 165.486C356.502 151.924 391.076 136.849 428.42 131.425Z" stroke="url(#paint11_linear_168_461)" stroke-width="2.625" stroke-miterlimit="10" stroke-linecap="round" stroke-linejoin="round"/>
<path opacity="0.65" d="M427.069 130.027C461.003 124.358 498.358 128.584 523.386 151.691C531.395 159.083 538.706 167.185 547.436 174.263C562.651 186.602 580.904 194.483 597.76 202.201C621.472 213.062 642.123 226.833 659.852 247.402C681.423 272.5 693.692 310.519 683.181 342.508C669.712 383.1 630.412 398.245 605.629 433.587C585.921 461.688 583.767 507.565 554.549 525.596C532.489 539.251 498.801 529.403 472.853 531.324C453.622 532.744 433.856 536.399 415.254 541.428C402.076 544.99 389.562 548.599 376.373 549.903C349.017 552.603 319.938 543.803 297.157 527.226C274.166 510.498 257.415 486.483 247.974 460.547C238.801 435.182 236.252 407.674 228.965 380.388C225.193 366.326 220.071 352.333 220.56 337.491C221.41 311.02 238.708 289.682 244.959 264.945C250.139 244.632 247.73 224.959 257.601 206.834C263.771 195.519 274.318 186.66 285.446 180.351C296.563 174.053 308.472 169.862 320.52 165.264C354.803 152.296 389.504 136.302 427.069 130.027Z" stroke="url(#paint12_linear_168_461)" stroke-width="2.5625" stroke-miterlimit="10" stroke-linecap="round" stroke-linejoin="round"/>
<path opacity="0.6" d="M425.707 128.631C460.409 122.101 499.243 126.059 524.341 150.924C532.315 158.816 539.52 167.477 548.414 174.881C563.908 187.767 583.022 195.334 600.728 202.539C625.698 212.702 647.536 225.868 666.499 246.53C689.56 271.721 702.702 311.3 690.689 343.778C675.3 385.034 631.798 397.559 605.885 433.809C585.479 462.376 585.886 511.733 555.899 530.033C533.362 543.827 497.869 531.197 471.444 532.628C451.562 533.711 431.179 537.599 412.192 543.396C398.957 547.436 386.431 551.766 373.091 553.594C345.478 557.377 315.608 548.751 292.559 531.779C269.324 514.678 252.782 489.825 244.028 463.214C235.519 437.162 234.029 409.037 226.439 381.448C222.504 367.188 216.847 353.079 217.405 338.028C218.371 311.289 237.486 290.288 243.434 265.109C248.358 244.482 244.226 224.401 253.818 205.834C259.813 194.251 270.686 185.369 282.117 179.281C293.537 173.204 305.76 169.421 318.064 165.044C353.103 152.681 387.944 135.744 425.707 128.631Z" stroke="url(#paint13_linear_168_461)" stroke-width="2.5" stroke-miterlimit="10" stroke-linecap="round" stroke-linejoin="round"/>
<path opacity="0.55" d="M424.357 127.246C459.827 119.842 500.151 123.544 525.307 150.167C533.246 158.571 540.359 167.779 549.404 175.497C565.165 188.942 585.153 196.183 603.72 202.888C629.959 212.352 652.973 224.913 673.17 245.668C697.72 270.952 711.736 312.091 698.221 345.047C680.911 386.966 633.195 396.86 606.165 434.03C585.06 463.05 588.016 515.912 557.273 534.479C534.259 548.413 496.95 532.977 470.059 533.955C449.536 534.7 428.525 538.809 409.154 545.387C395.849 549.892 383.323 554.944 369.819 557.307C341.94 562.173 311.301 553.721 287.972 536.365C264.481 518.892 248.161 493.212 240.093 465.903C232.247 439.152 231.817 410.434 223.924 382.519C219.827 368.061 213.634 353.824 214.262 338.574C215.356 311.579 236.275 290.893 241.921 265.272C246.577 244.33 240.722 223.842 250.035 204.821C255.855 192.958 267.054 184.053 278.788 178.209C290.522 172.366 303.047 168.99 315.596 164.834C351.415 153.065 386.373 135.161 424.357 127.246Z" stroke="url(#paint14_linear_168_461)" stroke-width="2.4375" stroke-miterlimit="10" stroke-linecap="round" stroke-linejoin="round"/>
<path opacity="0.5" d="M423.007 125.849C459.233 117.573 501.059 121.018 526.273 149.399C534.189 158.304 541.197 168.071 550.405 176.115C566.446 190.107 587.295 197.033 606.712 203.226C634.219 211.992 658.409 223.947 679.84 244.784C705.892 270.161 720.769 312.849 705.752 346.293C686.522 388.875 634.615 396.139 606.455 434.228C584.652 463.714 590.158 520.068 558.658 538.903C535.167 552.988 496.053 534.736 468.686 535.259C447.511 535.655 425.882 539.997 406.127 547.343C392.752 552.313 380.226 558.099 366.56 560.974C338.401 566.923 307.005 558.646 283.397 540.905C259.662 523.06 243.551 496.542 236.17 468.557C228.976 441.12 229.617 411.796 221.421 383.567C217.149 368.911 210.432 354.558 211.131 339.11C212.341 311.859 235.088 291.488 240.419 265.435C244.82 244.179 237.241 223.272 246.275 203.82C251.92 191.69 263.445 182.762 275.482 177.139C287.518 171.516 300.358 168.56 313.152 164.613C349.716 153.438 384.801 134.58 423.007 125.849Z" stroke="url(#paint15_linear_168_461)" stroke-width="2.375" stroke-miterlimit="10" stroke-linecap="round" stroke-linejoin="round"/>
<path opacity="0.45" d="M421.656 124.452C458.639 115.279 501.979 118.492 527.239 148.63C535.12 158.036 542.023 168.362 551.394 176.72C567.703 191.271 589.425 197.871 609.692 203.552C638.456 211.619 663.833 222.969 686.51 243.899C714.052 269.37 729.802 313.617 713.284 347.55C692.121 390.807 636.093 395.499 606.735 434.426C584.291 464.424 592.289 524.224 560.032 543.326C536.063 557.552 495.134 536.493 467.3 536.551C445.485 536.598 423.216 541.161 403.078 549.298C389.632 554.734 377.107 561.242 363.289 564.652C334.862 571.672 302.686 563.593 278.811 545.445C254.819 527.227 238.929 499.883 232.236 471.211C225.705 443.087 227.405 413.146 218.907 384.603C214.472 369.761 207.208 355.279 207.976 339.622C209.303 312.103 233.866 292.069 238.894 265.575C243.027 244.004 233.726 222.69 242.491 202.795C247.951 190.386 259.813 181.446 272.152 176.045C284.492 170.643 297.646 168.094 310.684 164.369C348.016 153.822 383.218 133.986 421.656 124.452Z" stroke="url(#paint16_linear_168_461)" stroke-width="2.3125" stroke-miterlimit="10" stroke-linecap="round" stroke-linejoin="round"/>
<path opacity="0.4" d="M420.306 123.055C458.046 112.974 502.898 115.954 528.205 147.862C536.063 157.78 542.861 168.652 552.384 177.325C568.96 192.423 591.567 198.663 612.672 203.878C642.717 211.177 669.258 221.991 693.169 243.014C722.201 268.578 738.824 314.373 720.816 348.795C697.732 392.716 637.502 394.777 607.014 434.624C583.872 465.088 594.43 528.379 561.417 547.75C536.983 562.115 494.237 538.239 465.927 537.855C443.46 537.541 420.562 542.325 400.051 551.265C386.536 557.156 374.01 564.373 360.029 568.342C331.323 576.386 298.391 568.54 274.236 550.008C249.988 531.418 234.32 503.247 228.313 473.888C222.446 445.065 225.205 414.531 216.404 385.674C211.806 370.634 204.007 356.024 204.845 340.181C206.3 312.406 232.666 292.686 237.393 265.761C241.269 243.876 230.245 222.154 238.72 201.817C244.005 189.14 256.193 180.165 268.835 174.997C281.477 169.828 294.945 167.686 308.228 164.182C346.317 154.194 381.647 133.381 420.306 123.055Z" stroke="url(#paint17_linear_168_461)" stroke-width="2.25" stroke-miterlimit="10" stroke-linecap="round" stroke-linejoin="round"/>
<path opacity="0.35" d="M418.956 121.658C457.44 110.669 503.829 113.416 529.172 147.105C537.006 157.524 543.688 168.955 553.373 177.953C570.229 193.61 593.697 199.524 615.663 204.227C646.966 210.839 674.694 221.036 699.839 242.141C730.373 267.809 747.857 315.153 728.347 350.052C703.343 394.637 638.899 394.067 607.294 434.833C583.441 465.751 596.561 532.547 562.791 552.185C537.879 566.701 493.318 539.997 464.541 539.159C441.434 538.495 417.885 543.489 397.013 553.221C383.416 559.565 370.902 567.527 356.758 572.021C327.784 581.147 294.084 573.476 269.65 554.56C245.157 535.597 229.698 506.587 224.378 476.554C219.175 447.044 222.993 415.905 213.89 386.721C209.117 371.483 200.794 356.757 201.702 340.705C203.273 312.673 231.456 293.268 235.879 265.912C239.488 243.713 226.753 221.583 234.948 200.793C240.058 187.848 252.572 178.85 265.517 173.902C278.473 168.955 292.245 167.22 305.771 163.938C344.617 154.578 380.052 132.763 418.956 121.658Z" stroke="url(#paint18_linear_168_461)" stroke-width="2.1875" stroke-miterlimit="10" stroke-linecap="round" stroke-linejoin="round"/>
<path opacity="0.3" d="M417.594 120.262C456.824 108.353 504.749 110.879 530.126 146.337C537.937 157.256 544.514 169.246 554.362 178.559C571.486 194.763 595.827 200.374 618.643 204.553C651.215 210.467 680.119 220.059 706.497 241.257C738.521 267.018 756.879 315.922 735.867 351.31C708.942 396.558 640.296 393.357 607.561 435.043C583.011 466.427 598.679 536.714 564.152 556.62C538.764 571.276 492.398 541.743 463.144 540.474C439.397 539.438 415.196 544.654 393.963 555.2C380.285 561.987 367.782 570.694 353.476 575.723C324.234 585.932 289.753 578.435 265.051 559.135C240.303 539.799 225.077 509.964 220.432 479.232C215.892 449.024 220.77 417.291 211.364 387.793C206.428 372.357 197.569 357.503 198.547 341.252C200.235 312.965 230.234 293.885 234.354 266.087C237.707 243.574 223.237 221.037 231.153 199.804C236.089 186.58 248.929 177.57 262.188 172.843C275.447 168.117 289.532 166.802 303.315 163.729C342.917 154.963 378.469 132.147 417.594 120.262Z" stroke="url(#paint19_linear_168_461)" stroke-width="2.125" stroke-miterlimit="10" stroke-linecap="round" stroke-linejoin="round"/>
<path opacity="0.25" d="M416.243 118.865C456.183 105.943 505.727 108.318 531.092 145.569C538.903 156.977 545.341 169.537 555.352 179.176C572.755 195.927 597.946 201.224 621.624 204.891C655.452 210.106 685.544 219.081 713.168 240.384C746.682 266.238 765.912 316.69 743.399 352.567C714.553 398.479 641.692 392.647 607.841 435.252C582.592 467.09 600.821 540.882 565.526 561.056C539.66 575.851 491.49 543.443 461.759 541.778C437.372 540.335 412.518 545.806 390.913 557.167C377.153 564.396 364.663 573.861 350.205 579.413C320.683 590.717 285.446 583.383 260.465 563.686C235.472 543.978 220.455 513.305 216.497 481.897C212.621 451.003 218.558 418.653 208.838 388.84C203.739 373.206 194.333 358.236 195.381 341.788C197.197 313.233 229.011 294.479 232.818 266.25C235.914 243.422 219.722 220.478 227.358 198.803C232.119 185.311 245.285 176.266 258.847 171.772C272.408 167.279 286.808 166.371 300.836 163.519C341.218 155.336 376.851 131.437 416.243 118.865Z" stroke="url(#paint20_linear_168_461)" stroke-width="2.0625" stroke-miterlimit="10" stroke-linecap="round" stroke-linejoin="round"/>
<path opacity="0.2" d="M719.838 239.499C690.98 218.115 659.701 209.745 624.615 205.217C600.088 202.051 574.012 197.08 556.342 179.77C546.179 169.817 539.835 156.709 532.059 144.789C506.623 105.792 455.59 103.685 414.893 117.456C375.279 130.867 339.53 155.697 298.391 163.286C284.119 165.917 269.405 166.418 255.541 170.69C241.677 174.962 228.185 184.019 223.598 197.79C216.241 219.908 234.157 243.271 231.328 266.401C227.824 295.061 194.193 313.501 192.261 342.312C191.143 358.958 201.073 374.056 206.346 389.888C216.369 420.015 209.361 452.97 212.586 484.552C215.857 516.646 230.653 548.158 255.902 568.227C281.151 588.307 317.168 595.466 346.957 583.08C361.578 577.004 374.057 566.795 387.898 559.112C409.841 546.935 435.358 541.29 460.397 543.071C490.605 545.212 540.58 580.415 566.923 565.468C602.963 545.015 582.184 467.742 608.132 435.439C643.101 391.914 720.164 400.388 750.931 353.801C774.946 317.458 754.854 265.447 719.838 239.499Z" stroke="url(#paint21_linear_168_461)" stroke-width="2" stroke-miterlimit="10" stroke-linecap="round" stroke-linejoin="round"/>
<path d="M573.667 470.886C649.408 395.145 649.408 272.345 573.667 196.604C497.926 120.863 375.126 120.863 299.385 196.604C223.644 272.345 223.644 395.145 299.385 470.886C375.126 546.627 497.926 546.627 573.667 470.886Z" stroke="url(#paint22_linear_168_461)" stroke-miterlimit="10"/>
<path opacity="0.8571" d="M438.606 130.215C468.639 130.436 497.066 143.416 521.535 157.245C541.511 168.537 558.763 183.845 575.025 200.014C583.581 208.523 591.858 217.312 598.435 227.51C609.692 244.971 615.081 265.121 621.193 285.376C625.989 301.243 631.123 316.458 631.809 333.651C632.322 346.514 630.482 359.261 627.339 371.216C624.115 383.509 619.493 395.103 614.069 406.372C598.179 439.467 575.514 469.396 546.307 491.118C516.844 513.084 479.838 527.356 440.433 524.771C433.064 524.282 425.835 523.06 418.537 522.21C405.604 520.697 392.962 519.94 380.937 518.427C363.894 516.308 347.644 511.955 331.765 504.726C311.627 495.553 292.792 480.559 281.104 462.341C266.146 439.013 262.444 414.765 255.948 386.431C251.315 366.013 245.239 344.489 246.833 322.837C248.836 295.644 257.252 271.687 269.44 249.231C279.812 230.024 292.699 211.69 307.331 195.392C318.937 182.471 331.952 169.422 346.549 160.016C372.916 143.055 404.882 129.982 438.606 130.215Z" stroke="url(#paint23_linear_168_461)" stroke-miterlimit="10"/>
<path opacity="0.7143" d="M440.666 120.622C469.931 121.076 497.683 139.888 520.779 154.73C540.219 167.221 556.26 184.147 573.174 200.13C582.068 208.534 591.183 216.741 597.795 227.125C609.145 244.935 611.391 266.25 618.271 286.493C623.707 302.43 631.74 316.271 633.137 333.546C634.149 346.095 631.809 358.713 628.003 370.191C624.138 381.937 618.737 392.775 612.881 403.519C595.769 435.02 574.885 465.344 547.297 487.892C519.382 510.755 482.794 526.715 444.356 521.826C436.452 520.824 428.781 518.764 420.842 517.74C406.849 515.935 393.125 516.75 380.215 516.995C361.88 517.39 344.326 515.249 326.364 509.067C303.827 501.303 282.047 484.668 272.152 463.749C259.499 436.952 265.377 411.842 260.453 380.889C256.949 358.422 247.8 334.966 251.106 311.917C254.866 285.725 265.994 264.562 279.533 243.771C291.046 226.089 304.014 208.197 317.727 191.702C328.262 179.025 339.763 164.241 353.022 154.602C377.305 136.954 408.316 120.168 440.666 120.622Z" stroke="url(#paint24_linear_168_461)" stroke-miterlimit="10"/>
<path opacity="0.5714" d="M442.738 111.03C471.247 111.705 498.277 136.419 520.022 152.227C538.915 165.963 553.769 184.472 571.335 200.257C580.566 208.557 590.507 216.182 597.166 226.74C608.597 244.9 607.724 267.39 615.361 287.622C621.449 303.628 632.356 316.096 634.475 333.464C635.965 345.699 633.136 358.201 628.69 369.19C624.196 380.4 618.003 390.47 611.706 400.702C593.371 430.619 574.28 461.328 548.286 484.691C521.931 508.462 485.763 525.876 448.267 518.915C439.828 517.355 431.714 514.503 423.146 513.316C408.095 511.232 393.276 513.595 379.481 515.609C359.855 518.519 340.997 518.578 320.951 513.456C296.028 507.088 271.279 488.823 263.189 465.192C252.829 434.926 268.288 408.955 264.935 375.383C262.572 350.867 250.186 325.502 255.355 301.033C260.674 275.853 274.667 257.461 289.59 238.358C302.221 222.189 315.317 204.774 328.087 188.046C337.574 175.625 347.539 159.072 359.459 149.224C381.693 130.831 411.762 110.355 442.738 111.03Z" stroke="url(#paint25_linear_168_461)" stroke-miterlimit="10"/>
<path opacity="0.4286" d="M444.799 101.438C472.539 102.334 498.836 132.985 519.265 149.724C537.588 164.741 551.266 184.798 569.484 200.374C579.053 208.569 589.832 215.6 596.526 226.356C608.05 244.865 604.034 268.531 612.439 288.74C619.167 304.816 632.927 315.91 635.802 333.359C637.758 345.28 634.452 357.654 629.353 368.166C624.22 378.84 617.247 388.13 610.507 397.85C590.95 426.172 573.652 457.288 549.252 481.467C524.445 506.134 488.731 524.817 452.156 515.982C443.192 513.817 434.613 510.22 425.416 508.869C409.305 506.506 393.404 510.429 378.725 514.201C357.806 519.625 337.644 521.872 315.515 517.821C288.217 512.815 260.5 492.956 254.214 466.624C246.158 432.889 271.198 406.057 269.417 369.865C268.195 343.301 252.433 315.991 259.604 290.125C266.32 265.912 283.328 250.337 299.648 232.91C313.384 218.243 326.643 201.34 338.447 184.368C346.899 172.226 355.303 153.869 365.897 143.822C386.07 124.673 415.207 100.53 444.799 101.438Z" stroke="url(#paint26_linear_168_461)" stroke-miterlimit="10"/>
<path opacity="0.2857" d="M446.871 91.8459C473.854 92.975 499.383 129.597 518.509 147.21C536.226 163.53 548.775 185.101 567.633 200.49C577.54 208.581 589.157 215.03 595.897 225.961C607.515 244.819 600.356 269.649 609.529 289.857C616.897 306.003 633.497 315.735 637.129 333.266C639.539 344.872 635.779 357.13 630.017 367.141C624.243 377.269 616.49 385.802 609.319 394.998C588.54 421.737 573.035 453.237 550.23 478.242C526.983 503.817 491.758 523.618 456.055 513.048C446.58 510.243 437.535 505.936 427.698 504.411C410.528 501.768 393.544 507.239 377.98 512.781C355.769 520.72 334.315 525.143 310.09 522.163C280.406 518.519 249.732 497.065 245.239 468.033C239.476 430.829 274.108 403.123 273.899 364.313C273.817 335.711 254.528 306.388 263.864 279.194C271.861 255.913 292 243.166 309.729 227.439C324.571 214.273 338.017 197.906 348.843 180.666C356.281 168.804 363.091 148.618 372.369 138.386C390.412 118.492 418.653 90.7167 446.871 91.8459Z" stroke="url(#paint27_linear_168_461)" stroke-miterlimit="10"/>
<path opacity="0.1429" d="M448.943 82.2531C475.17 83.6035 499.883 126.221 517.764 144.706C534.841 162.366 546.295 185.426 565.794 200.618C576.05 208.603 588.494 214.47 595.269 225.576C606.979 244.783 596.677 270.789 606.618 290.974C614.627 307.19 634.033 315.56 638.468 333.161C641.308 344.464 637.106 356.582 630.703 366.116C624.289 375.708 615.757 383.461 608.143 392.157C586.142 417.301 572.429 449.197 551.231 475.028C529.533 501.5 494.866 522.314 459.978 510.114C450.014 506.633 440.468 501.64 430.003 499.963C411.762 497.03 393.707 504.061 377.258 511.371C353.755 521.825 330.997 528.379 304.689 526.528C272.63 524.2 238.987 501.197 236.287 469.452C232.829 428.779 277.03 400.212 278.404 358.782C279.451 328.132 256.495 296.725 268.136 268.286C277.321 245.866 300.649 235.994 319.81 221.99C335.735 210.291 349.436 194.506 359.226 176.975C365.675 165.416 370.844 143.379 378.83 132.972C394.708 112.275 422.099 80.9028 448.943 82.2531Z" stroke="url(#paint28_linear_168_461)" stroke-miterlimit="10"/>
<path opacity="0.0769" d="M365.85 121.122C406.279 134.207 439.141 127.362 476.962 117.584C507.112 109.796 561.696 88.2834 590.158 101.484C618.213 114.499 629.446 142.518 630.401 173.297C630.715 183.413 618.422 215.123 620.401 225.157C624.068 243.759 640.307 256.925 649.201 273.653C659.107 292.255 659.131 315.886 649.306 334.477C644.347 343.836 636.966 352.252 635.174 362.741C632.019 381.308 668.036 397.256 675.114 414.403C676.941 418.827 678.315 423.623 677.686 428.407C676.883 434.53 672.937 439.745 668.816 444.332C657.501 456.939 622.194 467.276 606.851 474.226C581.078 485.901 550.044 488.963 530.371 509.544C516.506 524.049 507.95 547.074 488.172 550.229C470.862 552.988 456.649 538.402 440.422 532.151C425.731 525.434 405.93 539.694 392.531 545.049C374.022 552.499 355.478 559.868 336.922 567.155C308.879 578.144 278.823 589.144 249.36 582.719C224.786 577.352 203.355 559.274 194.03 536.202C184.019 511.686 187.244 473.05 209.757 457.567C220.909 449.908 234.913 447.452 245.495 438.802C258.893 427.872 263.026 407.023 256.903 390.365C249.243 369.446 230.885 359.237 213.238 348.225C189.421 333.371 168.013 314.478 150.575 292.337C142.077 281.546 134.464 269.777 130.576 256.529C126.688 243.259 126.967 228.207 133.8 216.112C149.702 187.941 196.207 195.182 222.76 194.798C239.244 194.565 258.288 197.545 274.737 193.529C281.71 191.829 288.52 187.58 291.453 181.096C294.934 173.402 292.431 164.822 292.233 156.615C291.942 145.091 296.598 133.31 304.863 124.754C324.269 104.72 343.418 113.858 365.85 121.122Z" stroke="url(#paint29_linear_168_461)" stroke-width="2.0769" stroke-miterlimit="10" stroke-linecap="round" stroke-linejoin="round"/>
<path opacity="0.1538" d="M371.74 122.682C410.842 134.579 442.831 128.584 479.314 120.482C508.835 113.917 560.602 95.4892 588.214 108.876C615.012 121.867 626.012 148.676 627.98 178.151C628.655 188.209 617.933 218.079 620.064 228.149C623.847 246.087 638.957 259.102 647.315 275.422C656.605 293.524 656.744 316.27 647.734 334.43C643.183 343.545 636.396 351.787 634.696 361.926C631.693 380.086 664.427 395.836 670.632 412.599C672.215 416.883 673.414 421.504 672.762 426.125C671.924 432.027 668.176 437.08 664.299 441.573C653.427 454.157 620.553 464.738 605.792 471.979C581.393 483.934 551.918 487.671 532.804 507.425C519.335 521.348 510.663 543.012 491.665 546.388C475.042 549.333 461.212 536.318 445.509 530.882C431.26 525.003 412.286 538.297 399.155 543.361C381.228 550.369 363.242 557.214 345.222 563.895C317.936 573.965 288.857 583.825 260.407 577.504C236.636 572.219 215.892 555.107 206.172 533.361C195.765 510.091 197.464 473.783 217.056 458.522C226.776 450.979 239.127 448.162 248.405 439.652C260.151 428.896 263.457 409.013 257.438 392.914C249.942 372.81 232.736 362.461 216.276 351.321C194.065 336.339 174.136 317.644 158.258 295.782C150.412 284.991 143.567 273.246 140.156 260.208C136.757 247.123 137.246 232.433 143.812 220.489C159.119 192.609 202.877 197.277 228.685 195.438C244.575 194.309 262.933 196.323 278.962 191.969C285.749 190.141 292.384 185.986 295.492 179.804C299.171 172.47 297.378 164.345 297.716 156.592C298.17 145.708 303.21 134.684 311.534 126.594C330.753 107.922 349.692 115.966 371.74 122.682Z" stroke="url(#paint30_linear_168_461)" stroke-width="2.1538" stroke-miterlimit="10" stroke-linecap="round" stroke-linejoin="round"/>
<path opacity="0.2308" d="M377.63 124.243C415.394 134.976 446.545 129.842 481.677 123.382C510.581 118.062 559.531 102.684 586.282 116.269C611.822 129.237 622.648 154.859 625.57 183.006C626.606 193.018 617.468 221.049 619.738 231.141C623.637 248.417 637.618 261.291 645.441 277.181C654.125 294.782 654.369 316.644 646.174 334.361C642.042 343.232 635.837 351.299 634.242 361.077C631.39 378.829 660.842 394.37 666.173 410.76C667.524 414.916 668.548 419.363 667.85 423.798C666.965 429.467 663.426 434.368 659.782 438.768C649.352 451.341 618.923 462.155 604.733 469.687C581.719 481.898 553.804 486.333 535.237 505.273C522.152 518.613 513.375 538.915 495.145 542.512C479.197 545.643 465.764 534.2 450.596 529.591C436.778 524.55 418.63 536.831 405.79 541.651C388.433 548.158 371.018 554.537 353.534 560.614C327.004 569.775 298.903 578.482 271.466 572.278C248.498 567.086 228.394 550.94 218.325 530.51C207.487 508.521 207.697 474.518 224.367 459.478C232.643 452.051 243.364 448.884 251.327 440.503C261.408 429.933 263.899 411.005 257.974 395.476C250.64 376.175 234.587 365.687 219.314 354.442C198.71 339.32 180.271 320.823 165.941 299.264C158.758 288.461 152.67 276.751 149.737 263.922C146.815 251.024 147.513 236.694 153.823 224.902C168.548 197.301 209.548 199.42 234.611 196.114C249.907 194.1 267.566 195.136 283.176 190.445C289.765 188.489 296.237 184.427 299.52 178.548C303.397 171.575 302.326 163.915 303.187 156.605C304.386 146.361 309.822 136.082 318.204 128.457C337.225 111.124 355.978 118.085 377.63 124.243Z" stroke="url(#paint31_linear_168_461)" stroke-width="2.2308" stroke-miterlimit="10" stroke-linecap="round" stroke-linejoin="round"/>
<path opacity="0.3077" d="M383.521 125.791C419.945 135.359 450.27 131.111 484.028 126.268C512.339 122.205 558.449 109.866 584.35 123.66C608.632 136.593 619.342 161.051 623.149 187.86C624.569 197.836 616.967 224.005 619.4 234.144C623.393 250.756 636.28 263.479 643.543 278.95C651.611 296.05 652.006 317.051 644.603 334.314C640.901 342.94 635.267 350.832 633.765 360.25C631.064 377.606 657.245 392.926 661.692 408.932C662.809 412.948 663.647 417.22 662.926 421.481C662.006 426.929 658.665 431.678 655.254 435.974C645.278 448.546 617.282 459.558 603.662 467.393C582.021 479.848 555.666 484.982 537.646 503.107C524.958 515.865 516.064 534.817 498.614 538.623C483.353 541.941 470.315 532.081 455.659 528.275C442.272 524.072 424.951 535.387 412.402 539.915C395.627 545.969 378.771 551.836 361.834 557.307C336.061 565.549 308.938 573.115 282.513 567.027C260.36 561.917 240.873 546.76 230.466 527.623C219.186 506.902 217.918 475.215 231.677 460.396C238.522 453.086 247.602 449.57 254.237 441.317C262.665 430.922 264.33 412.948 258.498 398.001C251.339 379.504 236.427 368.876 222.329 357.514C203.331 342.265 186.394 323.93 173.601 302.697C167.082 291.871 161.75 280.207 159.294 267.588C156.849 254.877 157.769 240.919 163.811 229.267C177.943 201.957 216.183 201.538 240.512 196.742C255.215 193.843 272.176 193.902 287.379 188.873C293.781 186.777 300.091 182.819 303.536 177.243C307.611 170.631 307.25 163.426 308.658 156.569C310.602 146.965 316.411 137.42 324.862 130.272C343.686 114.313 362.253 120.203 383.521 125.791Z" stroke="url(#paint32_linear_168_461)" stroke-width="2.3077" stroke-miterlimit="10" stroke-linecap="round" stroke-linejoin="round"/>
<path opacity="0.3846" d="M389.411 127.35C424.485 135.779 454.006 132.414 486.38 129.166C514.097 126.384 557.366 117.048 582.406 131.052C605.443 143.939 616.071 167.244 620.727 192.714C622.543 202.655 616.467 226.973 619.063 237.136C623.137 253.084 634.929 265.668 641.658 280.708C649.12 297.308 649.62 317.423 643.031 334.244C639.749 342.626 634.696 350.332 633.3 359.412C630.75 376.361 653.659 391.459 657.21 407.104C658.095 410.981 658.746 415.078 657.99 419.176C657.035 424.403 653.904 428.989 650.714 433.203C641.192 445.775 615.629 456.986 602.591 465.134C582.312 477.811 557.541 483.678 540.068 500.977C527.763 513.153 518.765 530.742 502.095 534.77C487.521 538.286 474.867 529.986 460.747 526.994C447.802 523.63 431.307 533.967 419.026 538.216C402.833 543.815 386.536 549.17 370.134 554.036C345.118 561.358 318.972 567.784 293.56 561.812C272.211 556.783 253.352 542.604 242.596 524.782C230.862 505.33 228.08 475.937 238.964 461.351C244.354 454.134 251.793 450.269 257.136 442.167C263.887 431.934 264.737 414.939 259.01 400.551C252.014 382.856 238.243 372.089 225.344 360.622C207.953 345.245 192.529 327.062 181.26 306.166C175.405 295.317 170.842 283.699 168.863 271.29C166.907 258.765 168.025 245.168 173.81 233.678C187.349 206.648 222.83 203.715 246.426 197.417C260.523 193.657 276.786 192.679 291.593 187.348C297.797 185.113 303.944 181.259 307.552 175.986C311.825 169.735 312.174 162.983 314.118 156.592C316.807 147.629 322.988 138.828 331.509 132.147C350.123 117.491 368.516 122.333 389.411 127.35Z" stroke="url(#paint33_linear_168_461)" stroke-width="2.3846" stroke-miterlimit="10" stroke-linecap="round" stroke-linejoin="round"/>
<path opacity="0.4615" d="M395.301 128.911C429.025 136.209 457.755 133.753 488.743 132.065C515.889 130.575 556.307 124.208 580.473 138.444C602.265 151.273 612.881 173.425 618.306 197.568C620.529 207.463 615.966 229.93 618.725 240.128C622.869 255.424 633.579 267.856 639.76 282.465C646.605 298.565 647.234 317.796 641.448 334.186C638.573 342.323 634.114 349.855 632.822 358.574C630.424 375.115 650.074 389.992 652.728 405.277C653.38 409.014 653.846 412.937 653.066 416.86C652.065 421.865 649.154 426.3 646.186 430.41C637.129 442.982 613.976 454.367 601.52 462.853C582.603 475.728 559.403 482.351 542.489 498.823C530.58 510.429 521.465 526.645 505.564 530.894C491.676 534.596 479.407 527.867 465.81 525.69C453.296 523.176 437.639 532.535 425.638 536.493C410.027 541.65 394.3 546.481 378.422 550.742C354.162 557.156 328.995 562.429 304.596 556.574C284.049 551.626 265.808 538.437 254.726 521.907C242.538 503.736 238.277 476.647 246.251 462.282C250.198 455.181 255.995 450.967 260.034 442.993C265.121 432.936 265.156 416.906 259.534 403.088C252.7 386.197 240.082 375.29 228.371 363.707C212.598 348.202 198.698 330.147 188.932 309.612C183.751 298.716 179.933 287.168 178.432 274.969C176.953 262.641 178.292 249.394 183.81 238.056C196.754 211.305 229.465 205.88 252.34 198.057C265.831 193.448 281.419 191.457 295.807 185.788C301.813 183.425 307.797 179.665 311.58 174.694C316.05 168.804 317.11 162.506 319.589 156.569C323.023 148.246 329.577 140.179 338.168 133.974C356.549 120.657 374.778 124.464 395.301 128.911Z" stroke="url(#paint34_linear_168_461)" stroke-width="2.4615" stroke-miterlimit="10" stroke-linecap="round" stroke-linejoin="round"/>
<path opacity="0.5385" d="M401.192 130.459C433.565 136.652 461.538 133.602 491.094 134.941C517.647 136.152 555.224 131.344 578.541 145.813C599.087 158.572 609.738 179.595 615.896 202.4C618.562 212.26 615.466 232.876 618.399 243.096C622.602 257.741 632.24 270.01 637.886 284.212C644.126 299.811 644.859 318.157 639.888 334.105C637.432 341.986 633.544 349.354 632.357 357.724C630.075 373.859 646.512 388.514 648.258 403.438C648.677 407.035 648.957 410.795 648.142 414.532C647.106 419.316 644.405 423.6 641.658 427.605C633.067 440.188 612.323 451.724 600.449 460.548C582.883 473.609 561.277 481.001 544.899 496.658C533.374 507.682 524.155 522.548 509.033 527.006C495.832 530.894 483.947 525.749 470.886 524.375C458.803 522.699 443.984 531.08 432.25 534.759C417.221 539.474 402.053 543.792 386.711 547.424C363.208 552.919 339.018 557.051 315.62 551.301C295.888 546.435 278.241 534.235 266.844 519.009C254.191 502.118 248.463 477.334 253.539 463.179C256.041 456.206 260.209 451.631 262.921 443.785C266.344 433.914 265.564 418.827 260.034 405.58C253.376 389.492 241.898 378.457 231.363 366.758C217.196 351.112 204.845 333.185 196.568 313.012C192.075 302.081 188.99 290.591 187.966 278.601C186.964 266.46 188.513 253.585 193.763 242.386C206.125 215.927 236.066 208.011 258.207 198.651C271.105 193.192 285.994 190.189 299.974 184.182C305.795 181.679 311.615 178.024 315.561 173.356C320.229 167.815 322.01 161.983 325.025 156.5C329.204 148.817 336.119 141.471 344.792 135.756C362.963 123.801 381.053 126.606 401.192 130.459Z" stroke="url(#paint35_linear_168_461)" stroke-width="2.5385" stroke-miterlimit="10" stroke-linecap="round" stroke-linejoin="round"/>
<path opacity="0.6154" d="M407.082 132.018C438.093 137.117 465.275 136.534 493.446 137.838C519.463 139.049 554.165 138.49 576.597 153.204C595.909 165.881 606.653 185.764 613.475 207.253C616.595 217.066 614.953 235.843 618.062 246.087C622.322 260.079 630.901 272.197 635.989 285.969C641.611 301.067 642.461 318.528 638.317 334.045C636.28 341.682 632.974 348.876 631.891 356.885C629.761 372.623 642.961 387.035 643.788 401.598C643.986 405.055 644.067 408.64 643.229 412.214C642.158 416.777 639.667 420.91 637.153 424.809C629.039 437.405 610.681 449.081 599.401 458.265C583.174 471.478 563.163 479.661 547.343 494.504C536.214 504.945 526.878 518.449 512.525 523.128C500.011 527.203 488.522 523.629 475.973 523.07C464.332 522.232 450.328 529.647 438.885 533.035C424.439 537.307 409.829 541.102 395.022 544.129C372.276 548.704 349.064 551.695 326.678 546.061C307.75 541.277 290.708 530.066 278.997 516.144C265.866 500.534 258.684 478.067 260.849 464.121C261.908 457.264 264.435 452.34 265.843 444.622C267.612 434.937 266.006 420.805 260.57 408.128C254.074 392.855 243.737 381.668 234.401 369.853C221.841 354.079 211.073 336.257 204.239 316.468C200.445 305.479 198.081 294.071 197.534 282.29C197.022 270.335 198.78 257.821 203.762 246.774C215.531 220.593 242.724 210.233 264.12 199.302C276.425 193.016 290.615 188.977 304.188 182.632C309.811 180.002 315.468 176.451 319.589 172.074C324.455 166.894 326.946 161.516 330.497 156.487C335.421 149.444 342.696 142.821 351.45 137.594C369.366 126.942 387.304 128.77 407.082 132.018Z" stroke="url(#paint36_linear_168_461)" stroke-width="2.6154" stroke-miterlimit="10" stroke-linecap="round" stroke-linejoin="round"/>
<path opacity="0.6923" d="M412.972 133.578C442.61 137.606 469.035 137.99 495.797 140.737C521.244 143.345 553.105 145.615 574.653 160.608C592.743 173.192 603.603 191.922 611.042 212.119C614.639 221.886 614.406 238.823 617.724 249.091C622.019 262.431 629.551 274.386 634.103 287.739C639.12 302.336 640.074 318.913 636.745 333.988C635.115 341.38 632.403 348.399 631.425 356.047C629.446 371.378 639.434 385.557 639.318 399.77C639.294 403.077 639.178 406.499 638.305 409.898C637.187 414.24 634.918 418.221 632.624 422.016C624.988 434.635 609.005 446.427 598.33 455.984C583.418 469.336 565.026 478.335 549.753 492.351C539.008 502.21 529.567 514.352 515.994 519.253C504.155 523.513 493.062 521.511 481.048 521.779C469.838 521.779 456.672 528.239 445.497 531.324C431.644 535.154 417.582 538.425 403.322 540.846C381.332 544.513 359.098 546.364 337.726 540.835C319.601 536.144 303.152 525.923 291.139 513.281C277.53 498.963 268.905 478.801 268.148 465.064C267.775 458.324 268.66 453.051 268.753 445.461C268.858 435.962 266.437 422.785 261.094 410.678C254.761 396.208 245.576 384.882 237.428 372.962C226.474 357.06 217.312 339.331 211.911 319.937C208.838 308.89 207.173 297.563 207.115 285.992C207.08 274.223 209.047 262.07 213.773 251.174C224.949 225.285 249.406 212.48 270.045 199.966C281.768 192.865 295.248 187.79 308.414 181.096C313.85 178.337 319.333 174.88 323.628 170.806C328.692 165.986 331.893 161.074 335.979 156.487C341.648 150.085 349.273 144.171 358.12 139.445C375.745 130.051 393.567 130.936 412.972 133.578Z" stroke="url(#paint37_linear_168_461)" stroke-width="2.6923" stroke-miterlimit="10" stroke-linecap="round" stroke-linejoin="round"/>
<path opacity="0.7692" d="M418.863 135.127C447.138 138.107 472.783 139.481 498.16 143.625C523.025 147.688 552.081 152.717 572.732 167.989C589.611 180.468 600.623 198.035 608.644 216.963C612.753 226.659 613.894 241.793 617.41 252.083C621.74 264.783 628.224 276.576 632.24 289.497C636.64 303.594 637.7 319.274 635.197 333.93C633.975 341.078 631.879 347.923 630.971 355.221C629.179 370.157 635.93 384.091 634.859 397.955C634.615 401.121 634.301 404.381 633.404 407.605C632.252 411.726 630.203 415.568 628.119 419.246C620.983 431.9 607.34 443.785 597.294 453.715C583.674 467.184 566.935 477.02 552.209 490.209C541.86 499.487 532.303 510.267 519.51 515.388C508.358 519.835 497.648 519.405 486.159 520.487C475.379 521.325 463.051 526.82 452.156 529.614C438.885 533.013 425.382 535.748 411.657 537.564C390.424 540.312 369.168 541.022 348.808 535.609C331.498 530.999 315.62 521.791 303.315 510.43C289.206 497.415 279.172 479.535 275.482 466.008C273.677 459.396 272.921 453.762 271.687 446.3C270.15 436.987 266.891 424.753 261.652 413.216C255.483 399.55 247.451 388.084 240.478 376.047C231.13 360.018 223.61 342.382 219.605 323.384C217.266 312.278 216.299 301.033 216.707 289.672C217.149 278.089 219.338 266.297 223.796 255.552C234.378 229.942 256.111 214.716 275.982 200.607C287.123 192.691 299.916 186.591 312.651 179.537C317.901 176.65 323.221 173.286 327.68 169.514C332.941 165.056 336.864 160.597 341.486 156.465C347.9 150.703 355.862 145.488 364.814 141.274C382.124 133.137 399.83 133.125 418.863 135.127Z" stroke="url(#paint38_linear_168_461)" stroke-width="2.7692" stroke-miterlimit="10" stroke-linecap="round" stroke-linejoin="round"/>
<path opacity="0.8462" d="M424.753 136.687C451.655 138.654 476.508 141.029 500.512 146.523C524.783 152.076 551.057 159.817 570.788 175.381C586.457 187.744 597.667 204.122 606.223 221.817C610.867 231.42 613.347 244.772 617.072 255.075C621.426 267.135 626.885 278.752 630.343 291.254C634.138 304.839 635.29 319.647 633.625 333.86C632.811 340.752 631.309 347.422 630.506 354.371C628.864 368.899 632.426 382.612 630.389 396.104C629.935 399.131 629.411 402.215 628.48 405.265C627.293 409.165 625.465 412.855 623.591 416.441C616.967 429.129 605.617 441.084 596.223 451.421C583.872 464.995 568.797 475.681 554.63 488.044C544.666 496.739 535.004 506.169 522.979 511.5C512.514 516.133 502.2 517.286 491.234 519.171C480.885 520.848 469.407 525.388 458.768 527.879C446.091 530.847 433.134 533.047 419.945 534.258C399.469 536.086 379.19 535.655 359.843 530.358C343.336 525.83 328.04 517.647 315.433 507.542C300.824 495.843 289.381 480.233 282.769 466.927C279.533 460.432 277.146 454.448 274.585 447.114C271.396 437.976 267.31 426.708 262.165 415.742C256.17 402.879 249.278 391.273 243.493 379.132C235.751 362.962 229.908 345.431 227.265 326.829C225.682 315.665 225.379 304.49 226.264 293.35C227.195 281.953 229.593 270.534 233.784 259.929C243.772 234.598 262.805 216.962 281.884 201.247C292.466 192.528 304.526 185.369 316.853 177.977C321.906 174.962 327.063 171.691 331.696 168.222C337.155 164.124 341.788 160.12 346.945 156.441C354.104 151.319 362.404 146.779 371.461 143.101C388.492 136.198 406.081 135.325 424.753 136.687Z" stroke="url(#paint39_linear_168_461)" stroke-width="2.8462" stroke-miterlimit="10" stroke-linecap="round" stroke-linejoin="round"/>
<path opacity="0.9231" d="M430.643 138.247C456.183 139.213 480.21 142.612 502.863 149.422C526.506 156.523 550.044 166.895 568.844 182.773C583.325 195.008 594.733 210.176 603.79 226.671C609.005 236.158 612.777 247.753 616.723 258.066C621.088 269.486 625.523 280.941 628.445 293.024C631.623 306.108 632.857 320.031 632.042 333.814C631.623 340.461 630.727 346.956 630.028 353.557C628.55 367.677 628.934 381.18 625.908 394.3C625.244 397.187 624.511 400.097 623.556 402.972C622.322 406.651 620.727 410.201 619.063 413.67C612.974 426.394 603.883 438.419 595.152 449.163C584.047 462.83 570.671 474.366 557.04 485.925C547.471 494.039 537.693 502.106 526.448 507.659C516.669 512.478 506.74 515.202 496.298 517.903C486.391 520.429 475.74 524.014 465.38 526.191C453.296 528.729 440.887 530.393 428.234 530.999C408.514 531.918 389.213 530.335 370.879 525.155C355.175 520.708 340.45 513.561 327.563 504.714C312.453 494.342 299.625 480.978 290.056 467.905C285.4 461.514 281.372 455.182 277.484 447.987C272.653 439.024 267.729 428.722 262.677 418.326C256.845 406.267 251.094 394.533 246.508 382.263C240.373 365.966 236.229 348.539 234.925 330.321C234.122 319.111 234.459 308.006 235.821 297.075C237.23 285.865 239.837 274.806 243.772 264.352C253.178 239.313 269.533 219.267 287.786 201.934C297.809 192.412 309.136 184.193 321.056 176.464C325.922 173.321 330.916 170.143 335.7 166.976C341.358 163.24 346.701 159.689 352.393 156.476C360.297 151.995 368.946 148.118 378.096 144.998C394.871 139.224 412.344 137.548 430.643 138.247Z" stroke="url(#paint40_linear_168_461)" stroke-width="2.9231" stroke-miterlimit="10" stroke-linecap="round" stroke-linejoin="round"/>
<path d="M573.667 470.886C649.409 395.145 649.409 272.345 573.667 196.604C497.926 120.863 375.126 120.863 299.385 196.604C223.644 272.345 223.644 395.145 299.385 470.886C375.126 546.627 497.926 546.627 573.667 470.886Z" stroke="url(#paint41_linear_168_461)" stroke-width="3" stroke-miterlimit="10" stroke-linecap="round" stroke-linejoin="round"/>
<path d="M573.667 470.887C649.408 395.146 649.408 272.346 573.667 196.605C497.926 120.864 375.126 120.864 299.385 196.605C223.644 272.346 223.644 395.146 299.385 470.887C375.126 546.628 497.926 546.628 573.667 470.887Z" stroke="url(#paint42_radial_168_461)" stroke-miterlimit="10"/>
<defs>
<radialGradient id="paint0_radial_168_461" cx="0" cy="0" r="1" gradientUnits="userSpaceOnUse" gradientTransform="translate(282.491 173.518) scale(171.665)">
<stop stop-color="#0067FF"/>
<stop offset="0.0462" stop-color="#0067FF" stop-opacity="0.9538"/>
<stop offset="1" stop-color="#0067FF" stop-opacity="0"/>
</radialGradient>
<radialGradient id="paint1_radial_168_461" cx="0" cy="0" r="1" gradientUnits="userSpaceOnUse" gradientTransform="translate(640.926 281.868) scale(210.94 210.94)">
<stop stop-color="#00C1FF"/>
<stop offset="0.1155" stop-color="#0099FF" stop-opacity="0.8845"/>
<stop offset="0.2682" stop-color="#006BFF" stop-opacity="0.7318"/>
<stop offset="0.4213" stop-color="#0044FF" stop-opacity="0.5787"/>
<stop offset="0.5723" stop-color="#0026FF" stop-opacity="0.4277"/>
<stop offset="0.7205" stop-color="#0011FF" stop-opacity="0.2795"/>
<stop offset="0.8646" stop-color="#0004FF" stop-opacity="0.1354"/>
<stop offset="1" stop-color="#0000FF" stop-opacity="0"/>
</radialGradient>
<radialGradient id="paint2_radial_168_461" cx="0" cy="0" r="1" gradientUnits="userSpaceOnUse" gradientTransform="translate(323.058 210.94) scale(210.94)">
<stop stop-color="#00DAFF"/>
<stop offset="0.0237" stop-color="#00D0FF" stop-opacity="0.9763"/>
<stop offset="0.1679" stop-color="#009AFF" stop-opacity="0.8321"/>
<stop offset="0.3134" stop-color="#006BFF" stop-opacity="0.6866"/>
<stop offset="0.4571" stop-color="#0044FF" stop-opacity="0.5429"/>
<stop offset="0.5988" stop-color="#0026FF" stop-opacity="0.4012"/>
<stop offset="0.7378" stop-color="#0011FF" stop-opacity="0.2622"/>
<stop offset="0.873" stop-color="#0004FF" stop-opacity="0.127"/>
<stop offset="1" stop-color="#0000FF" stop-opacity="0"/>
</radialGradient>
<radialGradient id="paint3_radial_168_461" cx="0" cy="0" r="1" gradientUnits="userSpaceOnUse" gradientTransform="translate(552.435 547.522) scale(171.485 171.485)">
<stop stop-color="#00B9FF"/>
<stop offset="0.0956" stop-color="#0099FF" stop-opacity="0.9044"/>
<stop offset="0.2517" stop-color="#006BFF" stop-opacity="0.7483"/>
<stop offset="0.4083" stop-color="#0044FF" stop-opacity="0.5917"/>
<stop offset="0.5627" stop-color="#0026FF" stop-opacity="0.4373"/>
<stop offset="0.7142" stop-color="#0011FF" stop-opacity="0.2858"/>
<stop offset="0.8616" stop-color="#0004FF" stop-opacity="0.1384"/>
<stop offset="1" stop-color="#0000FF" stop-opacity="0"/>
</radialGradient>
<radialGradient id="paint4_radial_168_461" cx="0" cy="0" r="1" gradientUnits="userSpaceOnUse" gradientTransform="translate(279.926 513.457) scale(171.485 171.485)">
<stop stop-color="#00CFFF"/>
<stop offset="0.1472" stop-color="#0099FF" stop-opacity="0.8528"/>
<stop offset="0.2946" stop-color="#006BFF" stop-opacity="0.7054"/>
<stop offset="0.4422" stop-color="#0044FF" stop-opacity="0.5578"/>
<stop offset="0.5877" stop-color="#0026FF" stop-opacity="0.4123"/>
<stop offset="0.7306" stop-color="#0011FF" stop-opacity="0.2694"/>
<stop offset="0.8695" stop-color="#0004FF" stop-opacity="0.1305"/>
<stop offset="1" stop-color="#0000FF" stop-opacity="0"/>
</radialGradient>
<linearGradient id="paint5_linear_168_461" x1="298.155" y1="472.12" x2="574.901" y2="195.374" gradientUnits="userSpaceOnUse">
<stop stop-color="#8FFFFF"/>
<stop offset="1" stop-color="#0084FF"/>
</linearGradient>
<linearGradient id="paint6_linear_168_461" x1="237.731" y1="334.095" x2="639.916" y2="334.095" gradientUnits="userSpaceOnUse">
<stop stop-color="#8FFFFF"/>
<stop offset="1" stop-color="#0084FF"/>
</linearGradient>
<linearGradient id="paint7_linear_168_461" x1="234.618" y1="334.6" x2="647.84" y2="334.6" gradientUnits="userSpaceOnUse">
<stop stop-color="#8FFFFF"/>
<stop offset="1" stop-color="#0084FF"/>
</linearGradient>
<linearGradient id="paint8_linear_168_461" x1="231.504" y1="335.279" x2="655.878" y2="335.279" gradientUnits="userSpaceOnUse">
<stop stop-color="#8FFFFF"/>
<stop offset="1" stop-color="#0084FF"/>
</linearGradient>
<linearGradient id="paint9_linear_168_461" x1="228.39" y1="336.114" x2="663.981" y2="336.114" gradientUnits="userSpaceOnUse">
<stop stop-color="#8FFFFF"/>
<stop offset="1" stop-color="#0084FF"/>
</linearGradient>
<linearGradient id="paint10_linear_168_461" x1="225.275" y1="337.048" x2="672.125" y2="337.048" gradientUnits="userSpaceOnUse">
<stop stop-color="#8FFFFF"/>
<stop offset="1" stop-color="#0084FF"/>
</linearGradient>
<linearGradient id="paint11_linear_168_461" x1="222.161" y1="338.044" x2="680.296" y2="338.044" gradientUnits="userSpaceOnUse">
<stop stop-color="#8FFFFF"/>
<stop offset="1" stop-color="#0084FF"/>
</linearGradient>
<linearGradient id="paint12_linear_168_461" x1="219.046" y1="339.087" x2="688.488" y2="339.087" gradientUnits="userSpaceOnUse">
<stop stop-color="#8FFFFF"/>
<stop offset="1" stop-color="#0084FF"/>
</linearGradient>
<linearGradient id="paint13_linear_168_461" x1="215.931" y1="340.166" x2="696.693" y2="340.166" gradientUnits="userSpaceOnUse">
<stop stop-color="#8FFFFF"/>
<stop offset="1" stop-color="#0084FF"/>
</linearGradient>
<linearGradient id="paint14_linear_168_461" x1="212.816" y1="341.273" x2="704.91" y2="341.273" gradientUnits="userSpaceOnUse">
<stop stop-color="#8FFFFF"/>
<stop offset="1" stop-color="#0084FF"/>
</linearGradient>
<linearGradient id="paint15_linear_168_461" x1="209.701" y1="342.402" x2="713.135" y2="342.402" gradientUnits="userSpaceOnUse">
<stop stop-color="#8FFFFF"/>
<stop offset="1" stop-color="#0084FF"/>
</linearGradient>
<linearGradient id="paint16_linear_168_461" x1="206.586" y1="343.549" x2="721.366" y2="343.549" gradientUnits="userSpaceOnUse">
<stop stop-color="#8FFFFF"/>
<stop offset="1" stop-color="#0084FF"/>
</linearGradient>
<linearGradient id="paint17_linear_168_461" x1="203.47" y1="344.701" x2="729.603" y2="344.701" gradientUnits="userSpaceOnUse">
<stop stop-color="#8FFFFF"/>
<stop offset="1" stop-color="#0084FF"/>
</linearGradient>
<linearGradient id="paint18_linear_168_461" x1="200.355" y1="345.879" x2="737.844" y2="345.879" gradientUnits="userSpaceOnUse">
<stop stop-color="#8FFFFF"/>
<stop offset="1" stop-color="#0084FF"/>
</linearGradient>
<linearGradient id="paint19_linear_168_461" x1="197.24" y1="347.069" x2="746.089" y2="347.069" gradientUnits="userSpaceOnUse">
<stop stop-color="#8FFFFF"/>
<stop offset="1" stop-color="#0084FF"/>
</linearGradient>
<linearGradient id="paint20_linear_168_461" x1="194.125" y1="348.248" x2="754.337" y2="348.248" gradientUnits="userSpaceOnUse">
<stop stop-color="#8FFFFF"/>
<stop offset="1" stop-color="#0084FF"/>
</linearGradient>
<linearGradient id="paint21_linear_168_461" x1="191.01" y1="349.476" x2="762.587" y2="349.476" gradientUnits="userSpaceOnUse">
<stop stop-color="#8FFFFF"/>
<stop offset="1" stop-color="#0084FF"/>
</linearGradient>
<linearGradient id="paint22_linear_168_461" x1="298.978" y1="471.297" x2="574.078" y2="196.197" gradientUnits="userSpaceOnUse">
<stop stop-color="#8FFFFF"/>
<stop offset="1" stop-color="#0084FF"/>
</linearGradient>
<linearGradient id="paint23_linear_168_461" x1="246.001" y1="327.636" x2="632.477" y2="327.636" gradientUnits="userSpaceOnUse">
<stop stop-color="#8FFFFF"/>
<stop offset="1" stop-color="#0084FF"/>
</linearGradient>
<linearGradient id="paint24_linear_168_461" x1="249.806" y1="321.662" x2="633.957" y2="321.662" gradientUnits="userSpaceOnUse">
<stop stop-color="#8FFFFF"/>
<stop offset="1" stop-color="#0084FF"/>
</linearGradient>
<linearGradient id="paint25_linear_168_461" x1="253.52" y1="315.728" x2="635.454" y2="315.728" gradientUnits="userSpaceOnUse">
<stop stop-color="#8FFFFF"/>
<stop offset="1" stop-color="#0084FF"/>
</linearGradient>
<linearGradient id="paint26_linear_168_461" x1="252.023" y1="310.643" x2="636.953" y2="310.643" gradientUnits="userSpaceOnUse">
<stop stop-color="#8FFFFF"/>
<stop offset="1" stop-color="#0084FF"/>
</linearGradient>
<linearGradient id="paint27_linear_168_461" x1="244.009" y1="307.45" x2="638.452" y2="307.45" gradientUnits="userSpaceOnUse">
<stop stop-color="#8FFFFF"/>
<stop offset="1" stop-color="#0084FF"/>
</linearGradient>
<linearGradient id="paint28_linear_168_461" x1="235.491" y1="304.52" x2="639.948" y2="304.52" gradientUnits="userSpaceOnUse">
<stop stop-color="#8FFFFF"/>
<stop offset="1" stop-color="#0084FF"/>
</linearGradient>
<linearGradient id="paint29_linear_168_461" x1="126.878" y1="340.97" x2="679.054" y2="340.97" gradientUnits="userSpaceOnUse">
<stop stop-color="#8FFFFF"/>
<stop offset="1" stop-color="#0084FF"/>
</linearGradient>
<linearGradient id="paint30_linear_168_461" x1="136.837" y1="341.804" x2="674.207" y2="341.804" gradientUnits="userSpaceOnUse">
<stop stop-color="#8FFFFF"/>
<stop offset="1" stop-color="#0084FF"/>
</linearGradient>
<linearGradient id="paint31_linear_168_461" x1="146.778" y1="342.578" x2="669.367" y2="342.578" gradientUnits="userSpaceOnUse">
<stop stop-color="#8FFFFF"/>
<stop offset="1" stop-color="#0084FF"/>
</linearGradient>
<linearGradient id="paint32_linear_168_461" x1="156.697" y1="343.268" x2="664.537" y2="343.268" gradientUnits="userSpaceOnUse">
<stop stop-color="#8FFFFF"/>
<stop offset="1" stop-color="#0084FF"/>
</linearGradient>
<linearGradient id="paint33_linear_168_461" x1="166.586" y1="343.255" x2="659.72" y2="343.255" gradientUnits="userSpaceOnUse">
<stop stop-color="#8FFFFF"/>
<stop offset="1" stop-color="#0084FF"/>
</linearGradient>
<linearGradient id="paint34_linear_168_461" x1="176.436" y1="341.93" x2="654.922" y2="341.93" gradientUnits="userSpaceOnUse">
<stop stop-color="#8FFFFF"/>
<stop offset="1" stop-color="#0084FF"/>
</linearGradient>
<linearGradient id="paint35_linear_168_461" x1="186.232" y1="340.618" x2="650.158" y2="340.618" gradientUnits="userSpaceOnUse">
<stop stop-color="#8FFFFF"/>
<stop offset="1" stop-color="#0084FF"/>
</linearGradient>
<linearGradient id="paint36_linear_168_461" x1="195.951" y1="339.324" x2="645.451" y2="339.324" gradientUnits="userSpaceOnUse">
<stop stop-color="#8FFFFF"/>
<stop offset="1" stop-color="#0084FF"/>
</linearGradient>
<linearGradient id="paint37_linear_168_461" x1="205.558" y1="338.06" x2="640.894" y2="338.06" gradientUnits="userSpaceOnUse">
<stop stop-color="#8FFFFF"/>
<stop offset="1" stop-color="#0084FF"/>
</linearGradient>
<linearGradient id="paint38_linear_168_461" x1="214.988" y1="336.843" x2="638.126" y2="336.843" gradientUnits="userSpaceOnUse">
<stop stop-color="#8FFFFF"/>
<stop offset="1" stop-color="#0084FF"/>
</linearGradient>
<linearGradient id="paint39_linear_168_461" x1="224.11" y1="335.699" x2="636.02" y2="335.699" gradientUnits="userSpaceOnUse">
<stop stop-color="#8FFFFF"/>
<stop offset="1" stop-color="#0084FF"/>
</linearGradient>
<linearGradient id="paint40_linear_168_461" x1="232.793" y1="334.663" x2="633.995" y2="334.663" gradientUnits="userSpaceOnUse">
<stop stop-color="#8FFFFF"/>
<stop offset="1" stop-color="#0084FF"/>
</linearGradient>
<linearGradient id="paint41_linear_168_461" x1="298.155" y1="472.12" x2="574.902" y2="195.374" gradientUnits="userSpaceOnUse">
<stop stop-color="#8FFFFF"/>
<stop offset="1" stop-color="#0084FF"/>
</linearGradient>
<radialGradient id="paint42_radial_168_461" cx="0" cy="0" r="1" gradientUnits="userSpaceOnUse" gradientTransform="translate(436.528 333.748) rotate(-45) scale(194.525 194.525)">
<stop stop-color="white"/>
<stop offset="0.1393" stop-color="white" stop-opacity="0.8607"/>
<stop offset="1" stop-color="white" stop-opacity="0"/>
</radialGradient>
</defs>
</svg>
