<?xml version="1.0" encoding="utf-8"?>
<!-- Generator: Adobe Illustrator 23.1.1, SVG Export Plug-In . SVG Version: 6.00 Build 0)  -->
<svg version="1.1" id="Livello_1" xmlns="http://www.w3.org/2000/svg" xmlns:xlink="http://www.w3.org/1999/xlink" x="0px" y="0px"
	 viewBox="0 0 5086.7 2199.2" style="enable-background:new 0 0 5086.7 2199.2;" xml:space="preserve">
<style type="text/css">
	.st0{fill:url(#SVGID_1_);}
	.st1{fill:url(#SVGID_2_);}
	.st2{fill:url(#SVGID_3_);}
	.st3{fill:url(#SVGID_4_);}
	.st4{fill:url(#SVGID_5_);}
	.st5{fill:url(#SVGID_6_);}
	.st6{fill:url(#SVGID_7_);}
	.st7{fill:url(#SVGID_8_);}
</style>
<title>FuzioLogoFuzio</title>
<g>
	<g>
		<g id="Layer_1">
			
				<linearGradient id="SVGID_1_" gradientUnits="userSpaceOnUse" x1="1695.7632" y1="-7657.2471" x2="2140.2986" y2="-7657.2471" gradientTransform="matrix(1 0 0 1 0 8762.127)">
				<stop  offset="0" style="stop-color:#8FFFFF"/>
				<stop  offset="1" style="stop-color:#0084FF"/>
			</linearGradient>
			<path class="st0" d="M2125.3,776c3.6,5.7,7,13.4,10.2,23c3.3,10.2,4.9,20.9,4.8,31.6c0,19.3-4.5,33.9-13.4,43.9
				c-8.9,10-20.9,15-35.9,15h-258.2v170.3h256c3.6,5.7,6.9,13.2,10.2,22.5c3.3,10,5,20.5,4.8,31.1c0,19.3-4.5,33.7-13.4,43.4
				s-20.9,14.5-35.9,14.5H1835v253.9c-6.4,1.4-15.5,3.2-27.3,5.3c-12.2,2.2-24.6,3.3-36.9,3.2c-27.1,0-46.4-5-57.8-15
				c-11.4-10-17.1-26.8-17.1-50.4V849.9c0-22.8,6.6-40.9,19.8-54.1c13.2-13.2,31.2-19.8,54.1-19.8H2125.3z"/>
			
				<linearGradient id="SVGID_2_" gradientUnits="userSpaceOnUse" x1="2254.7034" y1="-7656.7275" x2="2797.7834" y2="-7656.7275" gradientTransform="matrix(1 0 0 1 0 8762.127)">
				<stop  offset="0" style="stop-color:#8FFFFF"/>
				<stop  offset="1" style="stop-color:#0084FF"/>
			</linearGradient>
			<path class="st1" d="M2525.7,1443.4c-42.9,0-81.1-5.9-114.6-17.7c-33.6-11.8-61.9-28.6-85.1-50.3c-23.2-21.8-41.3-48.5-53-78.2
				c-12.1-30.3-18.2-64.4-18.2-102.3V776c5.7-1.4,14.8-3.2,27.3-5.4c12.2-2.1,24.6-3.2,36.9-3.2c25.7,0,44.5,4.6,56.2,13.9
				s17.7,26.4,17.7,51.4v356.7c0,45,12.5,79.5,37.5,103.4c25,23.9,56.8,35.9,95.4,35.9c38.6,0,70.3-12,95.3-35.9
				c25-23.9,37.5-58.4,37.5-103.4V776c6.4-1.4,15.7-3.2,27.9-5.4c12-2.1,24.2-3.2,36.4-3.2c25.7,0,44.6,4.6,56.8,13.9
				s18.2,26.4,18.2,51.4v362.1c0,37.9-6.1,72-18.2,102.3c-11.8,29.8-30.1,56.5-53.6,78.2c-23.6,21.8-52.1,38.6-85.7,50.3
				C2606.8,1437.5,2568.5,1443.4,2525.7,1443.4z"/>
			
				<linearGradient id="SVGID_3_" gradientUnits="userSpaceOnUse" x1="2922.7429" y1="-7662.0771" x2="3434.7927" y2="-7662.0771" gradientTransform="matrix(1 0 0 1 0 8762.127)">
				<stop  offset="0" style="stop-color:#8FFFFF"/>
				<stop  offset="1" style="stop-color:#0084FF"/>
			</linearGradient>
			<path class="st2" d="M2931.3,1396.2c-5.7-12.1-8.6-25.7-8.6-40.7c0.1-14.5,3.5-28.8,10.2-41.8c7.1-14,15.5-27.3,25.2-39.7
				l299.9-384.5h-311.7c-4.1-7.5-7.5-15.4-10.2-23.6c-3.2-9.3-4.8-20-4.8-32.1c0-20,4.5-35,13.4-45c8.9-10,21.6-15,38-15H3393
				c22.9,19.3,34.3,43.6,34.3,72.8c0,14.1-3.1,28-9.1,40.7c-6.6,13.7-14.7,26.6-24.1,38.6l-301,385.6h325.6
				c4.1,7.6,7.7,15.5,10.7,23.6c3.6,9.3,5.4,20,5.4,32.1c0,20-4.5,34.8-13.4,44.5s-21.3,14.5-37,14.5h-430.6
				C2944.2,1418,2936.5,1407.8,2931.3,1396.2z"/>
			
				<linearGradient id="SVGID_4_" gradientUnits="userSpaceOnUse" x1="3558.7332" y1="-7661.5469" x2="3697.9932" y2="-7661.5469" gradientTransform="matrix(1 0 0 1 0 8762.127)">
				<stop  offset="0" style="stop-color:#8FFFFF"/>
				<stop  offset="1" style="stop-color:#0084FF"/>
			</linearGradient>
			<path class="st3" d="M3633.7,1433.7c-27.1,0-46.4-5-57.9-15s-17.1-26.8-17.1-50.3V776c6.4-1.4,15.7-3.2,27.9-5.4
				c12-2.1,24.2-3.2,36.4-3.2c25.7,0,44.6,4.6,56.8,13.9s18.2,26.4,18.2,51.4v592.4c-6.4,1.4-15.5,3.2-27.3,5.3
				C3658.5,1432.7,3646.1,1433.8,3633.7,1433.7z"/>
			
				<linearGradient id="SVGID_5_" gradientUnits="userSpaceOnUse" x1="3825.4233" y1="-7662.5371" x2="4478.7734" y2="-7662.5371" gradientTransform="matrix(1 0 0 1 0 8762.127)">
				<stop  offset="0" style="stop-color:#8FFFFF"/>
				<stop  offset="1" style="stop-color:#0084FF"/>
			</linearGradient>
			<path class="st4" d="M4478.8,1099.6c0,55.7-8.2,105-24.6,147.8c-16.4,42.8-39.1,78.7-68,107.7c-28.9,28.9-63.4,50.7-103.4,65.3
				c-40,14.6-83.2,22-129.6,22c-38.6,0-75-5.4-109.3-16.1c-34.3-10.7-65-26.4-92.1-47.1l-61,64.3c-20.7-5-36.8-12.7-48.2-23
				c-11.4-10.3-17.1-22.6-17.1-36.9c0.1-10.3,3-20.3,8.6-28.9c5.7-9.3,15-20,27.9-32.1l19.3-19.3c-17.2-27.1-30.4-57.7-39.6-91.6
				c-9.3-33.9-13.9-71.3-13.9-112c0-55.7,8.4-104.8,25.2-147.3c16.8-42.5,39.8-78.2,69.1-107.1c29.3-28.9,63.7-50.7,103.4-65.3
				c39.6-14.6,82.3-22,128-22c35.4-0.2,70.6,5.1,104.4,15.5c32.5,10,63.1,25.4,90.5,45.5l60-63.2c19.3,5,35,12.7,47.1,23
				c12.1,10.3,18.2,22,18.1,34.9c0,10-3.4,20-10.2,30c-6.8,10-15.9,20.7-27.3,32.1l-16.1,17.1c18.5,27.1,33,58,43.4,92.7
				C4473.6,1020.1,4478.8,1058.1,4478.8,1099.6z M3967.8,1099.6c0,40.7,5.4,76.1,16.1,106.1l277.4-298.9
				c-30-23.6-66.1-35.4-108.2-35.3c-55,0-99.6,19.3-133.9,57.8C3984.9,967.8,3967.8,1024.6,3967.8,1099.6L3967.8,1099.6z
				 M4339.5,1099.6c0-40.7-6.1-77.1-18.2-109.3l-280.7,299.9c30.7,25,68.2,37.5,112.5,37.5c27.9,0,53.2-4.8,76-14.5
				c22.8-9.6,43-24.5,58.9-43.4c16.4-19.3,29.1-43.2,38-71.8C4335,1169.5,4339.5,1136.7,4339.5,1099.6L4339.5,1099.6z"/>
		</g>
	</g>
	<g>
		
			<linearGradient id="SVGID_6_" gradientUnits="userSpaceOnUse" x1="1048.7147" y1="1535.6863" x2="1249.0156" y2="1535.6863" gradientTransform="matrix(1 0 0 -1 0 2197.3228)">
			<stop  offset="0" style="stop-color:#8FFFFF"/>
			<stop  offset="1" style="stop-color:#0084FF"/>
		</linearGradient>
		<path class="st5" d="M1140.6,653.1c6.9,2.7,9.8,6.5,11.4,14.2c6.1,30,41.9,51,71.6,43.1c23.4-6.2,32-28,20.2-49.9
			c-10.1-18.7-28.8-25.5-46.2-34.3c-43.3-20.4-96.4-14.3-147.1-13.8l-1.7,3.3L1140.6,653.1z"/>
		<g>
			
				<linearGradient id="SVGID_7_" gradientUnits="userSpaceOnUse" x1="931.488" y1="1329.9745" x2="1566.3749" y2="1329.9745" gradientTransform="matrix(1 0 0 -1 0 2197.3228)">
				<stop  offset="0" style="stop-color:#8FFFFF"/>
				<stop  offset="1" style="stop-color:#0084FF"/>
			</linearGradient>
			<path class="st6" d="M1522.7,1105.6c-6.9,1.7-13,8.2-20.2,6.3c-22.9-5.8-45.5-12.6-68.9-19.3c1.9-2.8,2.3-3.8,3-4.4
				c14.8-12,29.7-23.7,44.3-35.9c5.2-4.7,12-7.4,19.1-7.3c20.6,0,37.4-16.4,37.9-37c0.6-19.6-14-36.5-34-39.4
				c-19.5-2.7-37,9.6-42.5,29.9c-1,3.9-0.5,8.2-4.2,11.2c-16.6,13.2-33.1,26.6-52.1,41.9c2.3-16.2,2.6-27.9,12.9-38.5
				c13.1-13.5,10.6-35.4-2.2-49.1c-12.3-13.4-32.4-16.2-47.9-6.7c-16.2,9.7-25,30.6-15.6,46.6c12,20.6,4.7,40,2.7,61.4
				c-52.7-22.2-102.2-46.6-147.8-78.7c-27.7-16.7-52.6-37.2-77.4-57.8c-6.8-5.7-5.8-8.8,0.5-13.8c22.4-18,48.1-29.2,75.4-36.5
				c39.1-10.5,79.2-15.8,119.4-20.3c21.2-5.6,42.8-9.1,63.3-17.6c57.7-24.1,78.9-89.4,42.6-138.1c-36-48.5-79.1-89.9-130-122.8
				c-66.7-45.9-140.3-75.4-220.3-86.6c-69.8-9.7-113.8,20.8-136,88c-7.7,23.1-11.1,46.9-13.2,71c1,26.1,1.2,52.5,8.6,77.8
				c2.8,9.7,15.1,96.2,160.2,236.6c23.5,18.9,47.3,37.3,71.1,55.8c49.1,30.7,98.3,62.4,153.1,81.3c29.9,10.3,41.8,26.6,40.4,56
				c-0.4,7.5,2.7,14.9-1.1,22.6c-14.2,28.4-9.6,44.2,16.9,60.2c36.5,7.1,57.6-15.5,49.4-53.1c-15.2-13.5-20.3-30.6-17.8-52.6
				l54.9,16.3c13.6,2.6,25.3,6.8,34.7,18.9c9.9,12.6,25.3,14.5,40.7,8.6c15.3-5.9,24-19.1,23.9-35.8
				C1566.4,1121.3,1550.9,1107.5,1522.7,1105.6z M1093.4,880.3c-6,5.4-9.2,5.1-14.4-0.8c-27.8-31.3-52.3-64.8-71-102.3
				c-2.1-4.3-5.5-10.3-8.7-17.9c-8.4-17-13.4-42.6-15.1-51.7c-8.2-43.6-5.1-85.9,12.2-126.9c11.7-27.7,31.9-41.4,62.5-40.5
				c51.5,1.4,98.5,19.1,144.7,39.4c73.4,32.3,133.8,81.8,183.9,144.3c23.2,29,14.9,60-20.2,73.6c-28,10.9-57.9,13.7-87.3,18.2
				c-41.6,6.3-83.3,12.3-123,27.6C1133.7,852.1,1112,863.8,1093.4,880.3z"/>
			
				<linearGradient id="SVGID_8_" gradientUnits="userSpaceOnUse" x1="607.9067" y1="1146.4352" x2="1302.7556" y2="1146.4352" gradientTransform="matrix(1 0 0 -1 0 2197.3228)">
				<stop  offset="0" style="stop-color:#8FFFFF"/>
				<stop  offset="1" style="stop-color:#0084FF"/>
			</linearGradient>
			<path class="st7" d="M1243.2,1117.3c-79.8-51.2-168.6,3.2-188.7,73.8c-17.7,62.3,45.1,124.1,109.5,109.4
				c56.8-12.9,78.4-75.3,42-120.6c-8.9-11.1-19.3-13-31.2-6.5c-15.5,8.4-17.8,22.5-5.9,36.9c8.8,10.7,10.9,22.1,3.8,34.2
				c-7.3,12.4-19.3,14.7-32.3,12.2c-31.3-6.1-47-37.5-33.4-66.6c24.3-52.1,95.4-60,130.4-14.3c23,29.9,23,68.6-0.1,105.2
				c-21.4,34-53,54.9-89.6,69.9c-96.2,39.4-192.4,42.1-288.7,1c-118.2-53-185.9-143.7-200.6-272.2
				c-12.7-110.4,21.2-205.6,99.9-284.4c30.8-31.1,68-55.2,109-70.7c14-5.3,20.1-11.6,16.5-26.3c-0.7-2.9-0.1-6.1-0.1-9.2
				c-4.6-20.3-4.6-20.5-24.5-12.9c-98,37.4-169.6,103.4-215,198c-28.6,59.5-38.2,122.8-36,188.3c2.2,27.6,5.7,54.9,13,81.7
				c17.6,64.9,49.1,121.7,96.4,169.9c15.6,15.9,33,29.6,49.3,44.6c5.2-0.8,8.6,2.8,12.4,5.2c140.4,85.5,283.2,87.4,427.6,10.9
				c38.1-20.2,65.1-51.7,82.9-90.5C1318.3,1222,1298.6,1152.8,1243.2,1117.3z"/>
		</g>
	</g>
</g>
</svg>
