<svg width="970" height="852" viewBox="0 0 970 852" fill="none" xmlns="http://www.w3.org/2000/svg">
<path d="M459.736 0C205.815 0 0 196.277 0 438.419C0 629.43 128.12 791.898 306.906 852C214.813 810.777 142.378 733.492 107.562 638.056C71.0853 579.651 50.0781 511.373 50.0781 438.453C50.0781 222.708 233.467 47.8048 459.736 47.8048C686.005 47.8048 869.359 222.674 869.359 438.419C869.359 511.373 848.387 579.616 811.875 638.021C777.059 733.458 704.624 810.777 612.531 851.965C791.283 791.898 919.437 629.43 919.437 438.384C919.472 196.277 713.622 0 459.736 0Z" fill="url(#paint0_radial_148_86)"/>
<path d="M115.834 359.991C109.881 342.567 106.732 324.415 106.732 305.743C106.732 173.587 264.788 66.4416 459.736 66.4416C654.684 66.4416 812.74 173.587 812.74 305.743C812.74 324.415 809.591 342.567 803.638 359.991C823.503 405.752 834.543 456.259 834.543 509.364C834.543 554.571 826.549 597.907 811.91 638.056C848.387 579.651 869.394 511.373 869.394 438.453C869.394 222.708 686.005 47.8047 459.736 47.8047C233.467 47.8047 50.0781 222.673 50.0781 438.419C50.0781 511.373 71.0507 579.616 107.562 638.021C92.9231 597.872 84.9286 554.536 84.9286 509.329C84.9286 456.259 95.9687 405.752 115.834 359.991Z" fill="url(#paint1_radial_148_86)"/>
<path d="M115.834 359.991C109.881 342.567 106.732 324.415 106.732 305.743C106.732 173.587 264.788 66.4416 459.736 66.4416C654.684 66.4416 812.74 173.587 812.74 305.743C812.74 324.415 809.591 342.567 803.638 359.991C823.503 405.752 834.543 456.259 834.543 509.364C834.543 554.571 826.549 597.907 811.91 638.056C848.387 579.651 869.394 511.373 869.394 438.453C869.394 222.708 686.005 47.8047 459.736 47.8047C233.467 47.8047 50.0781 222.673 50.0781 438.419C50.0781 511.373 71.0507 579.616 107.562 638.021C92.9231 597.872 84.9286 554.536 84.9286 509.329C84.9286 456.259 95.9687 405.752 115.834 359.991Z" fill="url(#paint2_linear_148_86)"/>
<path d="M459.736 66.4414C264.788 66.4414 106.732 173.587 106.732 305.743C106.732 324.414 109.881 342.566 115.834 359.991C173.526 227.142 305.764 134.2 459.736 134.2C613.708 134.2 745.946 227.142 803.638 359.991C809.591 342.566 812.74 324.414 812.74 305.743C812.74 173.587 654.684 66.4414 459.736 66.4414Z" fill="url(#paint3_radial_148_86)"/>
<path d="M459.736 66.4414C264.788 66.4414 106.732 173.587 106.732 305.743C106.732 324.414 109.881 342.566 115.834 359.991C173.526 227.142 305.764 134.2 459.736 134.2C613.708 134.2 745.946 227.142 803.638 359.991C809.591 342.566 812.74 324.414 812.74 305.743C812.74 173.587 654.684 66.4414 459.736 66.4414Z" fill="url(#paint4_linear_148_86)"/>
<path d="M459.736 66.4414C264.788 66.4414 106.732 173.587 106.732 305.743C106.732 324.414 109.881 342.566 115.834 359.991C173.526 227.142 305.764 134.2 459.736 134.2C613.708 134.2 745.946 227.142 803.638 359.991C809.591 342.566 812.74 324.414 812.74 305.743C812.74 173.587 654.684 66.4414 459.736 66.4414Z" fill="url(#paint5_linear_148_86)"/>
<path opacity="0.4" d="M638.384 529.594H281.054C274.27 529.594 268.802 524.086 268.802 517.331C268.802 510.542 274.305 505.068 281.054 505.068H638.384C645.167 505.068 650.635 510.576 650.635 517.331C650.635 524.086 645.167 529.594 638.384 529.594Z" fill="url(#paint6_linear_148_86)"/>
<path d="M275.678 526C273.644 526 272 522.185 272 517.5C272 512.815 273.644 509 275.678 509H425.322C427.356 509 429 512.815 429 517.5C429 522.185 427.356 526 425.322 526H275.678Z" fill="url(#paint7_linear_148_86)"/>
<path d="M308.481 449V404.9H319.254V439.487H338.91V449H308.481ZM365.8 449.63C362.482 449.63 359.416 449.063 356.602 447.929C353.83 446.795 351.415 445.22 349.357 443.204C347.341 441.146 345.766 438.731 344.632 435.959C343.498 433.145 342.931 430.079 342.931 426.761C342.931 423.485 343.498 420.461 344.632 417.689C345.766 414.875 347.341 412.439 349.357 410.381C351.415 408.323 353.83 406.727 356.602 405.593C359.416 404.459 362.482 403.892 365.8 403.892C369.076 403.892 372.1 404.459 374.872 405.593C377.644 406.727 380.038 408.323 382.054 410.381C384.112 412.439 385.708 414.875 386.842 417.689C387.976 420.461 388.543 423.506 388.543 426.824C388.543 430.1 387.976 433.124 386.842 435.896C385.708 438.668 384.112 441.083 382.054 443.141C380.038 445.199 377.644 446.795 374.872 447.929C372.1 449.063 369.076 449.63 365.8 449.63ZM365.8 439.487C367.522 439.487 369.097 439.172 370.525 438.542C371.953 437.912 373.192 437.03 374.242 435.896C375.334 434.762 376.174 433.418 376.762 431.864C377.35 430.31 377.644 428.63 377.644 426.824C377.644 424.976 377.35 423.275 376.762 421.721C376.174 420.167 375.334 418.823 374.242 417.689C373.192 416.513 371.953 415.61 370.525 414.98C369.097 414.35 367.522 414.035 365.8 414.035C364.078 414.035 362.482 414.35 361.012 414.98C359.584 415.61 358.324 416.513 357.232 417.689C356.182 418.823 355.363 420.167 354.775 421.721C354.187 423.275 353.893 424.976 353.893 426.824C353.893 429.26 354.397 431.444 355.405 433.376C356.455 435.266 357.862 436.757 359.626 437.849C361.432 438.941 363.49 439.487 365.8 439.487ZM389.994 449L407.445 404.9H416.58L433.905 449H423.069L414.69 426.635C414.396 425.753 414.06 424.808 413.682 423.8C413.346 422.792 413.01 421.742 412.674 420.65C412.338 419.558 412.023 418.508 411.729 417.5C411.435 416.492 411.183 415.547 410.973 414.665L412.8 414.602C412.548 415.652 412.275 416.681 411.981 417.689C411.687 418.697 411.372 419.705 411.036 420.713C410.7 421.721 410.343 422.729 409.965 423.737C409.629 424.703 409.272 425.711 408.894 426.761L400.578 449H389.994ZM398.31 440.558L401.712 432.368H421.872L425.274 440.558H398.31ZM439.403 449V404.9H457.988C461.222 404.9 464.183 405.446 466.871 406.538C469.559 407.588 471.869 409.1 473.801 411.074C475.733 413.006 477.224 415.337 478.274 418.067C479.324 420.755 479.849 423.716 479.849 426.95C479.849 430.226 479.324 433.208 478.274 435.896C477.224 438.584 475.733 440.915 473.801 442.889C471.869 444.821 469.559 446.333 466.871 447.425C464.225 448.475 461.264 449 457.988 449H439.403ZM450.176 441.566L448.79 439.487H457.673C459.395 439.487 460.949 439.193 462.335 438.605C463.721 438.017 464.897 437.177 465.863 436.085C466.871 434.951 467.627 433.628 468.131 432.116C468.677 430.562 468.95 428.84 468.95 426.95C468.95 425.06 468.677 423.359 468.131 421.847C467.627 420.293 466.871 418.97 465.863 417.878C464.897 416.744 463.721 415.883 462.335 415.295C460.949 414.707 459.395 414.413 457.673 414.413H448.601L450.176 412.46V441.566ZM486.326 449V439.928H493.76V413.972H486.326V404.9H511.967V413.972H504.533V439.928H511.967V449H486.326ZM522.09 449V404.9H531.729L554.913 436.337L552.834 436.085C552.54 433.733 552.288 431.549 552.078 429.533C551.868 427.475 551.721 425.333 551.637 423.107C551.595 420.881 551.574 418.319 551.574 415.421V404.9H562.032V449H552.267L528.201 416.618L531.288 417.059C531.582 419.621 531.813 421.742 531.981 423.422C532.149 425.102 532.275 426.551 532.359 427.769C532.443 428.945 532.506 430.058 532.548 431.108C532.59 432.116 532.611 433.25 532.611 434.51V449H522.09ZM593.445 449.63C589.917 449.63 586.725 449.063 583.869 447.929C581.055 446.795 578.619 445.199 576.561 443.141C574.503 441.083 572.928 438.668 571.836 435.896C570.744 433.124 570.198 430.1 570.198 426.824C570.198 423.548 570.786 420.524 571.962 417.752C573.138 414.98 574.776 412.565 576.876 410.507C579.018 408.449 581.538 406.853 584.436 405.719C587.376 404.585 590.589 404.018 594.075 404.018C596.469 404.018 598.737 404.333 600.879 404.963C603.063 405.593 605.037 406.454 606.801 407.546C608.607 408.638 610.098 409.877 611.274 411.263L604.659 418.193C603.147 416.765 601.509 415.652 599.745 414.854C598.023 414.014 596.07 413.594 593.886 413.594C592.08 413.594 590.4 413.93 588.846 414.602C587.334 415.232 585.99 416.156 584.814 417.374C583.68 418.55 582.798 419.957 582.168 421.595C581.538 423.191 581.223 424.934 581.223 426.824C581.223 428.714 581.559 430.457 582.231 432.053C582.903 433.649 583.827 435.056 585.003 436.274C586.221 437.45 587.628 438.374 589.224 439.046C590.82 439.718 592.542 440.054 594.39 440.054C595.692 440.054 596.889 439.865 597.981 439.487C599.115 439.067 600.102 438.521 600.942 437.849C601.824 437.135 602.496 436.316 602.958 435.392C603.462 434.426 603.714 433.397 603.714 432.305V430.667L605.1 432.809H593.067V424.304H613.794C613.878 424.766 613.941 425.396 613.983 426.194C614.025 426.992 614.046 427.769 614.046 428.525C614.088 429.239 614.109 429.806 614.109 430.226C614.109 433.082 613.584 435.707 612.534 438.101C611.526 440.453 610.077 442.49 608.187 444.212C606.339 445.934 604.155 447.278 601.635 448.244C599.115 449.168 596.385 449.63 593.445 449.63Z" fill="white"/>
<defs>
<radialGradient id="paint0_radial_148_86" cx="0" cy="0" r="1" gradientUnits="userSpaceOnUse" gradientTransform="translate(459.722 438.4) scale(459.722 438.403)">
<stop offset="0.6641" stop-color="#B3506D"/>
<stop offset="0.684" stop-color="#9E4660" stop-opacity="0.9338"/>
<stop offset="0.7334" stop-color="#6E3143" stop-opacity="0.7689"/>
<stop offset="0.7828" stop-color="#461F2B" stop-opacity="0.6045"/>
<stop offset="0.8311" stop-color="#281218" stop-opacity="0.4435"/>
<stop offset="0.878" stop-color="#12080B" stop-opacity="0.287"/>
<stop offset="0.9231" stop-color="#040203" stop-opacity="0.1368"/>
<stop offset="0.9641" stop-opacity="0"/>
</radialGradient>
<radialGradient id="paint1_radial_148_86" cx="0" cy="0" r="1" gradientUnits="userSpaceOnUse" gradientTransform="translate(459.722 438.4) scale(459.722 438.403)">
<stop offset="0.6641" stop-color="#B3506D"/>
<stop offset="0.684" stop-color="#9E4660"/>
<stop offset="0.7334" stop-color="#6E3143"/>
<stop offset="0.7828" stop-color="#461F2B"/>
<stop offset="0.8311" stop-color="#281218"/>
<stop offset="0.878" stop-color="#12080B"/>
<stop offset="0.9231" stop-color="#040203"/>
<stop offset="0.9641"/>
</radialGradient>
<linearGradient id="paint2_linear_148_86" x1="50.0827" y1="342.883" x2="869.361" y2="342.883" gradientUnits="userSpaceOnUse">
<stop stop-color="#8FFFFF"/>
<stop offset="1" stop-color="#0084FF"/>
</linearGradient>
<radialGradient id="paint3_radial_148_86" cx="0" cy="0" r="1" gradientUnits="userSpaceOnUse" gradientTransform="translate(459.722 438.4) scale(459.722 438.403)">
<stop offset="0.6641" stop-color="#B3506D"/>
<stop offset="0.684" stop-color="#9E4660"/>
<stop offset="0.7334" stop-color="#6E3143"/>
<stop offset="0.7828" stop-color="#461F2B"/>
<stop offset="0.8311" stop-color="#281218"/>
<stop offset="0.878" stop-color="#12080B"/>
<stop offset="0.9231" stop-color="#040203"/>
<stop offset="0.9641"/>
</radialGradient>
<linearGradient id="paint4_linear_148_86" x1="50.0831" y1="213.2" x2="869.361" y2="213.2" gradientUnits="userSpaceOnUse">
<stop stop-color="#8FFFFF"/>
<stop offset="1" stop-color="#0084FF"/>
</linearGradient>
<linearGradient id="paint5_linear_148_86" x1="106.727" y1="213.207" x2="812.756" y2="213.207" gradientUnits="userSpaceOnUse">
<stop stop-color="#8FFFFF"/>
<stop offset="1" stop-color="#0084FF"/>
</linearGradient>
<linearGradient id="paint6_linear_148_86" x1="268.806" y1="517.308" x2="650.651" y2="517.308" gradientUnits="userSpaceOnUse">
<stop offset="0.28125" stop-color="#2B282F"/>
<stop offset="1" stop-color="#D9D9D9"/>
</linearGradient>
<linearGradient id="paint7_linear_148_86" x1="272.002" y1="517.478" x2="429.016" y2="517.478" gradientUnits="userSpaceOnUse">
<stop stop-color="#8FFFFF"/>
<stop offset="1" stop-color="#0084FF"/>
</linearGradient>
</defs>
</svg>
