<svg id="Livello_1" data-name="Livello 1" xmlns="http://www.w3.org/2000/svg" xmlns:xlink="http://www.w3.org/1999/xlink" viewBox="0 0 2242.58 2199.16"><defs><style>.cls-1{fill:url(#Sfumatura_senza_nome);}.cls-2{fill:url(#Sfumatura_senza_nome-2);}.cls-3{fill:url(#Sfumatura_senza_nome-3);}</style><linearGradient id="Sfumatura_senza_nome" x1="934.78" y1="1039.65" x2="1367.13" y2="1039.65" gradientUnits="userSpaceOnUse"><stop offset="0" stop-color="#8fffff"/><stop offset="1" stop-color="#0084ff"/></linearGradient><linearGradient id="Sfumatura_senza_nome-2" x1="1014.55" y1="903.06" x2="1150.95" y2="903.06" xlink:href="#Sfumatura_senza_nome"/><linearGradient id="Sfumatura_senza_nome-3" x1="714.33" y1="1161.48" x2="1187.54" y2="1161.48" xlink:href="#Sfumatura_senza_nome"/></defs><title>LogoFuzioFuzio</title><path class="cls-1" d="M1337.31,1197.8c-4.7,1.17-8.88,5.42-13.75,4.22-15.59-3.84-31-8.4-46.94-12.81,1.28-1.86,1.56-2.55,2.07-3,10.06-7.94,20.25-15.72,30.17-23.83a19.57,19.57,0,0,1,13-4.83c14.6-.28,25.33-11,25.78-24.57.43-13-9.54-24.27-23.14-26.14-13.25-1.81-25.21,6.35-28.91,19.86-.7,2.58-.31,5.44-2.83,7.41-11.3,8.82-22.54,17.69-35.46,27.85,1.57-10.75,1.76-18.55,8.77-25.58,8.91-8.93,7.25-23.48-1.5-32.59a26.5,26.5,0,0,0-32.62-4.45c-11,6.46-17,20.35-10.64,31,8.16,13.7,3.18,26.53,1.85,40.76-35.9-14.71-69.63-31-100.63-52.24-18.87-11.11-35.84-24.69-52.74-38.4-4.64-3.77-3.93-5.85.33-9.17,15.26-11.94,32.74-19.38,51.38-24.27,26.64-7,53.93-10.48,81.29-13.51,14.41-3.73,29.18-6.07,43.08-11.72,39.3-16,53.71-59.37,29-91.69-24.52-32.13-53.88-59.7-88.56-81.56-45.43-30.47-95.56-50.08-150-57.47-47.52-6.46-77.47,13.83-92.59,58.42-5.21,15.36-7.53,31.14-9,47.11.67,17.36.83,34.83,5.85,51.66,1.93,6.45,10.31,63.89,109.07,157.06,16,12.56,32.24,24.74,48.39,37.06,33.47,20.38,66.91,41.4,104.25,54,20.33,6.84,28.49,17.64,27.51,37.19-.25,5,1.85,9.91-.77,15-9.67,18.84-6.52,29.33,11.52,39.94,24.85,4.74,39.2-10.31,33.63-35.26-10.36-9-13.83-20.34-12.13-34.92l37.36,10.83c9.27,1.69,17.2,4.52,23.66,12.57,6.73,8.37,17.26,9.65,27.71,5.7s16.33-12.72,16.3-23.77C1367.08,1208.21,1356.5,1199,1337.31,1197.8ZM1045,1048.25c-4.11,3.57-6.29,3.35-9.84-.54-18.94-20.76-35.61-43-48.34-68-1.45-2.84-3.72-6.84-5.92-11.91-5.75-11.27-9.12-28.28-10.29-34.34-5.58-29-3.48-57,8.29-84.26,7.94-18.4,21.73-27.47,42.58-26.92,35.08.91,67.11,12.65,98.51,26.13,50,21.48,91.15,54.32,125.2,95.81,15.8,19.26,10.14,39.82-13.78,48.89-19.08,7.24-39.4,9.11-59.43,12.08-28.36,4.19-56.74,8.19-83.74,18.32C1072.39,1029.5,1057.65,1037.24,1045,1048.25Z"/><path class="cls-2" d="M1077.11,897.38c4.71,1.78,6.69,4.35,7.75,9.42,4.17,19.94,28.5,33.89,48.75,28.62,15.91-4.14,21.82-18.59,13.74-33.1-6.9-12.41-19.64-16.92-31.45-22.79-29.46-13.51-65.65-9.47-100.2-9.13l-1.15,2.17Z"/><path class="cls-3" d="M1147,1205.56c-54.37-34-114.81,2.12-128.49,49-12.07,41.35,30.68,82.4,74.6,72.66,38.65-8.57,53.38-50,28.63-80-6.08-7.39-13.12-8.6-21.28-4.31-10.57,5.56-12.11,14.93-4,24.52,6,7.12,7.42,14.69,2.58,22.68-5,8.23-13.13,9.76-22,8.09-21.29-4-32-24.92-22.75-44.2,16.53-34.61,65-39.8,88.83-9.51,15.63,19.87,15.67,45.53-.06,69.85-14.6,22.59-36.12,36.48-61,46.42-65.5,26.18-131,28-196.62.67-80.47-35.16-126.57-95.43-136.64-180.75-8.65-73.29,14.44-136.54,68-188.83A207.62,207.62,0,0,1,891,944.84c9.52-3.48,13.72-7.73,11.22-17.48-.49-1.92-.07-4.06-.06-6.1-3.11-13.48-3.16-13.6-16.67-8.57Q785.41,950,739.06,1044.16c-19.51,39.52-26,81.55-24.51,125,1.51,18.3,3.91,36.47,8.85,54.25,12,43.09,33.41,80.8,65.63,112.83,10.63,10.56,22.46,19.63,33.55,29.59,3.54-.54,5.83,1.84,8.47,3.41,95.63,56.78,192.83,58,291.18,7.26,25.92-13.38,44.3-34.33,56.44-60.12C1198.12,1275.09,1184.72,1229.17,1147,1205.56Z"/></svg>