<svg id="Livello_1" data-name="Livello 1" xmlns="http://www.w3.org/2000/svg" xmlns:xlink="http://www.w3.org/1999/xlink" viewBox="0 0 2242.58 2199.16"><defs><style>.cls-1{fill:url(#Sfumatura_senza_nome);}.cls-2{fill:#fff;}</style><linearGradient id="Sfumatura_senza_nome" x1="112.76" y1="1099.58" x2="2129.81" y2="1099.58" gradientUnits="userSpaceOnUse"><stop offset="0" stop-color="#8fffff"/><stop offset="1" stop-color="#0084ff"/></linearGradient></defs><title>LogoFuzio copia</title><circle class="cls-1" cx="1121.29" cy="1099.58" r="1008.52"/><path class="cls-2" d="M1870.26,1342.48c-11.86,2.94-22.43,13.68-34.72,10.65-39.38-9.71-78.29-21.21-118.55-32.35,3.25-4.71,3.94-6.44,5.22-7.45,25.41-20.06,51.16-39.7,76.21-60.17,9.84-8,19.33-11.94,32.89-12.21,36.88-.71,64-27.88,65.12-62,1.09-32.85-24.1-61.29-58.46-66-33.44-4.58-63.65,16-73,50.14-1.78,6.52-.78,13.75-7.16,18.73-28.52,22.26-56.91,44.66-89.55,70.32,4-27.15,4.45-46.86,22.16-64.6,22.5-22.56,18.3-59.29-3.8-82.29a66.92,66.92,0,0,0-82.38-11.24c-27.72,16.31-42.83,51.37-26.85,78.19,20.61,34.62,8,67,4.66,102.94-90.66-37.15-175.83-78.17-254.12-131.92-47.66-28.06-90.51-62.35-133.18-97-11.73-9.52-9.93-14.76.82-23.17,38.54-30.13,82.69-48.93,129.76-61.28,67.26-17.65,136.2-26.46,205.28-34.11,36.39-9.43,73.69-15.33,108.81-29.6,99.24-40.35,135.61-149.94,73.32-231.57-61.91-81.13-136.08-150.75-223.66-206-114.72-76.95-241.3-126.47-378.71-145.14-120-16.31-195.65,34.93-233.83,147.55-13.15,38.77-19,78.62-22.83,119,1.71,43.84,2.1,88,14.78,130.46,4.87,16.28,26,161.35,275.45,396.62,40.3,31.73,81.4,62.48,122.2,93.6,84.52,51.48,169,104.55,263.27,136.3,51.33,17.28,71.94,44.54,69.47,93.91-.63,12.61,4.65,25-2,37.91-24.41,47.56-16.45,74.07,29.11,100.86,62.74,12,99-26,84.92-89-26.15-22.66-34.91-51.39-30.62-88.21l94.33,27.35c23.41,4.28,43.43,11.44,59.77,31.76,17,21.13,43.58,24.35,70,14.39s41.24-32.12,41.16-60C1945.44,1368.78,1918.73,1345.61,1870.26,1342.48ZM1132,964.8c-10.39,9-15.89,8.46-24.85-1.37-47.83-52.42-89.91-108.56-122.08-171.59-3.65-7.16-9.39-17.26-15-30.06-14.52-28.46-23-71.44-26-86.72-14.11-73.14-8.8-144,20.92-212.81,20.06-46.46,54.89-69.35,107.52-68,88.6,2.31,169.5,32,248.78,66,126.29,54.23,230.19,137.18,316.17,241.94,39.92,48.64,25.61,100.58-34.78,123.49-48.2,18.27-99.51,23-150.09,30.48-71.63,10.6-143.28,20.7-211.48,46.28C1201.25,917.44,1164,937,1132,964.8Z"/><path class="cls-2" d="M1213.17,583.81c11.88,4.48,16.88,11,19.56,23.79,10.54,50.35,72,85.58,123.11,72.28,40.19-10.46,55.1-47,34.7-83.61-17.44-31.32-49.59-42.7-79.42-57.53-74.39-34.13-165.78-23.94-253-23.08l-2.9,5.5Z"/><path class="cls-2" d="M1389.6,1362.07c-137.29-85.89-289.92,5.34-324.48,123.67-30.49,104.42,77.49,208.08,188.4,183.49,97.59-21.63,134.8-126.16,72.31-202.14-15.36-18.67-33.14-21.74-53.74-10.9-26.72,14-30.61,37.71-10.21,61.91,15.17,18,18.74,37.11,6.52,57.29-12.59,20.79-33.16,24.65-55.56,20.42-53.78-10.17-80.7-62.92-57.45-111.61,41.73-87.4,164.18-100.52,224.32-24,39.47,50.2,39.56,115-.15,176.41-36.88,57.05-91.22,92.12-154,117.23-165.42,66.12-330.79,70.65-496.55,1.67-203.21-88.78-319.64-241-345.06-456.45-21.84-185.09,36.48-344.81,171.64-476.85,53.64-52.4,116.48-92.53,187.56-118.51,24-8.8,34.65-19.52,28.34-44.15-1.24-4.85-.17-10.27-.16-15.42-7.85-34-8-34.34-42.08-21.64q-252.71,94.14-369.73,332c-49.29,99.78-65.8,205.94-61.92,315.77,3.82,46.24,9.89,92.11,22.37,137,30.24,108.82,84.36,204,165.73,284.92,26.84,26.68,56.71,49.59,84.72,74.73,8.93-1.36,14.72,4.66,21.4,8.62,241.5,143.4,487,146.58,735.32,18.33,65.46-33.8,111.88-86.7,142.53-151.82C1518.75,1537.65,1484.92,1421.7,1389.6,1362.07Z"/></svg>