<?xml version="1.0" encoding="utf-8"?>
<!-- Generator: Adobe Illustrator 23.1.1, SVG Export Plug-In . SVG Version: 6.00 Build 0)  -->
<svg version="1.1" id="Livello_1" xmlns="http://www.w3.org/2000/svg" xmlns:xlink="http://www.w3.org/1999/xlink" x="0px" y="0px"
	 viewBox="0 0 540.5 407.6" style="enable-background:new 0 0 540.5 407.6;" xml:space="preserve">
<style type="text/css">
	.st0{opacity:0.5;fill:url(#Vector_1_);}
	.st1{fill:#39E3FF;}
	.st2{fill:#00C3FF;}
	.st3{opacity:0.15;}
	.st4{fill:#FFFFFF;}
	.st5{fill:url(#Vector_214_1_);}
	.st6{fill:url(#Vector_215_1_);}
	.st7{fill:url(#Vector_216_1_);}
	.st8{fill:url(#Vector_217_1_);}
	.st9{fill:url(#Vector_218_1_);}
	.st10{fill:url(#Vector_219_1_);}
	.st11{fill:url(#Vector_220_1_);}
	.st12{fill:url(#Vector_221_1_);}
	.st13{fill:url(#Vector_222_1_);}
	.st14{fill:url(#Vector_223_1_);}
	.st15{fill:url(#Vector_224_1_);}
	.st16{fill:url(#Vector_225_1_);}
	.st17{fill:url(#Vector_226_1_);}
	.st18{fill:url(#Vector_227_1_);}
	.st19{fill:url(#Vector_228_1_);}
	.st20{fill:url(#Vector_229_1_);}
	.st21{fill:url(#Vector_230_1_);}
	.st22{fill:url(#Vector_231_1_);}
	.st23{fill:url(#Vector_232_1_);}
</style>
<g>
	<g>
		
			<radialGradient id="Vector_1_" cx="-1849.0728" cy="977.5779" r="0.6502" gradientTransform="matrix(296.0298 0 0 -312.9115 547650.75 306099.5)" gradientUnits="userSpaceOnUse">
			<stop  offset="1.302080e-03" style="stop-color:#22A3FF"/>
			<stop  offset="0.2418" style="stop-color:#176FAE"/>
			<stop  offset="0.4823" style="stop-color:#0D4064"/>
			<stop  offset="0.6815" style="stop-color:#061D2E"/>
			<stop  offset="0.8298" style="stop-color:#02080D"/>
			<stop  offset="0.9106" style="stop-color:#000000"/>
		</radialGradient>
		<path id="Vector" class="st0" d="M462.7,0.7H77.8v406.9h384.9V0.7z"/>
		<path id="Vector_2" class="st1" d="M270.8,385.5c-24.2,0-47.7-4.7-69.8-14c-21.4-9-40.5-21.9-57-38.3
			c-16.5-16.4-29.4-35.5-38.4-56.8c-9.3-22-14.1-45.4-14.1-69.6c0-24.1,4.7-47.5,14.1-69.6c9-21.3,22-40.4,38.4-56.8
			c16.5-16.4,35.6-29.3,57-38.3c22.1-9.3,45.6-14,69.8-14c24.2,0,47.7,4.7,69.8,14c21.4,9,40.5,21.9,57,38.3
			C414,96.8,427,115.9,436,137.2c9.3,22,14.1,45.4,14.1,69.6c0,24.1-4.7,47.5-14.1,69.6c-9,21.3-22,40.4-38.4,56.8
			c-16.5,16.4-35.6,29.3-57,38.3C318.5,380.7,295,385.5,270.8,385.5z M270.8,29.3c-98.2,0-178.1,79.6-178.1,177.4
			c0,97.8,79.9,177.4,178.1,177.4c98.2,0,178.1-79.6,178.1-177.4C448.8,108.9,369,29.3,270.8,29.3z"/>
		<g id="Group">
			<path id="Vector_3" class="st2" d="M270.9,15h-1.2v10h1.2V15z"/>
			<path id="Vector_4" class="st2" d="M365.9,40.4l-5,8.7l1.1,0.6l5-8.7L365.9,40.4z"/>
			<path id="Vector_5" class="st2" d="M436.6,110.3l-8.7,5l0.6,1.1l8.7-5L436.6,110.3z"/>
			<path id="Vector_6" class="st2" d="M462.7,206.2h-10v1.2h10V206.2z"/>
			<path id="Vector_7" class="st2" d="M428.5,297.2l-0.6,1.1l8.7,5l0.6-1.1L428.5,297.2z"/>
			<path id="Vector_8" class="st2" d="M362,363.9l-1.1,0.6l5,8.7l1.1-0.6L362,363.9z"/>
			<path id="Vector_9" class="st2" d="M270.9,388.6h-1.2v10h1.2V388.6z"/>
			<path id="Vector_10" class="st2" d="M178.5,363.9l-5,8.7l1.1,0.6l5-8.7L178.5,363.9z"/>
			<path id="Vector_11" class="st2" d="M111.9,297.1l-8.7,5l0.6,1.1l8.7-5L111.9,297.1z"/>
			<path id="Vector_12" class="st2" d="M87.8,206.2h-10v1.2h10V206.2z"/>
			<path id="Vector_13" class="st2" d="M103.9,110.3l-0.6,1.1l8.7,5l0.6-1.1L103.9,110.3z"/>
			<path id="Vector_14" class="st2" d="M174.5,40.4l-1.1,0.6l5,8.7l1.1-0.6L174.5,40.4z"/>
			<path id="Vector_15" class="st2" d="M276.5,20l-0.2,5.1l0.6,0l0.2-5.1L276.5,20z"/>
			<path id="Vector_16" class="st2" d="M283,20.3l-0.4,5.1l0.6,0l0.4-5.1L283,20.3z"/>
			<path id="Vector_17" class="st2" d="M289.5,20.9l-0.5,5.1l0.6,0.1l0.5-5.1L289.5,20.9z"/>
			<path id="Vector_18" class="st2" d="M296,21.7l-0.7,5.1l0.6,0.1l0.7-5.1L296,21.7z"/>
			<path id="Vector_19" class="st2" d="M302.5,22.7l-0.9,5l0.6,0.1l0.9-5L302.5,22.7z"/>
			<path id="Vector_20" class="st2" d="M308.9,23.9l-1.1,5l0.6,0.1l1.1-5L308.9,23.9z"/>
			<path id="Vector_21" class="st2" d="M315.3,25.3l-1.2,5l0.6,0.1l1.2-5L315.3,25.3z"/>
			<path id="Vector_22" class="st2" d="M321.6,27l-1.4,4.9l0.6,0.2l1.4-4.9L321.6,27z"/>
			<path id="Vector_23" class="st2" d="M327.9,28.9l-1.6,4.9l0.6,0.2l1.6-4.9L327.9,28.9z"/>
			<path id="Vector_24" class="st2" d="M334.1,31l-1.8,4.8l0.6,0.2l1.8-4.8L334.1,31z"/>
			<path id="Vector_25" class="st2" d="M340.2,33.4l-1.9,4.7l0.6,0.2l1.9-4.7L340.2,33.4z"/>
			<path id="Vector_26" class="st2" d="M346.2,35.9l-2.1,4.7l0.6,0.3l2.1-4.7L346.2,35.9z"/>
			<path id="Vector_27" class="st2" d="M352.2,38.6l-2.2,4.6l0.6,0.3l2.2-4.6L352.2,38.6z"/>
			<path id="Vector_28" class="st2" d="M358,41.6l-2.4,4.5l0.5,0.3l2.4-4.5L358,41.6z"/>
			<path id="Vector_29" class="st2" d="M369.3,48.1l-2.7,4.3l0.5,0.3l2.7-4.3L369.3,48.1z"/>
			<path id="Vector_30" class="st2" d="M374.9,51.7l-2.9,4.2l0.5,0.3l2.9-4.2L374.9,51.7z"/>
			<path id="Vector_31" class="st2" d="M380.2,55.4l-3,4.1l0.5,0.4l3-4.1L380.2,55.4z"/>
			<path id="Vector_32" class="st2" d="M385.4,59.3l-3.2,4l0.5,0.4l3.2-4L385.4,59.3z"/>
			<path id="Vector_33" class="st2" d="M390.5,63.4l-3.3,3.9l0.5,0.4l3.3-3.9L390.5,63.4z"/>
			<path id="Vector_34" class="st2" d="M395.5,67.7l-3.4,3.8l0.5,0.4l3.4-3.8L395.5,67.7z"/>
			<path id="Vector_35" class="st2" d="M400.3,72.1l-3.6,3.7l0.4,0.4l3.6-3.7L400.3,72.1z"/>
			<path id="Vector_36" class="st2" d="M404.9,76.7l-3.7,3.5l0.4,0.4l3.7-3.5L404.9,76.7z"/>
			<path id="Vector_37" class="st2" d="M409.4,81.5l-3.8,3.4l0.4,0.5l3.8-3.4L409.4,81.5z"/>
			<path id="Vector_38" class="st2" d="M413.7,86.4l-3.9,3.3l0.4,0.5l3.9-3.3L413.7,86.4z"/>
			<path id="Vector_39" class="st2" d="M417.8,91.4l-4,3.1l0.4,0.5l4-3.1L417.8,91.4z"/>
			<path id="Vector_40" class="st2" d="M421.8,96.6l-4.1,3l0.4,0.5l4.1-3L421.8,96.6z"/>
			<path id="Vector_41" class="st2" d="M425.5,102l-4.2,2.9l0.3,0.5l4.2-2.9L425.5,102z"/>
			<path id="Vector_42" class="st2" d="M429.1,107.5l-4.3,2.7l0.3,0.5l4.3-2.7L429.1,107.5z"/>
			<path id="Vector_43" class="st2" d="M435.7,118.7l-4.5,2.4l0.3,0.5l4.5-2.4L435.7,118.7z"/>
			<path id="Vector_44" class="st2" d="M438.7,124.6l-4.6,2.2l0.3,0.6l4.6-2.2L438.7,124.6z"/>
			<path id="Vector_45" class="st2" d="M441.5,130.5l-4.7,2.1l0.3,0.6l4.7-2.1L441.5,130.5z"/>
			<path id="Vector_46" class="st2" d="M444,136.5l-4.8,1.9l0.2,0.6l4.8-1.9L444,136.5z"/>
			<path id="Vector_47" class="st2" d="M446.4,142.5l-4.8,1.7l0.2,0.6l4.8-1.7L446.4,142.5z"/>
			<path id="Vector_48" class="st2" d="M448.5,148.7l-4.9,1.6l0.2,0.6l4.9-1.6L448.5,148.7z"/>
			<path id="Vector_49" class="st2" d="M450.4,155l-4.9,1.4l0.2,0.6l4.9-1.4L450.4,155z"/>
			<path id="Vector_50" class="st2" d="M452.1,161.2l-5,1.2l0.2,0.6l5-1.2L452.1,161.2z"/>
			<path id="Vector_51" class="st2" d="M453.6,167.6l-5,1.1l0.1,0.6l5-1.1L453.6,167.6z"/>
			<path id="Vector_52" class="st2" d="M454.9,174l-5,0.9l0.1,0.6l5-0.9L454.9,174z"/>
			<path id="Vector_53" class="st2" d="M455.9,180.5l-5.1,0.7l0.1,0.6l5.1-0.7L455.9,180.5z"/>
			<path id="Vector_54" class="st2" d="M456.7,186.9l-5.1,0.5l0.1,0.6l5.1-0.5L456.7,186.9z"/>
			<path id="Vector_55" class="st2" d="M457.3,193.4l-5.1,0.4l0,0.6l5.1-0.4L457.3,193.4z"/>
			<path id="Vector_56" class="st2" d="M457.7,199.9l-5.1,0.2l0,0.6l5.1-0.2L457.7,199.9z"/>
			<path id="Vector_57" class="st2" d="M452.6,212.8l0,0.6l5.1,0.2l0-0.6L452.6,212.8z"/>
			<path id="Vector_58" class="st2" d="M452.2,219.1l0,0.6l5.1,0.4l0-0.6L452.2,219.1z"/>
			<path id="Vector_59" class="st2" d="M451.7,225.5l-0.1,0.6l5.1,0.5l0.1-0.6L451.7,225.5z"/>
			<path id="Vector_60" class="st2" d="M450.9,231.8l-0.1,0.6l5.1,0.7l0.1-0.6L450.9,231.8z"/>
			<path id="Vector_61" class="st2" d="M449.9,238l-0.1,0.6l5,0.9l0.1-0.6L449.9,238z"/>
			<path id="Vector_62" class="st2" d="M448.8,244.2l-0.1,0.6l5,1.1l0.1-0.6L448.8,244.2z"/>
			<path id="Vector_63" class="st2" d="M447.3,250.4l-0.2,0.6l5,1.2l0.2-0.6L447.3,250.4z"/>
			<path id="Vector_64" class="st2" d="M445.7,256.6l-0.2,0.6l4.9,1.4l0.2-0.6L445.7,256.6z"/>
			<path id="Vector_65" class="st2" d="M443.8,262.6l-0.2,0.6l4.9,1.6l0.2-0.6L443.8,262.6z"/>
			<path id="Vector_66" class="st2" d="M441.8,268.7l-0.2,0.6l4.8,1.7l0.2-0.6L441.8,268.7z"/>
			<path id="Vector_67" class="st2" d="M439.5,274.6l-0.2,0.6l4.7,1.9l0.2-0.6L439.5,274.6z"/>
			<path id="Vector_68" class="st2" d="M437,280.4l-0.3,0.6l4.7,2.1l0.3-0.6L437,280.4z"/>
			<path id="Vector_69" class="st2" d="M434.3,286.2l-0.3,0.6l4.6,2.2l0.3-0.6L434.3,286.2z"/>
			<path id="Vector_70" class="st2" d="M431.4,291.9l-0.3,0.5l4.5,2.4l0.3-0.5L431.4,291.9z"/>
			<path id="Vector_71" class="st2" d="M425.1,302.8l-0.3,0.5l4.3,2.7l0.3-0.5L425.1,302.8z"/>
			<path id="Vector_72" class="st2" d="M421.6,308.2l-0.3,0.5l4.2,2.9l0.3-0.5L421.6,308.2z"/>
			<path id="Vector_73" class="st2" d="M418,313.4l-0.4,0.5l4.1,3l0.4-0.5L418,313.4z"/>
			<path id="Vector_74" class="st2" d="M414.2,318.5l-0.4,0.5l4,3.1l0.4-0.5L414.2,318.5z"/>
			<path id="Vector_75" class="st2" d="M410.2,323.4l-0.4,0.5l3.9,3.3l0.4-0.5L410.2,323.4z"/>
			<path id="Vector_76" class="st2" d="M406,328.2l-0.4,0.5l3.8,3.4l0.4-0.5L406,328.2z"/>
			<path id="Vector_77" class="st2" d="M401.7,332.9l-0.4,0.4l3.7,3.5l0.4-0.4L401.7,332.9z"/>
			<path id="Vector_78" class="st2" d="M397.2,337.3l-0.4,0.4l3.6,3.7l0.4-0.4L397.2,337.3z"/>
			<path id="Vector_79" class="st2" d="M392.5,341.7l-0.5,0.4l3.4,3.8l0.5-0.4L392.5,341.7z"/>
			<path id="Vector_80" class="st2" d="M387.7,345.8l-0.5,0.4l3.3,3.9l0.5-0.4L387.7,345.8z"/>
			<path id="Vector_81" class="st2" d="M382.8,349.9l-0.5,0.4l3.2,4l0.5-0.4L382.8,349.9z"/>
			<path id="Vector_82" class="st2" d="M377.7,353.7l-0.5,0.4l3,4.1l0.5-0.4L377.7,353.7z"/>
			<path id="Vector_83" class="st2" d="M372.5,357.3l-0.5,0.3l2.9,4.2l0.5-0.3L372.5,357.3z"/>
			<path id="Vector_84" class="st2" d="M367.2,360.8l-0.5,0.3l2.7,4.3l0.5-0.3L367.2,360.8z"/>
			<path id="Vector_85" class="st2" d="M356.1,367.1l-0.5,0.3l2.4,4.5l0.5-0.3L356.1,367.1z"/>
			<path id="Vector_86" class="st2" d="M350.5,370l-0.6,0.3l2.2,4.6l0.6-0.3L350.5,370z"/>
			<path id="Vector_87" class="st2" d="M344.7,372.7l-0.6,0.3l2.1,4.7l0.6-0.3L344.7,372.7z"/>
			<path id="Vector_88" class="st2" d="M338.9,375.2l-0.6,0.2l1.9,4.7l0.6-0.2L338.9,375.2z"/>
			<path id="Vector_89" class="st2" d="M332.9,377.5l-0.6,0.2l1.8,4.8l0.6-0.2L332.9,377.5z"/>
			<path id="Vector_90" class="st2" d="M326.9,379.6l-0.6,0.2l1.6,4.9l0.6-0.2L326.9,379.6z"/>
			<path id="Vector_91" class="st2" d="M320.8,381.5l-0.6,0.2l1.4,4.9l0.6-0.2L320.8,381.5z"/>
			<path id="Vector_92" class="st2" d="M314.7,383.1l-0.6,0.1l1.2,5l0.6-0.2L314.7,383.1z"/>
			<path id="Vector_93" class="st2" d="M308.5,384.6l-0.6,0.1l1.1,5l0.6-0.1L308.5,384.6z"/>
			<path id="Vector_94" class="st2" d="M302.2,385.8l-0.6,0.1l0.9,5l0.6-0.1L302.2,385.8z"/>
			<path id="Vector_95" class="st2" d="M295.9,386.8l-0.6,0.1l0.7,5.1l0.6-0.1L295.9,386.8z"/>
			<path id="Vector_96" class="st2" d="M289.6,387.5l-0.6,0.1l0.5,5.1l0.6-0.1L289.6,387.5z"/>
			<path id="Vector_97" class="st2" d="M283.3,388.1l-0.6,0l0.4,5.1l0.6,0L283.3,388.1z"/>
			<path id="Vector_98" class="st2" d="M276.9,388.5l-0.6,0l0.2,5.1l0.6,0L276.9,388.5z"/>
			<path id="Vector_99" class="st2" d="M263.6,388.5l-0.2,5.1l0.6,0l0.2-5.1L263.6,388.5z"/>
			<path id="Vector_100" class="st2" d="M257.2,388.1l-0.4,5.1l0.6,0l0.4-5.1L257.2,388.1z"/>
			<path id="Vector_101" class="st2" d="M250.8,387.5l-0.5,5.1l0.6,0.1l0.5-5.1L250.8,387.5z"/>
			<path id="Vector_102" class="st2" d="M244.5,386.8l-0.7,5.1l0.6,0.1l0.7-5.1L244.5,386.8z"/>
			<path id="Vector_103" class="st2" d="M238.3,385.8l-0.9,5l0.6,0.1l0.9-5L238.3,385.8z"/>
			<path id="Vector_104" class="st2" d="M232,384.6l-1.1,5l0.6,0.1l1.1-5L232,384.6z"/>
			<path id="Vector_105" class="st2" d="M225.8,383.1l-1.2,5l0.6,0.2l1.2-5L225.8,383.1z"/>
			<path id="Vector_106" class="st2" d="M219.6,381.5l-1.4,4.9l0.6,0.2l1.4-4.9L219.6,381.5z"/>
			<path id="Vector_107" class="st2" d="M213.6,379.6l-1.6,4.9l0.6,0.2l1.6-4.9L213.6,379.6z"/>
			<path id="Vector_108" class="st2" d="M207.6,377.5l-1.8,4.8l0.6,0.2l1.8-4.8L207.6,377.5z"/>
			<path id="Vector_109" class="st2" d="M201.6,375.2l-1.9,4.7l0.6,0.2l1.9-4.7L201.6,375.2z"/>
			<path id="Vector_110" class="st2" d="M195.8,372.7l-2.1,4.7l0.6,0.3l2.1-4.7L195.8,372.7z"/>
			<path id="Vector_111" class="st2" d="M190,370l-2.2,4.6l0.6,0.3l2.2-4.6L190,370z"/>
			<path id="Vector_112" class="st2" d="M184.3,367.2l-2.4,4.5l0.5,0.3l2.4-4.5L184.3,367.2z"/>
			<path id="Vector_113" class="st2" d="M173.3,360.8l-2.7,4.3l0.5,0.3l2.7-4.3L173.3,360.8z"/>
			<path id="Vector_114" class="st2" d="M167.9,357.3l-2.9,4.2l0.5,0.3l2.9-4.2L167.9,357.3z"/>
			<path id="Vector_115" class="st2" d="M162.7,353.7l-3,4.1l0.5,0.4l3-4.1L162.7,353.7z"/>
			<path id="Vector_116" class="st2" d="M157.7,349.9l-3.2,4l0.5,0.4l3.2-4L157.7,349.9z"/>
			<path id="Vector_117" class="st2" d="M152.7,345.8l-3.3,3.9l0.5,0.4l3.3-3.9L152.7,345.8z"/>
			<path id="Vector_118" class="st2" d="M147.9,341.7l-3.4,3.8l0.5,0.4l3.4-3.8L147.9,341.7z"/>
			<path id="Vector_119" class="st2" d="M143.3,337.3l-3.6,3.7l0.4,0.4l3.6-3.7L143.3,337.3z"/>
			<path id="Vector_120" class="st2" d="M138.8,332.8l-3.7,3.5l0.4,0.4l3.7-3.5L138.8,332.8z"/>
			<path id="Vector_121" class="st2" d="M134.5,328.2l-3.8,3.4l0.4,0.5l3.8-3.4L134.5,328.2z"/>
			<path id="Vector_122" class="st2" d="M130.3,323.4l-3.9,3.3l0.4,0.5l3.9-3.3L130.3,323.4z"/>
			<path id="Vector_123" class="st2" d="M126.3,318.5l-4,3.1l0.4,0.5l4-3.1L126.3,318.5z"/>
			<path id="Vector_124" class="st2" d="M122.5,313.4l-4.1,3l0.4,0.5l4.1-3L122.5,313.4z"/>
			<path id="Vector_125" class="st2" d="M118.8,308.2l-4.2,2.9l0.3,0.5l4.2-2.9L118.8,308.2z"/>
			<path id="Vector_126" class="st2" d="M115.4,302.8l-4.3,2.7l0.3,0.5l4.3-2.7L115.4,302.8z"/>
			<path id="Vector_127" class="st2" d="M109,291.9l-4.5,2.4l0.3,0.5l4.5-2.4L109,291.9z"/>
			<path id="Vector_128" class="st2" d="M106.1,286.2l-4.6,2.2l0.3,0.6l4.6-2.2L106.1,286.2z"/>
			<path id="Vector_129" class="st2" d="M103.4,280.4l-4.7,2.1l0.3,0.6l4.7-2.1L103.4,280.4z"/>
			<path id="Vector_130" class="st2" d="M101,274.6l-4.7,1.9l0.2,0.6l4.7-1.9L101,274.6z"/>
			<path id="Vector_131" class="st2" d="M98.7,268.7l-4.8,1.7l0.2,0.6l4.8-1.7L98.7,268.7z"/>
			<path id="Vector_132" class="st2" d="M96.6,262.7l-4.9,1.6l0.2,0.6l4.9-1.6L96.6,262.7z"/>
			<path id="Vector_133" class="st2" d="M94.8,256.6l-4.9,1.4l0.2,0.6l4.9-1.4L94.8,256.6z"/>
			<path id="Vector_134" class="st2" d="M93.1,250.5l-5,1.2l0.2,0.6l5-1.2L93.1,250.5z"/>
			<path id="Vector_135" class="st2" d="M91.7,244.3l-5,1.1l0.1,0.6l5-1.1L91.7,244.3z"/>
			<path id="Vector_136" class="st2" d="M90.5,238l-5,0.9l0.1,0.6l5-0.9L90.5,238z"/>
			<path id="Vector_137" class="st2" d="M89.5,231.8l-5.1,0.7l0.1,0.6l5.1-0.7L89.5,231.8z"/>
			<path id="Vector_138" class="st2" d="M88.8,225.5l-5.1,0.5l0.1,0.6l5.1-0.5L88.8,225.5z"/>
			<path id="Vector_139" class="st2" d="M88.2,219.2l-5.1,0.4l0,0.6l5.1-0.4L88.2,219.2z"/>
			<path id="Vector_140" class="st2" d="M87.9,212.8l-5.1,0.2l0,0.6l5.1-0.2L87.9,212.8z"/>
			<path id="Vector_141" class="st2" d="M82.8,199.9l0,0.6l5.1,0.2l0-0.6L82.8,199.9z"/>
			<path id="Vector_142" class="st2" d="M83.2,193.4l0,0.6l5.1,0.4l0-0.6L83.2,193.4z"/>
			<path id="Vector_143" class="st2" d="M83.7,186.9l-0.1,0.6l5.1,0.5l0.1-0.6L83.7,186.9z"/>
			<path id="Vector_144" class="st2" d="M84.5,180.5l-0.1,0.6l5.1,0.7l0.1-0.6L84.5,180.5z"/>
			<path id="Vector_145" class="st2" d="M85.6,174l-0.1,0.6l5,0.9l0.1-0.6L85.6,174z"/>
			<path id="Vector_146" class="st2" d="M86.8,167.6l-0.1,0.6l5,1.1l0.1-0.6L86.8,167.6z"/>
			<path id="Vector_147" class="st2" d="M88.3,161.3l-0.2,0.6l5,1.2l0.2-0.6L88.3,161.3z"/>
			<path id="Vector_148" class="st2" d="M90,154.9l-0.2,0.6l4.9,1.4l0.2-0.6L90,154.9z"/>
			<path id="Vector_149" class="st2" d="M92,148.7l-0.2,0.6l4.9,1.6l0.2-0.6L92,148.7z"/>
			<path id="Vector_150" class="st2" d="M94.1,142.6l-0.2,0.6l4.8,1.7l0.2-0.6L94.1,142.6z"/>
			<path id="Vector_151" class="st2" d="M96.4,136.5l-0.2,0.6l4.8,1.9l0.2-0.6L96.4,136.5z"/>
			<path id="Vector_152" class="st2" d="M99,130.5l-0.3,0.6l4.7,2.1l0.3-0.6L99,130.5z"/>
			<path id="Vector_153" class="st2" d="M101.8,124.6l-0.3,0.6l4.6,2.2l0.3-0.6L101.8,124.6z"/>
			<path id="Vector_154" class="st2" d="M104.8,118.8l-0.3,0.5l4.5,2.4l0.3-0.5L104.8,118.8z"/>
			<path id="Vector_155" class="st2" d="M111.3,107.5L111,108l4.3,2.7l0.3-0.5L111.3,107.5z"/>
			<path id="Vector_156" class="st2" d="M114.9,102l-0.3,0.5l4.2,2.9l0.3-0.5L114.9,102z"/>
			<path id="Vector_157" class="st2" d="M118.7,96.7l-0.4,0.5l4.1,3l0.4-0.5L118.7,96.7z"/>
			<path id="Vector_158" class="st2" d="M122.6,91.5l-0.4,0.5l4,3.1l0.4-0.5L122.6,91.5z"/>
			<path id="Vector_159" class="st2" d="M126.8,86.4l-0.4,0.5l3.9,3.3l0.4-0.5L126.8,86.4z"/>
			<path id="Vector_160" class="st2" d="M131,81.5l-0.4,0.5l3.8,3.4l0.4-0.5L131,81.5z"/>
			<path id="Vector_161" class="st2" d="M135.5,76.7l-0.4,0.4l3.7,3.5l0.4-0.4L135.5,76.7z"/>
			<path id="Vector_162" class="st2" d="M140.2,72.1l-0.4,0.4l3.6,3.7l0.4-0.4L140.2,72.1z"/>
			<path id="Vector_163" class="st2" d="M145,67.7l-0.5,0.4l3.4,3.8l0.5-0.4L145,67.7z"/>
			<path id="Vector_164" class="st2" d="M149.9,63.4l-0.5,0.4l3.3,3.9l0.5-0.4L149.9,63.4z"/>
			<path id="Vector_165" class="st2" d="M155,59.3l-0.5,0.4l3.2,4l0.5-0.4L155,59.3z"/>
			<path id="Vector_166" class="st2" d="M160.2,55.4l-0.5,0.4l3,4.1l0.5-0.4L160.2,55.4z"/>
			<path id="Vector_167" class="st2" d="M165.6,51.6l-0.5,0.3l2.9,4.2l0.5-0.3L165.6,51.6z"/>
			<path id="Vector_168" class="st2" d="M171.1,48.1l-0.5,0.3l2.7,4.3l0.5-0.3L171.1,48.1z"/>
			<path id="Vector_169" class="st2" d="M182.4,41.6l-0.5,0.3l2.4,4.5l0.5-0.3L182.4,41.6z"/>
			<path id="Vector_170" class="st2" d="M188.3,38.6l-0.6,0.3l2.2,4.6l0.6-0.3L188.3,38.6z"/>
			<path id="Vector_171" class="st2" d="M194.2,35.9l-0.6,0.3l2.1,4.7l0.6-0.3L194.2,35.9z"/>
			<path id="Vector_172" class="st2" d="M200.3,33.4l-0.6,0.2l1.9,4.7l0.6-0.2L200.3,33.4z"/>
			<path id="Vector_173" class="st2" d="M206.4,31l-0.6,0.2l1.8,4.8l0.6-0.2L206.4,31z"/>
			<path id="Vector_174" class="st2" d="M212.6,28.9l-0.6,0.2l1.6,4.9l0.6-0.2L212.6,28.9z"/>
			<path id="Vector_175" class="st2" d="M218.8,27l-0.6,0.2l1.4,4.9l0.6-0.2L218.8,27z"/>
			<path id="Vector_176" class="st2" d="M225.2,25.3l-0.6,0.1l1.2,5l0.6-0.1L225.2,25.3z"/>
			<path id="Vector_177" class="st2" d="M231.5,23.9l-0.6,0.1l1.1,5l0.6-0.1L231.5,23.9z"/>
			<path id="Vector_178" class="st2" d="M238,22.6l-0.6,0.1l0.9,5l0.6-0.1L238,22.6z"/>
			<path id="Vector_179" class="st2" d="M244.4,21.6l-0.6,0.1l0.7,5.1l0.6-0.1L244.4,21.6z"/>
			<path id="Vector_180" class="st2" d="M250.9,20.9l-0.6,0.1l0.5,5.1l0.6-0.1L250.9,20.9z"/>
			<path id="Vector_181" class="st2" d="M257.5,20.3l-0.6,0l0.4,5.1l0.6,0L257.5,20.3z"/>
			<path id="Vector_182" class="st2" d="M264,20l-0.6,0l0.2,5.1l0.6,0L264,20z"/>
		</g>
		<g id="Group_2" class="st3">
			<path id="Vector_183" class="st4" d="M450.3,385.9H90.8V27.6h359.5V385.9z M91.4,385.4h358.4V28.2H91.4V385.4z"/>
			<path id="Vector_184" class="st4" d="M450.1,363h-359v0.6h359V363z"/>
			<path id="Vector_185" class="st4" d="M450.1,340.6h-359v0.6h359V340.6z"/>
			<path id="Vector_186" class="st4" d="M450.1,318.3h-359v0.6h359V318.3z"/>
			<path id="Vector_187" class="st4" d="M450.1,295.9h-359v0.6h359V295.9z"/>
			<path id="Vector_188" class="st4" d="M450.1,273.6h-359v0.6h359V273.6z"/>
			<path id="Vector_189" class="st4" d="M450.1,251.2h-359v0.6h359V251.2z"/>
			<path id="Vector_190" class="st4" d="M450.1,228.9h-359v0.6h359V228.9z"/>
			<path id="Vector_191" class="st4" d="M450.1,206.5h-359v0.6h359V206.5z"/>
			<path id="Vector_192" class="st4" d="M450.1,184.1h-359v0.6h359V184.1z"/>
			<path id="Vector_193" class="st4" d="M450.1,161.8h-359v0.6h359V161.8z"/>
			<path id="Vector_194" class="st4" d="M450.1,139.4h-359v0.6h359V139.4z"/>
			<path id="Vector_195" class="st4" d="M450.1,117.1h-359v0.6h359V117.1z"/>
			<path id="Vector_196" class="st4" d="M450.1,94.7h-359v0.6h359V94.7z"/>
			<path id="Vector_197" class="st4" d="M450.1,72.3h-359v0.6h359V72.3z"/>
			<path id="Vector_198" class="st4" d="M450.1,50h-359v0.6h359V50z"/>
			<path id="Vector_199" class="st4" d="M427.9,27.9h-0.6v357.7h0.6V27.9z"/>
			<path id="Vector_200" class="st4" d="M405.5,27.9h-0.6v357.7h0.6V27.9z"/>
			<path id="Vector_201" class="st4" d="M383,27.9h-0.6v357.7h0.6V27.9z"/>
			<path id="Vector_202" class="st4" d="M360.6,27.9H360v357.7h0.6V27.9z"/>
			<path id="Vector_203" class="st4" d="M338.2,27.9h-0.6v357.7h0.6V27.9z"/>
			<path id="Vector_204" class="st4" d="M315.7,27.9h-0.6v357.7h0.6V27.9z"/>
			<path id="Vector_205" class="st4" d="M293.3,27.9h-0.6v357.7h0.6V27.9z"/>
			<path id="Vector_206" class="st4" d="M270.9,27.9h-0.6v357.7h0.6V27.9z"/>
			<path id="Vector_207" class="st4" d="M248.4,27.9h-0.6v357.7h0.6V27.9z"/>
			<path id="Vector_208" class="st4" d="M226,27.9h-0.6v357.7h0.6V27.9z"/>
			<path id="Vector_209" class="st4" d="M203.5,27.9H203v357.7h0.6V27.9z"/>
			<path id="Vector_210" class="st4" d="M181.1,27.9h-0.6v357.7h0.6V27.9z"/>
			<path id="Vector_211" class="st4" d="M158.7,27.9h-0.6v357.7h0.6V27.9z"/>
			<path id="Vector_212" class="st4" d="M136.2,27.9h-0.6v357.7h0.6V27.9z"/>
			<path id="Vector_213" class="st4" d="M113.8,27.9h-0.6v357.7h0.6V27.9z"/>
		</g>
		<g id="Group_3">
			<g id="Group_4">
				
					<radialGradient id="Vector_214_1_" cx="269.5471" cy="206.7729" r="176.4505" gradientTransform="matrix(1.0035 0 0 1 0 0)" gradientUnits="userSpaceOnUse">
					<stop  offset="0" style="stop-color:#00FFFF"/>
					<stop  offset="0.2408" style="stop-color:#00AEAE"/>
					<stop  offset="0.4817" style="stop-color:#006464"/>
					<stop  offset="0.6812" style="stop-color:#002E2E"/>
					<stop  offset="0.8297" style="stop-color:#000D0D"/>
					<stop  offset="0.9106" style="stop-color:#000000"/>
				</radialGradient>
				<path id="Vector_214" class="st5" d="M270.5,383.2c-23.9,0-47.1-4.7-69-13.9c-21.1-8.9-40-21.6-56.3-37.8
					c-16.3-16.2-29-35.1-37.9-56.1c-9.2-21.8-13.9-44.9-13.9-68.7c0-23.8,4.7-47,13.9-68.7c8.9-21,21.7-39.9,37.9-56.1
					c16.3-16.2,35.2-28.9,56.3-37.8c21.8-9.2,45-13.9,69-13.9s47.1,4.7,69,13.9c21.1,8.9,40,21.6,56.3,37.8
					c16.3,16.2,29,35.1,37.9,56.1c9.2,21.8,13.9,44.9,13.9,68.7c0,23.8-4.7,47-13.9,68.7c-8.9,21-21.7,39.9-37.9,56.1
					c-16.3,16.2-35.2,28.9-56.3,37.8C317.6,378.6,294.4,383.2,270.5,383.2z M270.5,31.6c-96.9,0-175.8,78.6-175.8,175.2
					S173.5,382,270.5,382s175.8-78.6,175.8-175.2S367.4,31.6,270.5,31.6z"/>
				
					<radialGradient id="Vector_215_1_" cx="269.5472" cy="206.7706" r="151.3337" gradientTransform="matrix(1.0035 0 0 1 0 0)" gradientUnits="userSpaceOnUse">
					<stop  offset="0" style="stop-color:#00FFFF"/>
					<stop  offset="0.2408" style="stop-color:#00AEAE"/>
					<stop  offset="0.4817" style="stop-color:#006464"/>
					<stop  offset="0.6812" style="stop-color:#002E2E"/>
					<stop  offset="0.8297" style="stop-color:#000D0D"/>
					<stop  offset="0.9106" style="stop-color:#000000"/>
				</radialGradient>
				<path id="Vector_215" class="st6" d="M270.5,358.1c-20.5,0-40.4-4-59.1-11.9c-18.1-7.6-34.3-18.5-48.3-32.4
					c-13.9-13.9-24.9-30.1-32.5-48.1c-7.9-18.7-11.9-38.5-11.9-58.9s4-40.3,11.9-58.9c7.6-18,18.6-34.2,32.5-48.1
					c13.9-13.9,30.2-24.8,48.3-32.4c18.7-7.9,38.6-11.9,59.1-11.9s40.4,4,59.1,11.9c18.1,7.6,34.3,18.5,48.3,32.4
					c13.9,13.9,24.9,30.1,32.5,48.1c7.9,18.7,11.9,38.5,11.9,58.9s-4,40.3-11.9,58.9c-7.6,18-18.6,34.2-32.5,48.1
					s-30.2,24.8-48.3,32.4C310.9,354.1,291,358.1,270.5,358.1z M270.5,56.7c-83,0-150.6,67.3-150.6,150.1s67.6,150.1,150.6,150.1
					s150.6-67.3,150.6-150.1S353.5,56.7,270.5,56.7z"/>
				
					<radialGradient id="Vector_216_1_" cx="269.5471" cy="206.7753" r="126.2096" gradientTransform="matrix(1.0035 0 0 1 0 0)" gradientUnits="userSpaceOnUse">
					<stop  offset="0" style="stop-color:#00FFFF"/>
					<stop  offset="0.2408" style="stop-color:#00AEAE"/>
					<stop  offset="0.4817" style="stop-color:#006464"/>
					<stop  offset="0.6812" style="stop-color:#002E2E"/>
					<stop  offset="0.8297" style="stop-color:#000D0D"/>
					<stop  offset="0.9106" style="stop-color:#000000"/>
				</radialGradient>
				<path id="Vector_216" class="st7" d="M270.5,333c-17.1,0-33.7-3.3-49.3-9.9c-15.1-6.4-28.6-15.4-40.3-27
					c-11.6-11.6-20.8-25.1-27.1-40.1c-6.6-15.6-9.9-32.1-9.9-49.2c0-17.1,3.3-33.6,9.9-49.2c6.4-15,15.5-28.5,27.1-40.1
					c11.6-11.6,25.2-20.7,40.3-27c15.6-6.6,32.2-9.9,49.3-9.9c17.1,0,33.7,3.3,49.3,9.9c15.1,6.4,28.6,15.4,40.3,27
					c11.6,11.6,20.8,25.1,27.1,40.1c6.6,15.6,9.9,32.1,9.9,49.2c0,17.1-3.3,33.6-9.9,49.2c-6.4,15-15.5,28.5-27.1,40.1
					c-11.6,11.6-25.2,20.7-40.3,27C304.2,329.7,287.6,333,270.5,333z M270.5,81.8c-69.2,0-125.4,56.1-125.4,125s56.3,125,125.4,125
					s125.4-56.1,125.4-125C395.9,137.9,339.6,81.8,270.5,81.8z"/>
				
					<radialGradient id="Vector_217_1_" cx="269.5471" cy="206.7731" r="101.0929" gradientTransform="matrix(1.0035 0 0 1 0 0)" gradientUnits="userSpaceOnUse">
					<stop  offset="0" style="stop-color:#00FFFF"/>
					<stop  offset="0.2408" style="stop-color:#00AEAE"/>
					<stop  offset="0.4817" style="stop-color:#006464"/>
					<stop  offset="0.6812" style="stop-color:#002E2E"/>
					<stop  offset="0.8297" style="stop-color:#000D0D"/>
					<stop  offset="0.9106" style="stop-color:#000000"/>
				</radialGradient>
				<path id="Vector_217" class="st8" d="M270.5,307.9c-13.7,0-27-2.7-39.5-7.9c-12.1-5.1-22.9-12.4-32.2-21.7
					c-9.3-9.3-16.6-20.1-21.7-32.1c-5.3-12.5-8-25.7-8-39.4s2.7-26.9,8-39.4c5.1-12,12.4-22.9,21.7-32.1s20.2-16.6,32.2-21.7
					c12.5-5.3,25.8-7.9,39.5-7.9s27,2.7,39.5,7.9c12.1,5.1,22.9,12.4,32.2,21.7c9.3,9.3,16.6,20.1,21.7,32.1c5.3,12.5,8,25.7,8,39.4
					s-2.7,26.9-8,39.4c-5.1,12-12.4,22.9-21.7,32.1c-9.3,9.3-20.2,16.6-32.2,21.7C297.5,305.2,284.2,307.9,270.5,307.9z
					 M270.5,106.9c-55.3,0-100.2,44.8-100.2,99.9c0,55.1,45,99.9,100.2,99.9s100.2-44.8,100.2-99.9
					C370.7,151.7,325.7,106.9,270.5,106.9z"/>
				
					<radialGradient id="Vector_218_1_" cx="269.5471" cy="206.7727" r="75.9739" gradientTransform="matrix(1.0035 0 0 1 0 0)" gradientUnits="userSpaceOnUse">
					<stop  offset="0" style="stop-color:#00FFFF"/>
					<stop  offset="0.2408" style="stop-color:#00AEAE"/>
					<stop  offset="0.4817" style="stop-color:#006464"/>
					<stop  offset="0.6812" style="stop-color:#002E2E"/>
					<stop  offset="0.8297" style="stop-color:#000D0D"/>
					<stop  offset="0.9106" style="stop-color:#000000"/>
				</radialGradient>
				<path id="Vector_218" class="st9" d="M270.5,282.7c-10.3,0-20.3-2-29.7-6c-9.1-3.8-17.2-9.3-24.2-16.3c-7-7-12.5-15.1-16.3-24.1
					c-4-9.4-6-19.3-6-29.6c0-10.3,2-20.2,6-29.6c3.8-9,9.3-17.2,16.3-24.1c7-7,15.2-12.5,24.2-16.3c9.4-4,19.4-6,29.7-6
					c10.3,0,20.3,2,29.7,6c9.1,3.8,17.2,9.3,24.2,16.3c7,7,12.5,15.1,16.3,24.1c4,9.4,6,19.3,6,29.6c0,10.3-2,20.2-6,29.6
					c-3.8,9-9.3,17.2-16.3,24.1c-7,7-15.2,12.5-24.2,16.3C290.8,280.7,280.8,282.7,270.5,282.7z M270.5,132c-41.4,0-75,33.5-75,74.7
					c0,41.2,33.6,74.7,75,74.7s75-33.5,75-74.7C345.5,165.6,311.8,132,270.5,132z"/>
				
					<radialGradient id="Vector_219_1_" cx="269.5468" cy="206.7705" r="50.857" gradientTransform="matrix(1.0035 0 0 1 0 0)" gradientUnits="userSpaceOnUse">
					<stop  offset="0" style="stop-color:#00FFFF"/>
					<stop  offset="0.2408" style="stop-color:#00AEAE"/>
					<stop  offset="0.4817" style="stop-color:#006464"/>
					<stop  offset="0.6812" style="stop-color:#002E2E"/>
					<stop  offset="0.8297" style="stop-color:#000D0D"/>
					<stop  offset="0.9106" style="stop-color:#000000"/>
				</radialGradient>
				<path id="Vector_219" class="st10" d="M270.5,257.6c-13.6,0-26.5-5.3-36.1-14.9c-9.6-9.6-14.9-22.4-14.9-36
					c0-13.6,5.3-26.4,14.9-36c9.6-9.6,22.5-14.9,36.1-14.9s26.5,5.3,36.1,14.9c9.6,9.6,14.9,22.4,14.9,36c0,13.6-5.3,26.4-14.9,36
					C296.9,252.3,284.1,257.6,270.5,257.6z M270.5,157.2c-27.5,0-49.8,22.3-49.8,49.6c0,27.4,22.3,49.6,49.8,49.6
					s49.8-22.3,49.8-49.6C320.3,179.4,297.9,157.2,270.5,157.2z"/>
				
					<radialGradient id="Vector_220_1_" cx="269.5468" cy="206.7705" r="25.7378" gradientTransform="matrix(1.0035 0 0 1 0 0)" gradientUnits="userSpaceOnUse">
					<stop  offset="0" style="stop-color:#00FFFF"/>
					<stop  offset="0.2408" style="stop-color:#00AEAE"/>
					<stop  offset="0.4817" style="stop-color:#006464"/>
					<stop  offset="0.6812" style="stop-color:#002E2E"/>
					<stop  offset="0.8297" style="stop-color:#000D0D"/>
					<stop  offset="0.9106" style="stop-color:#000000"/>
				</radialGradient>
				<path id="Vector_220" class="st11" d="M270.5,232.5c-14.2,0-25.8-11.5-25.8-25.7c0-14.2,11.6-25.7,25.8-25.7
					s25.8,11.5,25.8,25.7C296.3,221,284.7,232.5,270.5,232.5z M270.5,182.3c-13.6,0-24.6,11-24.6,24.5c0,13.5,11,24.5,24.6,24.5
					s24.6-11,24.6-24.5C295.1,193.3,284,182.3,270.5,182.3z"/>
			</g>
			<g id="Group_5">
				
					<radialGradient id="Vector_221_1_" cx="-1835.8757" cy="975.6735" r="0.6502" gradientTransform="matrix(95.9496 0 0 -95.618 176422.1094 93586.6406)" gradientUnits="userSpaceOnUse">
					<stop  offset="0" style="stop-color:#00FFFF"/>
					<stop  offset="0.2408" style="stop-color:#00AEAE"/>
					<stop  offset="0.4817" style="stop-color:#006464"/>
					<stop  offset="0.6812" style="stop-color:#002E2E"/>
					<stop  offset="0.8297" style="stop-color:#000D0D"/>
					<stop  offset="0.9106" style="stop-color:#000000"/>
				</radialGradient>
				<path id="Vector_221" class="st12" d="M271.1,206.8h-1.2v175.8h1.2V206.8z"/>
				
					<radialGradient id="Vector_222_1_" cx="-1836.2358" cy="975.6254" r="0.6502" gradientTransform="matrix(96.5328 0 0 -96.1986 177571.5156 94136.7109)" gradientUnits="userSpaceOnUse">
					<stop  offset="0" style="stop-color:#00FFFF"/>
					<stop  offset="0.2408" style="stop-color:#00AEAE"/>
					<stop  offset="0.4817" style="stop-color:#006464"/>
					<stop  offset="0.6812" style="stop-color:#002E2E"/>
					<stop  offset="0.8297" style="stop-color:#000D0D"/>
					<stop  offset="0.9106" style="stop-color:#000000"/>
				</radialGradient>
				<path id="Vector_222" class="st13" d="M358.2,359.4l-88.2-152.3l1.1-0.6l88.2,152.3L358.2,359.4z"/>
				
					<radialGradient id="Vector_223_1_" cx="-1836.4158" cy="975.4454" r="0.6502" gradientTransform="matrix(96.5328 0 0 -96.1986 177621.1719 94087.2188)" gradientUnits="userSpaceOnUse">
					<stop  offset="0" style="stop-color:#00FFFF"/>
					<stop  offset="0.2408" style="stop-color:#00AEAE"/>
					<stop  offset="0.4817" style="stop-color:#006464"/>
					<stop  offset="0.6812" style="stop-color:#002E2E"/>
					<stop  offset="0.8297" style="stop-color:#000D0D"/>
					<stop  offset="0.9106" style="stop-color:#000000"/>
				</radialGradient>
				<path id="Vector_223" class="st14" d="M423,295.2l-152.8-87.9l0.6-1.1l152.8,87.9L423,295.2z"/>
				
					<radialGradient id="Vector_224_1_" cx="-1836.3706" cy="975.1788" r="0.6502" gradientTransform="matrix(95.9501 0 0 -95.6175 176558.7188 93450.9297)" gradientUnits="userSpaceOnUse">
					<stop  offset="0" style="stop-color:#00FFFF"/>
					<stop  offset="0.2408" style="stop-color:#00AEAE"/>
					<stop  offset="0.4817" style="stop-color:#006464"/>
					<stop  offset="0.6812" style="stop-color:#002E2E"/>
					<stop  offset="0.8297" style="stop-color:#000D0D"/>
					<stop  offset="0.9106" style="stop-color:#000000"/>
				</radialGradient>
				<path id="Vector_224" class="st15" d="M446.9,206.2H270.5v1.2h176.4V206.2z"/>
				
					<radialGradient id="Vector_225_1_" cx="-1836.4158" cy="974.9537" r="0.6502" gradientTransform="matrix(96.5328 0 0 -96.1986 177621.1719 93951.9922)" gradientUnits="userSpaceOnUse">
					<stop  offset="0" style="stop-color:#00FFFF"/>
					<stop  offset="0.2408" style="stop-color:#00AEAE"/>
					<stop  offset="0.4817" style="stop-color:#006464"/>
					<stop  offset="0.6812" style="stop-color:#002E2E"/>
					<stop  offset="0.8297" style="stop-color:#000D0D"/>
					<stop  offset="0.9106" style="stop-color:#000000"/>
				</radialGradient>
				<path id="Vector_225" class="st16" d="M270.8,207.3l-0.6-1.1L423,118.3l0.6,1.1L270.8,207.3z"/>
				
					<radialGradient id="Vector_226_1_" cx="-1836.2358" cy="974.7737" r="0.6502" gradientTransform="matrix(96.5328 0 0 -96.1986 177571.5156 93902.5)" gradientUnits="userSpaceOnUse">
					<stop  offset="0" style="stop-color:#00FFFF"/>
					<stop  offset="0.2408" style="stop-color:#00AEAE"/>
					<stop  offset="0.4817" style="stop-color:#006464"/>
					<stop  offset="0.6812" style="stop-color:#002E2E"/>
					<stop  offset="0.8297" style="stop-color:#000D0D"/>
					<stop  offset="0.9106" style="stop-color:#000000"/>
				</radialGradient>
				<path id="Vector_226" class="st17" d="M271,207.1l-1.1-0.6l88.2-152.3l1.1,0.6L271,207.1z"/>
				
					<radialGradient id="Vector_227_1_" cx="-1835.8757" cy="974.6841" r="0.6502" gradientTransform="matrix(95.9496 0 0 -95.618 176422.1094 93316.1953)" gradientUnits="userSpaceOnUse">
					<stop  offset="0" style="stop-color:#00FFFF"/>
					<stop  offset="0.2408" style="stop-color:#00AEAE"/>
					<stop  offset="0.4817" style="stop-color:#006464"/>
					<stop  offset="0.6812" style="stop-color:#002E2E"/>
					<stop  offset="0.8297" style="stop-color:#000D0D"/>
					<stop  offset="0.9106" style="stop-color:#000000"/>
				</radialGradient>
				<path id="Vector_227" class="st18" d="M271.1,30.9h-1.2v175.8h1.2V30.9z"/>
				
					<radialGradient id="Vector_228_1_" cx="-1835.744" cy="974.7737" r="0.6502" gradientTransform="matrix(96.5328 0 0 -96.1986 177435.8125 93902.5)" gradientUnits="userSpaceOnUse">
					<stop  offset="0" style="stop-color:#00FFFF"/>
					<stop  offset="0.2408" style="stop-color:#00AEAE"/>
					<stop  offset="0.4817" style="stop-color:#006464"/>
					<stop  offset="0.6812" style="stop-color:#002E2E"/>
					<stop  offset="0.8297" style="stop-color:#000D0D"/>
					<stop  offset="0.9106" style="stop-color:#000000"/>
				</radialGradient>
				<path id="Vector_228" class="st19" d="M269.9,207.1L181.7,54.8l1.1-0.6L271,206.5L269.9,207.1z"/>
				
					<radialGradient id="Vector_229_1_" cx="-1835.5641" cy="974.9537" r="0.6502" gradientTransform="matrix(96.5328 0 0 -96.1986 177386.1562 93951.9922)" gradientUnits="userSpaceOnUse">
					<stop  offset="0" style="stop-color:#00FFFF"/>
					<stop  offset="0.2408" style="stop-color:#00AEAE"/>
					<stop  offset="0.4817" style="stop-color:#006464"/>
					<stop  offset="0.6812" style="stop-color:#002E2E"/>
					<stop  offset="0.8297" style="stop-color:#000D0D"/>
					<stop  offset="0.9106" style="stop-color:#000000"/>
				</radialGradient>
				<path id="Vector_229" class="st20" d="M270.2,207.3l-152.8-87.9l0.6-1.1l152.8,87.9L270.2,207.3z"/>
				
					<radialGradient id="Vector_230_1_" cx="-1835.3811" cy="975.1788" r="0.6502" gradientTransform="matrix(95.9501 0 0 -95.6175 176287.3438 93450.9297)" gradientUnits="userSpaceOnUse">
					<stop  offset="0" style="stop-color:#00FFFF"/>
					<stop  offset="0.2408" style="stop-color:#00AEAE"/>
					<stop  offset="0.4817" style="stop-color:#006464"/>
					<stop  offset="0.6812" style="stop-color:#002E2E"/>
					<stop  offset="0.8297" style="stop-color:#000D0D"/>
					<stop  offset="0.9106" style="stop-color:#000000"/>
				</radialGradient>
				<path id="Vector_230" class="st21" d="M270.5,206.2H94v1.2h176.4V206.2z"/>
				
					<radialGradient id="Vector_231_1_" cx="-1835.5641" cy="975.4454" r="0.6502" gradientTransform="matrix(96.5328 0 0 -96.1986 177386.1562 94087.2188)" gradientUnits="userSpaceOnUse">
					<stop  offset="0" style="stop-color:#00FFFF"/>
					<stop  offset="0.2408" style="stop-color:#00AEAE"/>
					<stop  offset="0.4817" style="stop-color:#006464"/>
					<stop  offset="0.6812" style="stop-color:#002E2E"/>
					<stop  offset="0.8297" style="stop-color:#000D0D"/>
					<stop  offset="0.9106" style="stop-color:#000000"/>
				</radialGradient>
				<path id="Vector_231" class="st22" d="M118,295.2l-0.6-1.1l152.8-87.9l0.6,1.1L118,295.2z"/>
				
					<radialGradient id="Vector_232_1_" cx="-1835.744" cy="975.6254" r="0.6502" gradientTransform="matrix(96.5328 0 0 -96.1986 177435.8125 94136.7109)" gradientUnits="userSpaceOnUse">
					<stop  offset="0" style="stop-color:#00FFFF"/>
					<stop  offset="0.2408" style="stop-color:#00AEAE"/>
					<stop  offset="0.4817" style="stop-color:#006464"/>
					<stop  offset="0.6812" style="stop-color:#002E2E"/>
					<stop  offset="0.8297" style="stop-color:#000D0D"/>
					<stop  offset="0.9106" style="stop-color:#000000"/>
				</radialGradient>
				<path id="Vector_232" class="st23" d="M182.8,359.4l-1.1-0.6l88.2-152.3l1.1,0.6L182.8,359.4z"/>
			</g>
		</g>
	</g>
</g>
</svg>
